/* XPM */
static char *_28629c748394aa6d44a82c42173db76gtW3pXWTWHUc5EV5[] = {
/* columns rows colors chars-per-pixel */
"64 64 237 2 ",
"   c #1D3803",
".  c #223D05",
"X  c #233E09",
"o  c #264505",
"O  c #2C4D05",
"+  c #26410A",
"@  c #29450B",
"#  c #2D4B0B",
"$  c #2D5305",
"%  c #325406",
"&  c #335B05",
"*  c #34530C",
"=  c #36590B",
"-  c #395C08",
";  c #3A5C0C",
":  c #304D10",
">  c #355412",
",  c #3A5717",
"<  c #3C5C13",
"1  c #366107",
"2  c #3D6306",
"3  c #3C6A04",
"4  c #3C630C",
"5  c #3E6A0C",
"6  c #3F7204",
"7  c #3E6112",
"8  c #3E6B11",
"9  c #405E08",
"0  c #405E15",
"q  c #446707",
"w  c #436C06",
"e  c #42660B",
"r  c #456C0B",
"t  c #4B6C0C",
"y  c #526D0F",
"u  c #427106",
"i  c #45720A",
"p  c #4B740C",
"a  c #487809",
"s  c #4C7A0D",
"d  c #55770B",
"f  c #537B0E",
"g  c #426414",
"h  c #446B13",
"j  c #4B6C14",
"k  c #44641A",
"l  c #4A651B",
"z  c #466B19",
"x  c #4B6C1C",
"c  c #516E16",
"v  c #467314",
"b  c #4D7413",
"n  c #4E7912",
"m  c #4C731B",
"M  c #4D781A",
"N  c #537414",
"B  c #5A7514",
"V  c #537C13",
"C  c #597D15",
"Z  c #55741B",
"A  c #547B1A",
"S  c #5B7C1B",
"D  c #627C1A",
"F  c #574F39",
"G  c #59503A",
"H  c #5C523C",
"J  c #6B5729",
"K  c #665A3B",
"L  c #4D6D22",
"P  c #4C7320",
"I  c #527322",
"U  c #537B22",
"Y  c #5C7827",
"T  c #677D29",
"R  c #6B6C34",
"E  c #746938",
"W  c #767939",
"Q  c #5D5542",
"!  c #625842",
"~  c #645A45",
"^  c #665D49",
"/  c #685F4A",
"(  c #6B624D",
")  c #78724A",
"_  c #6E6651",
"`  c #716955",
"'  c #736B58",
"]  c #7C7562",
"[  c #82793C",
"{  c #857446",
"}  c #897A52",
"|  c #837C6A",
" . c #58820B",
".. c #5B840C",
"X. c #558114",
"o. c #5A8314",
"O. c #5B841A",
"+. c #5A861A",
"@. c #658A0E",
"#. c #648C13",
"$. c #668816",
"%. c #6A8D14",
"&. c #62851C",
"*. c #638B1B",
"=. c #728D1C",
"-. c #6B9216",
";. c #689318",
":. c #6B941B",
">. c #72951B",
",. c #73971B",
"<. c #5C8323",
"1. c #6B8D24",
"2. c #698829",
"3. c #728C2D",
"4. c #6D9323",
"5. c #6E952A",
"6. c #739B24",
"7. c #7A9A25",
"8. c #73942C",
"9. c #6A8634",
"0. c #768A39",
"q. c #739432",
"w. c #799839",
"e. c #7AA12F",
"r. c #7B8B47",
"t. c #718748",
"y. c #7A9646",
"u. c #809B3D",
"i. c #85A539",
"p. c #878A44",
"a. c #99844D",
"s. c #839444",
"d. c #869947",
"f. c #949B4D",
"g. c #868A59",
"h. c #9D8752",
"j. c #879856",
"k. c #939C55",
"l. c #A48D55",
"z. c #AC945B",
"x. c #B29A5F",
"c. c #89A449",
"v. c #92AC4B",
"b. c #8EB043",
"n. c #93B248",
"m. c #8BA552",
"M. c #9BA454",
"N. c #97A955",
"B. c #9CB455",
"V. c #A7AC5B",
"C. c #A4AB5C",
"Z. c #A4B65D",
"A. c #8C8766",
"S. c #92866C",
"D. c #968C69",
"F. c #948A6E",
"G. c #8C9463",
"H. c #99956B",
"J. c #8C8472",
"K. c #968A72",
"L. c #998D75",
"P. c #958D7A",
"I. c #9C9276",
"U. c #9C9977",
"Y. c #9D927A",
"T. c #A6986D",
"R. c #B69D62",
"E. c #A49977",
"W. c #A1957D",
"Q. c #B19F72",
"!. c #98AF61",
"~. c #99A568",
"^. c #9DA276",
"/. c #AAA768",
"(. c #B9A769",
"). c #A8B863",
"_. c #B5B567",
"`. c #BCBB6C",
"'. c #A7A677",
"]. c #B6A677",
"[. c #A5B373",
"{. c #BCB773",
"}. c #C4AA6C",
"|. c #C4B66F",
" X c #C1BD6F",
".X c #C4AE77",
"XX c #C9B776",
"oX c #C3BD71",
"OX c #D6BB79",
"+X c #A9C25E",
"@X c #ACC265",
"#X c #B4C86A",
"$X c #BCD16F",
"%X c #C5C273",
"&X c #CBC376",
"*X c #C5C179",
"=X c #CAC57A",
"-X c #D4C47B",
";X c #DCC47E",
":X c #D8C97D",
">X c #E0C47F",
",X c #9D9582",
"<X c #A19780",
"1X c #A59B84",
"2X c #A89E87",
"3X c #A59C8A",
"4X c #A99F88",
"5X c #A8A585",
"6X c #ACA28C",
"7X c #B4AB8D",
"8X c #B7B28A",
"9X c #AEA591",
"0X c #AFA892",
"qX c #B0A792",
"wX c #B3AA95",
"eX c #B6AD99",
"rX c #B8AF9B",
"tX c #B7B596",
"yX c #BAB29D",
"uX c #BDB5A2",
"iX c #BDB7A3",
"pX c #CFBA85",
"aX c #C5B895",
"sX c #C0B7A3",
"dX c #C1B9A5",
"fX c #C4BDAA",
"gX c #DBC482",
"hX c #CDC198",
"jX c #DAC896",
"kX c #E2C681",
"lX c #E4C984",
"zX c #E9CD86",
"xX c #E6CD8B",
"cX c #E3CC95",
"vX c #C7C0AD",
"bX c #D9CCAB",
"nX c #CAC3B2",
/* pixels */
"q.b 2 2 q 2 r 2 w s r i i V s f #...f f f  . . . .....$.=.$.7.7.7.>.%.>.>.%.@.@.#.@.d o.S S A b t b b A n b j j g 2 e e 4 4 h y.",
"b e q t t q r 2 r N p r w s p V o... ... . . ... . .@.$.%.C =.7.7.>.-.>.>.-.-.%.%...p O.&.S N S A V b b A Z v r 4 1 h h h h 4 U ",
"q q t N b N N w w b s p i V V f  .f d f ....#.#. .@.$.$.=.$.>.>.7.7.>.-.-.-.-.#.%.*.1.1.O.O.S <.O.A b b b b b j v 5 h 4 h M I U ",
"N q e b V A b w p n p p r X.O.O. .a i d o.;.;.%.#.#.%.:.7.7.7.%.-.>.%.@.%.%.:.%.@.*.6.*.f V V O.V n V p r r t b b e h v m U U U ",
"t 2 - b V N q 2 V V p u q V *.*.C d d @.:.4.:.;.:.@.%.6.i.7.>.>.#.@.@.@.-.#.>.6.-.#.:.O.V p i V i p V n r r b V r 2 b A b h h h ",
"w 2 e b N t q p A V V V i V X.V C C d ..$.%.4.6.6.4.6.>.>.-.>.>.-.-.%.:.-.%.>.6.>.:.4.*.V s n V s s V V V V V V v t b b r 2 e t ",
"p p p p i q t N N s V O.V O.A s 5.1.C d d o.;.4.6.e.e.@...-.>.-.-.6.6.6.:.#.7.b.n.b.e.O.s p O.O.X.X.X.V V V f s s V n p q r q p ",
"p b b r w q t p V s N X.V O.O.C i.w.&.o.$.&.*.*.7.7.6.@.#.-.-.#.#.>.6.:.;.6.n.#X#X#Xn.5.O.V O.O.O.O.X.f p p p p V O.V q r i i r ",
"q r b i w 3 r t V X.C V V O.X.f 1.8.8.1.*.1.8.5.6.:.:.:.-.#.#.%.#.#.#.#.e.n.+X#X#X@X@Xv.5.X.O.O.o.X.f a a X.X.V O.V w q i p p r ",
"w w p u p p p i f X.V s p V X.C 1.B.+Xn.1.8.q.*.*.:.:.$.$.4.8.3.q.3.1.4.e.v.B.).Z.M.M.N.c.1.X.X.o.f f V X.V V V V V w 2 i p r p ",
"i p p i s N f i V V w p C O.*.8.B.$X$X@Xi.w.5.o.V *.4.2.0.~.'.'.'.U.G.j.d.y.c.N.M.[ p.N.Z.v.1.f  .f V X.X.a p p p V s i V p 2 r ",
"r V O.n V p f f C f t f *.1.8.B.#X$X@X#XZ.w.1.*.8.d.k.'.7XyXyXrXyXuXwXU.j.y.y.d.s.E p.B.Z.v.8.O.o.O.o. .f V V s s X.S V V i q r ",
"w V O.V V s V V V V V &.*.1.b.@X#X).M.C.).B.c.y.~.tXdXdXyXqX9XwXwXwX9X2XK.A.G.G.g.) s.B.Z.v.8.O. .f f f  .C V V O.V A n q w b A ",
"w s V p A V V V C C C &.&.8.Z.).C.f.p.f.B.).[.8XuXdXuXqX1X4XqXwXwXwXwXqX6X6X<XY.W.U.^.'.[.N.q.O.f a f X.O.V s V V p V V r r O.O.",
"u a u 3 V X.V C V C C O.&.8.B.C.f.p.p.f.~.8XvXdXyXrXqX<X2XwXuXdXfXfXfXdXuXuXrX2XY.1XwXyXtX5Xj.y.q.q.q.8.8.1.C O.b r V V b b b p ",
"a n a 3 s X.X.O.s O.1.1.&.w.N.k.{ [ p.k.5XvXdXwXqX6X6X2XqXuXfXnXnXvXvXfXuXuXuXrX4XY.1XqXuXdXeX5X~.!.m.c.B.B.w.w.8.V n s p r r q ",
"6 s i 3 u s X.X.O.i.B.n.w.u.m.j.E E r.U.yXuXwX6X6X6X9XyXfXnXnXfXfXfXdXdXdXuXuXyXwX6X2X<X4XyXfXfXrX^.j.c.N.Z.B.Z.B.8.O.n p r b V ",
"a a 6 3 6 6 u n q.+X$X#XB.c.m.j.W J r.W.9X6X6X9X9XwXuXvXvXfXdXdXfXfXfXfXfXfXfXdXyXwXqX9X1X1XyXnXuX5Xr.y.s.m.M.C.B.1.O.n V s V V ",
"a a a a s u 3 V v.#X#X@XB.m.m.y.W J } 2X1X2XwXyXyXuXdXuXuXuXuXuXuXuXuXuXuXuXuXuXuXyXwXwXqX<XwXfXsX5Xg.W W 0.p.N.c.S V b V V n r ",
"6 s n s s p q N v.#X@X!.m.d.c.j.g.} K.2X<X6XsXuXyXyXrXrXrXrXwX9X9X3X9XwXrXyXuXuXuXuXrXrXwX1X9XfXfX6Xg.R R [ f.v.w.S b b V n p q ",
"3 a p i w w r O.v.).).N.d.y.G.5X0X<XW.6XwXuXuXyXwXrXrXwX6X4X<XP.| ' ' ] | P.6XrXuXyXyXyXwX<X6XuXfXwXD.E W d.N.w.2.A b r b v v r ",
"5 5 r n A N 3.c.B.).M.p.s.G.tXdXwX<X6XuXuXuXyXwXrXuX9X<X<XY.| ( Q G Q Q Q ~ _ | 3XuXuXyXwXY.4XrXvXyXU.r.y.N.c.2.<.V b r v r r r ",
"v 5 r A 2.w.Z.@X).N.p.E ) ^.uXwX1X6XuXuXuXyXrXrXuXwX<X<X<X| / H G G F F F F G Q ] 3XyXyXwX<X<XqXfXuX1Xj.y.c.3.S V b v r h 4 5 h ",
"h r 4 h w.@X#X#X!.c.y.W ) 1XqXW.<XrXyXrXyXyXrXuXrX2X<XY.| ` / ~ / ~ Q Q Q F H Q / J.yXyXwX1XY.6XuXuX5Xj.y.c.3.b b t b r 5 4 h M ",
"= m h m B.$X#X).B.d.y.y.g.W.W.L.1XwXrXuXyXrXuXrX6X2XP.] ` ( / ( ` ( ( ( ~ Q Q Q ~ | yXrXwX1XY.4XuXuX5XG.j.c.q.S U b <.r 4 h 5 v ",
"$ 4 g 2.).#X).M.M.y.y.y.g.L.L.K.1XqXuXyXrXdXyX6X2XP.] ` ( ( / _ _ ( ` ` _ _ ~ Q Q | rXwXqX1XL.2XuXuX6X1X^.j.d.c.d.w.d.<.h v 4 5 ",
"4 - h d.#X#XC.f.p.0.y.r.A.K.K.L.6XyXsXrXuXfXwX6X,X] ` _ ( / ( ` ( _ ` ` ' ` ( Q Q J.rX9XwX4XL.<XuXdX4X6XrX5X~.j.d.d.m.w.M v 5 1 ",
"h h h 3.).@XZ.f.W R 0.r.F.L.Y.Y.rXuXuXdXnXfXqX9XP.' ` ( / ( _ _ ( _ ` ` ` _ ( ~ ~ P.wX6X9X6XY.W.rXuX4X6XuXdXwXH.r.W p.s.U m v 4 ",
"h z 5 m c.).Z.M.[ J W G.<X9X6X1XwXwXyXfXnXfXwX9XJ.' _ / ^ ( ` _ ( _ ` _ _ ( ( / _ 3XqX2X6X4XY.Y.qXyX6X4XrXuXrX2Xg.W s.w.M v M 5 ",
"5 5 4 A d.N.f.N.p.J { 5XuXdX6XY.4X9XrXuXfXfXrX9X| ` ( ~ ^ _ _ ( / ( _ ( ( ^ / / ] 0X6X1X2X2XW.L.2XwX6X1XqXyXqX<Xg.y.w.<.v i v 3 ",
"4 = h 9.m.s.W W W ) W.fXfXyX<XY.2XqXrXrXuXdXrX6X] _ / ! / _ _ ( / ( _ ( ^ ~ / ( | 0X1X2X4X4X1XL.W.6X4XW.4XqX6XY.G.m.q.b i 3 5 3 ",
"1 1 M q.c.W R R W A.yXfXuXwXY.Y.2XqXwXrXrXuXrX6X] _ / ! / _ ( ( ^ ( ( ^ ! ~ ~ / P.9X1X6X6X6X4XL.Y.4X<XY.1X2XE.I.A.s.2.M M 5 1 1 ",
"4 5 A w.N.s.0.0.r.U.rXrXqX2XK.L.2X6XrXrXeXyXqX6X] ( ^ ! / ( ( ^ ~ / / ~ ! ! ! / P.6X4XqX6X4X6XL.Y.2XY.L.W.W.W.I.A.T M <.2.A 1 & ",
"4 & 5 w.B.m.y.y.j.U.4X6X2XY.S.L.4X9XwXwXwXwX6X2X' ( ^ ! / ( ( ! Q ~ ~ ! K Q H / Y.6X6X6X2X6X4XK.L.1XY.L.Y.Y.L.L.A.r.9.w.v.w.8 & ",
"4 & h c.Z.m.~.^.H.L.W.2XW.K.S.Y.6X9XwXeXqXqX6X,X` / ~ ! ^ / ~ H H ! ! H H H G ^ Y.6XqX2X2X2XW.K.L.Y.L.K.L.L.K.K.D.j.d.p.d.0.m 4 ",
"4 5 h q.m.[.tXyXY.F.Y.<XL.S.S.W.6XwXwXwXqXqX6XP.( ~ ! ! ^ / H G G H H H H G G ^ ,XwXqX2X6XW.L.F.L.L.K.F.L.L.L.Y.K.g.) W 0.Y m 8 ",
"7 7 4 j y.tXfXrXY.S.Y.<XL.S.S.Y.2XwXqXwX6X4X6XJ.( ^ / / / ! G F G H K E ) E E ) 6XrX6X1X6XY.K.K.L.L.K.F.L.2XqXwX6XW.D.g.0.U m 8 ",
"z 4 1 Y ^.yXrX4XK.S.Y.W.K.S.S.L.4XqX6XqX2X1X6XJ./ / ( / ~ H F G K ) { } a.a.a.T.yXqX<XW.4XY.K.K.K.L.Y.L.<XrXdXuXrXrX0XG.9.m 8 8 ",
"7 5 h t.5X6X1XY.K.S.L.L.K.S.F.Y.4X6X2X2X1X<X9XJ.( ^ ~ ! H F F E { a.a.a.a.a.h.].yX1XI.W.2XL.S.S.L.2XqX6X6XwXdXfXuXyXwXG.9.8 4 v ",
"O 7 z R U.W.Y.L.K.S.K.L.K.S.K.L.<X2X1XW.Y.W.wXP.( H H H G F K { a.h.l.h.a.a.l.].sX<XL.<X2XL.S.K.1XyXuXeX6X2XrXuXuXrX6XA.9.m 8 8 ",
"= 4 z t.U.I.L.Y.Y.L.K.K.F.S.K.L.I.W.W.L.L.W.yX,X/ G G G K K { a.l.z.x.z.z.l.l.8XdX<XL.1X1XK.K.1XwXdXfXeX4X1X9XwXqX6X1XF.j.Y h 4 ",
"= g I j.5X<X6XwXqX1XL.K.S.S.K.L.L.Y.Y.L.L.1XuX,X~ F K E { a.l.z.x.R.x.z.x.x.R.aXdX<XL.1XW.K.Y.wXyXuXdXwX6X1X2X6X2X1XY.I./.0.h & ",
"= g 9.].tXrXuXrX6X2XY.K.S.S.K.L.L.L.L.L.Y.1XuX,X~ K { h.z.x.x.x.R.R.R.R.R.(.}.pXaXY.L.W.L.K.<XrXuXrXwXqX6X1XY.W.W.Y.L.T./.y.h = ",
"4 z d.XXhXyXqX4XW.Y.L.K.S.S.K.L.L.K.L.L.Y.1XuX1X} a.x.(.}.}.}.}.(.(.(.}.XXOX;XxXpXE.K.L.K.K.2XwXrXwX4X6X2XW.L.L.L.L.H./._.s.h 4 ",
"k I C.=XaX2XY.L.L.K.K.K.S.S.F.E.E.I.I.I.I.E.aXpX(.(.}.OXOX;X;XOXOXXXOX>XkXOX;XlXlX.XT.F.S.K.1X2X2X6X1X2XW.Y.F.F.H./._.{._.0.g h ",
"= m C.*X8XI.K.F.F.F.F.F.T.Q.]..XXX.X.X.X]..XpXlXOXXXOXkXkXlXlXkX;XOX;XlXlX-XgXzXzXlX.XQ.H.D.I.Y.W.W.W.W.I.L.D.T.{.oX%XoX).T 4 m ",
"O g M.oX{.].].Q.Q.Q.Q.]..XgXpXOXOXgXzXzXkX;XkXzXzXkXkXlXkXlXzXzX>XOX;XlXzXxXcXbXjXjXgXXX.X].].].'.E.E.E.T.T./.{.%X%X%X`.M.Y g z ",
"$ 7 d.`.%XoX&X-X-X;XgXgXkXkXlXgXlXxXzXzXzXkXlXzXzXzXzXzXzXzXzXzXlX;XkXzXxXbXbXnXfXdXaXpXOXgXjXjXaX8X].{.{.oXoXoX XoX XC.9.g h h ",
"* = T V.%X&X&X-X:X:X;X;X-XOXgXgXxXxXlXgX-X;X;X;XkXkX;XlXzXzXzXzXlXkXzXzXjXdXuXuXrXwX2XE.].hXbXnXfX8X.X%X%X%X%XoX_._.M.T g e 4 e ",
"% % g s._.%XoXoX%X&X&XoX&XXX|.-XgX-X-X-X-X-X-X-X-X-X-X;XkXkXkXkXOXXX;XgXpXQ.Y.L.P.K.S.A.H.8XuXwX3XI.].%X%X%X X_.M.0.Y x x h - - ",
"% % * x s.)._.`.oX%X%X%X&X%XoX%XoX|.%X&X&X&X&X&XoXoX&X-X-X-X-X-X|.|.-X-X&X{./.H.D.A.A.A./.].U.F.A.H._.`._.V.M.0.T < g I z e 9 q ",
"* O o O g T d._.oX%X%X=X=X%X%X%XoXoX%X%X%XoX%XoXoXoX%X&X&XoX&X&XoXoX&X&X&X%XoXoXoX{.{.{.*X{._././.C.M.0.9.Y x g g ; j m g g j j ",
"# o o o * < l s.`.%X=X=X=XoX X X%X%X%X%X%XoX X XoX%X%X%X%XoXoXoX%X%X%X%X%X%X%X%X%X%X=X=X=X%X`.V.d.0.9.j 0 = % * = ; g x j m m ; ",
"o o o # > > : l k.{.=X=X%X%XoXoX%X%X%X%X%X%XoX X%X%X%X%X%XoX XoX%X%X%X%X%X%X%X%X%X*X*X{._.V.f.9.c I I g = = - 7 ; = ; g g g j 4 ",
"  + # # * * : * Y M.`.%X%X%X%X%X%X%X%X%X%X%X%X%X%X%X%X%X%X%X%X%X%X%X%X%X%X%X%XoX`._.C.d.0.Y I P h I x z 7 7 e z k g = = % % g g ",
". @ : # @ # > > , Y d.V.`. X%X%X%X%X%X%X%X%X%X%X%X%X%X%X%X%X%X%X%X%X%X X`.`._.M.s.0.Y x z g z z k I x x k ; 7 k I m ; * = * ; * ",
"+ @ + @ : : , > > k l T s.C._.`.`.`. X X X X X`.`.`.`.).C.V.V.V._._.V.M.d.0.9.Y j j m 4 - h k 7 z k L x < * ; g I I x k k ; $ O ",
"  X . @ > : , > > , > 0 l Y 0.r.d.d.f.M.M.N.M.f.f.d.0.T D T T T 2.3.3.2.D B c j g g h 4 - 7 h x < * g g * = ; g z k g k g * O $ ",
"+ + . + @ @ @ @ # * : > < g k g j g j m I U m N b b b t B B y y y N B y y t B j t 4 5 - % = h U < # > = % % % ; z < < x L < % O ",
": @ X + + # , , # o o * < < > > g ; 4 h h h h h 2 r N t B j y y B t t t t t S j 4 4 e & $ 1 8 P g * < = = ; % ; x < g I L k , % ",
"@   X + . + > , O + + * > > % % 4 4 ; 5 5 4 r h 2 r b q t t y B B y y B B C B q 2 r r & $ 4 8 z < * > = < 7 = < g = ; g g k 0 , ",
"X     X   . . . o + O % ; < O O ; e - 4 4 4 h h 2 r b t c c B B B B B B S D B t r 4 4 & & 8 8 z < * * , k g = g < O O * g k > @ ",
", X . . . @ @ + # @ # > 0 < % * g g 4 5 h h z 5 & r N N S S S B B B d B C D N N b 4 3 5 h m v x k > > k L 7 % g < % O < k < > , ",
") , + .   + @ o % # * ; 0 < % = ; 7 % ; h h h - & r j c c Z B B d B y d B &.B V N r r v U <.M z < # * < x * o < ; = < , * @ , t."
};
