/* XPM */
static char *_4736_41483f01b2e59614c3419cce7f3aaab9cb817a295b537f5747041ae9d1da9db7[] = {
/* columns rows colors chars-per-pixel */
"64 64 254 2 ",
"   c #050401",
".  c #090502",
"X  c #0B0904",
"o  c #0C0B09",
"O  c #070803",
"+  c #120C03",
"@  c #120E09",
"#  c #190D01",
"$  c #1C1504",
"%  c #14130B",
"&  c #1B150B",
"*  c #1E1A0C",
"=  c #181406",
"-  c #1B1A14",
";  c #241C0B",
":  c #261907",
">  c #231C12",
",  c #2A1F14",
"<  c #1E2215",
"1  c #2C220C",
"2  c #29220C",
"3  c #32230C",
"4  c #352C0A",
"5  c #262113",
"6  c #2C2314",
"7  c #23231C",
"8  c #2B251A",
"9  c #2A2A1B",
"0  c #332613",
"q  c #332A14",
"w  c #3B2E14",
"e  c #332B1C",
"r  c #382B19",
"t  c #3B321B",
"y  c #3B3217",
"u  c #2D3218",
"i  c #2A2D25",
"p  c #292A24",
"a  c #332D23",
"s  c #2C3224",
"d  c #2D322C",
"f  c #3B3324",
"g  c #33352C",
"h  c #35392C",
"j  c #393628",
"k  c #363933",
"l  c #3A3C34",
"z  c #353935",
"x  c #2C3230",
"c  c #42341B",
"v  c #45391C",
"b  c #463819",
"n  c #413113",
"m  c #443C23",
"M  c #4B3C24",
"N  c #443D2B",
"B  c #473926",
"V  c #433D32",
"C  c #513D24",
"Z  c #3C4136",
"A  c #3D433C",
"S  c #3D432E",
"D  c #53461B",
"F  c #50481B",
"G  c #4D4124",
"H  c #4B442C",
"J  c #48442B",
"K  c #534425",
"L  c #53452D",
"P  c #54492E",
"I  c #5B4B2C",
"U  c #594727",
"Y  c #444234",
"T  c #4B4632",
"R  c #4C4A35",
"E  c #42453C",
"W  c #454A3B",
"Q  c #4D4C3B",
"!  c #484737",
"~  c #534B33",
"^  c #5B4D34",
"/  c #534E3A",
"(  c #584934",
")  c #5B5136",
"_  c #54513C",
"`  c #5B543C",
"'  c #5E593D",
"]  c #565235",
"[  c #565331",
"{  c #66572A",
"}  c #615334",
"|  c #62563B",
" . c #645A3D",
".. c #695C37",
"X. c #66532C",
"o. c #6B6339",
"O. c #74673C",
"+. c #70652F",
"@. c #634D1C",
"#. c #3C5165",
"$. c #464B44",
"%. c #4B4D43",
"&. c #4B4E4B",
"*. c #434745",
"=. c #524E43",
"-. c #4C524C",
";. c #4C5245",
":. c #545342",
">. c #5A5642",
",. c #5C5944",
"<. c #53554B",
"1. c #5A5649",
"2. c #5C5C4C",
"3. c #565A4C",
"4. c #515652",
"5. c #555A53",
"6. c #5B5D53",
"7. c #595C5B",
"8. c #4F5352",
"9. c #635C43",
"0. c #6A5D44",
"q. c #625E4B",
"w. c #695C49",
"e. c #635E52",
"r. c #5E624E",
"t. c #5D625B",
"y. c #5C6054",
"u. c #666245",
"i. c #6B6345",
"p. c #65614C",
"a. c #6B634B",
"s. c #6C6A44",
"d. c #756947",
"f. c #7A724C",
"g. c #7B774B",
"h. c #646254",
"j. c #6B6651",
"k. c #6E6952",
"l. c #63655C",
"z. c #68685A",
"x. c #746D55",
"c. c #797457",
"v. c #6C755A",
"b. c #53686B",
"n. c #666A64",
"m. c #6E7166",
"M. c #74766A",
"N. c #767565",
"B. c #6E7976",
"V. c #425D6E",
"C. c #847238",
"Z. c #84784A",
"A. c #867B56",
"S. c #927E5B",
"D. c #847E62",
"F. c #7A8479",
"G. c #8D803A",
"H. c #8B845C",
"J. c #898458",
"K. c #95895A",
"L. c #978952",
"P. c #A5985D",
"I. c #A88F5A",
"U. c #8A8665",
"Y. c #938A66",
"T. c #9B936B",
"R. c #999367",
"E. c #9A9777",
"W. c #8B8C76",
"Q. c #A79A68",
"!. c #A59C75",
"~. c #B09F6B",
"^. c #ADA26F",
"/. c #B8A56B",
"(. c #A4A37D",
"). c #ACA37B",
"_. c #A9A377",
"`. c #B4AB7D",
"'. c #B7A877",
"]. c #BDB17A",
"[. c #A8A26C",
"{. c #C4B57A",
"}. c #C6B579",
"|. c #D9BB76",
" X c #C9B16F",
".X c #D4B26A",
"XX c #D9C37D",
"oX c #E4C57C",
"OX c #3B61A0",
"+X c #49688D",
"@X c #657C86",
"#X c #466AA6",
"$X c #7B8C83",
"%X c #979D86",
"&X c #809085",
"*X c #A99E81",
"=X c #9CA792",
"-X c #ABA986",
";X c #B4AA84",
":X c #B7AB86",
">X c #B5B38C",
",X c #BCB48D",
"<X c #BCB486",
"1X c #BCBB95",
"2X c #BAB794",
"3X c #ACAE94",
"4X c #A5B3A5",
"5X c #C6B888",
"6X c #C5BB97",
"7X c #CFBA85",
"8X c #BDC6A7",
"9X c #BFC39E",
"0X c #DBC587",
"qX c #C8C399",
"wX c #D6C997",
"eX c #DED29D",
"rX c #CAC38B",
"tX c #E6CA88",
"yX c #E6D68C",
"uX c #E9D799",
"iX c #F4DB98",
"pX c #ECD08F",
"aX c #F5E39A",
"sX c #EBE298",
"dX c #C9C8A6",
"fX c #D4CAA5",
"gX c #DBD4A7",
"hX c #DAD8B4",
"jX c #CFCFB7",
"kX c #E6D9A7",
"lX c #E5DBB5",
"zX c #F5DDA7",
"xX c #EDE5A7",
"cX c #F8E7A9",
"vX c #FCF3AB",
"bX c #F8F6A8",
"nX c #EAE4B8",
"mX c #F7E9B6",
"MX c #FDF3B5",
"NX c #FFFCBB",
"BX c #FCF5BA",
"VX c #DEE4BE",
"CX c #D5D5C2",
"ZX c #EADEC0",
"AX c #EAE7C6",
"SX c #FDF3C4",
"DX c #FEFBC4",
"FX c #FFFCCC",
"GX c #F8F5C8",
"HX c #FFFED3",
"JX c #FAF8D9",
"KX c #F9EBC1",
"LX c #FDFEE5",
"PX c #F9FAEC",
/* pixels */
"OX#XOX+XOX+XV.V.F.&X8XVX1XG.[.F.c.,XlX,X2X,Xo.[ K.[.F.J.Y.>XE.U.j.2.~ R _ ,.' ~ / R p.Q r.m.Q r.;.r.r._ r.r.' Q :.Q _ Q _ _ W r.",
"#XOXOX+XV.V.F.=XF.4X8X>X(.F.R.L.!.>X1X1X:X-XO.[ R.s.J.R.U.Y. .s.v.p.Q R _ ,.` ~ 9._ p.:.2.v.Q 3.Q :.:.' _ r._ R _ Q _ Q _ _ J r.",
"OXV.+X+XV.F.F.=X8X8X8X[.^.J.F.sX:X;X!.6X_.`.R...R.o.g.K.A.f.s.U.k._ J R >.9.,.' x._ p.2.2.z.:.;._ Q Q _ _ :._ Q _ Q _ _ _ _ W r.",
"@Xb.F.b.F.$X$X=XVX8X8X1X<XF.J.nXY.Y.-XfX,X).6Xg.R.,XZ.g.d.` A.x.>.T Y / 9.9.9.a.c._ 9.q.,.h.<._ :.R W _ r.;.[ Q _ W _ _ r._ J r.",
"F.$X8X=XF.=XP.[.6XdX6X2XqX*X:X!.U.H.6XlXqXR.fXQ.J.nX:XU.R.x.f.' q.:.` q.,.~ ~ ' c.>.q.q.:.2.3._ :.W J _ :._ Q _ Q R _ _ _ :.Q r.",
"v.F.8X8X8X8XF.J.*X6X:X2X6X6XZX*X*XqXlX<XR.R.nX).[ !.).x.U.i.w P 9.9.q.9.` J G ~ c.a.a.q.r.p.r.;.R R W [ Q Q Q _ [ W _ Q ,.:.[ r.",
"R.E.>X(.1X>XF.L.D.*X:X6XdX6XZXlXfXFXlXT.d.`.gX!.A.R.<XS.A.} 4 P ' ,.q.9.] I ~ ` 0.c.x.j.k.k.p.:.W R Q R [ _ _ _ _ W Q _ ,.:.R p.",
"E.9XhXR.[.[.+.F.g.T.6X:XfXdX6X6XlXnX,X,XT.5X`.R.J.H.!.A.d.w c t 9.a.a.9.'  .0.i.( c.c.j.x.v.h.:.J _ _ Q W _ r._ ] W _ _ _ ,.Q j.",
"(.1XqXdX[.R.F.c.c.J.`.>X1XrX1Xg.,XmXfXlX_.Q.5X!.:X6XD.T.f.B i.( ~  .) m M P  .i.^ i.i.u.k.k.q.,./ ~ ~ R ~ ~ _ / ' Q ~ ~ >.,._ a.",
"8X1X(.1X(.o.{ U.g.J._.9XVX9X[.F.R.qXgXY.!.H.).:XlXqX*XA.C } M L m J G v y K } ) ) i.a.u.k.k.p.q.R R H R _ ` _ _ :.] ' _ ` :./ a.",
"dX%XF.E.%Xs.U.6X-X-X1XqXxX>XF.G._.!.'.d.H.K.Q.KXGX6X5X0.} C 0 c y y m c w C } M I 0.w.0.k.k.j.k._ T N T _ ` / ~ _ _ ' _ ` _ _ k.",
"-XH.E.-X3X(.9XnX>X2X9X9X9X[.F.+.J.O.~.Q.d.+.O.;XlX6XY.d.c.1 n 3 v w v v 4 M I b K } | | u.k.k.x.p.~ J R ` _ / _ ] R _ _ >.>.>.c.",
"-Xg.qX2X-X2XhXhX2XE.E.>X-X(.F.+.d.O.`.g.O.n o...:X6Xd.S.} 3 1 3 m w v v n K } K G I } ) 9.i.a.c.c.9.~ P _ ~ ~ ~ P T ~ ~ ` ,.' x.",
"6Xd._.!.S.:XfXfXZX*XY.;X[.E.U.o.K.J.O.o.^.Z.Z.S.S.*XS.x.n 3 : n t 4 n b n U ..I K } | | 9.9.q.k.N.x.' R ~ ~ ] ~ R T ~ ~ _ ` ~ k.",
"5XL.Z.L.S.'.6X'.ZXlX5X*XU.E.J.o.Z.Z.o.rXkX^...Z.d.A.A.0 n : : 0 4 4 y n b U } } U } .. .0. .' u.x.x.u.~ J ~ ] R H H ~ R ] ~ ~ k.",
"'.rXJ.Q.5X6X5X..S.nXnX).A.T.c.[ Z.A.gXFXkXg.X.X.O.O.n 3 c 3 : , 0 y y n M U U } K )  . . .| ` 9.u.k.p.~ H ~ / P m J ~ H R ~ ~ x.",
"/.rXeX<XwXwXeXkXuXI.C.C.7X!.^ T.<XkXxXDXmX5XO.J.C D b w 0 , , , a 3 n C c C X.w.} I I } | | | ) u.a.u.' ~ L P ) ( C ^ | / J v u.",
"].wXwX!.Y.Z.'.pXiXI.S./.wX:XS.6XK.eXFXkX5XkX5X7X..K n w r , , , r r n c n B C X.U U ( ..0...| | ,.a.a.9.~ L L ( ( ` w.| ( ~ H 9.",
"^.qXwX5XY.X.L.{.7XzXzX/.~.ZXlXS.{ J.sXxX<X7XQ.5X..C w n 0 : & , 0 r 0 3 0 3 n C C C U 0.d.| |  ._ u.a.a.' L L ( ^ >.0.^ P [ R ,.",
"`.eXgXBXmX7XfXpXtX0X|.tXzXpXkX:X4 @.rXwX5XgXQ.O.U v c r , # & , 8 t 3 : 3 3 3 C C c C | d.0.|  .] u.a.a.| L L L | | 9.C J H J ' ",
"6XgX6XKXHXmXmX7XtXpX|.pXcXkXfX5XF D K.`.!.5X).X.b v c 1 : ; ; ; q q : $ 3 3 3 B C c n ( i.d.0.| ' 9.a.a.9.( L ( | ( ~ P P J v ' ",
"'.'.'.zXSXHXDXzXtXcXtXpXMXuXwXeXZ.4 U S.A...Z.} C v 3 # $ q 8 * 8 2 : $ 3 3 3 c C c 0 B | a.w.0.9.' 9.u.9.^ ( ~ 9.I ( ( ~ J f u.",
"5X~.5XlXeXeX7X XoXiXoX|.iXcXxXxXR.F 0...I } } n C w : : , e 6 $ 2 $ : 2 , : 0 , C c 3 3 C 0.a.0.u. .' 9.9.) ( ( 9.( ^ ~ [ ~ H u.",
"7X).6XKXlXkX7XuXaXoX/..XpXiXuXxX5Xb ....I C c B w 3 : 0 a 0 2 : 2 $ 2 q : # , , C B : # r } i.0.9.` ' u.i.| ~ P ) ) ` H ~ ` [  .",
"T.*XZXJXHXSXcX0XiX|..X|.tX0XuXgXqXU I ` } M v B c 3 : , 2 $ $ * * 2 2 ; 2 ; * & : / : : # B k.| 0. .` ) ' ' ~ m ~ 9.H P '  .t 9.",
"Q.5XmXmXSXSXmXiXiXoX.XpXiXpXsXuXqXc.G b G M B B 3 : : 0 q * $ * 2 ; ; ; : & + + @ B , $ : 3  .w.i.9.` ) ` ' ~ G H ' ~ H ^ 9.G | ",
"fXKXJXKXHXDXzXcXpXoXoXpXiXpXuXeXkXU.4 b G 3 0 C , : , r u 2 = ; 2 2 * * & = + . . , a : : # M i.a.w.| ` ` ` ~ J G ` ' ~ L 0.( ` ",
"5XlXFXFXHXFXmXcXoXoXoXtXiXuXuXkXhX,Xd.v 3 L B 0 0 0 6 0 2 * ; 2 ; * ; * & & # . + @ a , : # 1 9.i.w. .' ` ` ] P N ` u.' H 9.( | ",
":X5XnXHXHXFXSXMXpXtX|.tXtXpXxXeXnX<X>Xf.4 9.B r r r 0 , , : 2 5 ; : * * % @ o X @   > e , : # C 0.0.0.0.' ' ` _ m H 9.u.P ) L a.",
"wXqXGXHXGXDXDXMXpXoX|.oX0XuXmX7XgXJ.5XE.K P 0 C 0 , , 8 , ; * * ; * $ + + X .   o   . 6 ; , + n | 0.0.0.,.' ' ' m J ~ 9.) ) C x.",
"5XeXGXnXnXDXDXNXiXoX|.pX0XuXzX^.J.J.rXs.b ` G w 0 , 0 0 6 ; $ = $ $ # X X       . . . & ; : # 0 ^ 0.w.0.' ' ' ` J J B ~ 9.9.B d.",
"9XGXFXgXnXFXSXNXzXoXpXzXpXmXmXK.F L.;X{ F P ( B c a 8 8 6 - & + # + X . X O X O . . + . , : , 0 | 0.a.0.' ] ] _ P P B C 0.0.c >.",
"GXJXDXBXmXHXHXFXbXXXaXyXuXMXyXsXZ.S.g.U 0.L C ( a 8 a a p = X % X X X . O O O O . . . . # > , , V ` x.j.` ` 9.>.^ ( ~ B ~ ` H / ",
"LXJXBXnXSXFXHXSXsXoXaXcXmXwXyXbX7XI.O.I I C / ( , a p , - % X o X X X O O O . . . . . . @ > 8 , f C 9.w.` ^ >.` P N J B ~ ' ( 9.",
"LXGXnXbXDXHXHXSXyXoXXXsXNX{.yXbXxXZ.D v M I w.V : a a - X X X   X X O X O O . o   . . . @ , , p q B ) w.9.>.9._ / T L B T ) ~ 9.",
"JXAXbXMXDXFXSXSXyXsXXXaXuXrXsXvXFXH.D U ( ^ / 0 8 8 7 % . O o O O O O   O   o     . . . o & , , q t H >.` 9.9.) ) T ~ T P ~ N 9.",
"FXGXbXNXNXDXBXMXaXaXaXbX{.eXvXNXeXS.K } 0.( f e B , - o o     o O     O O O O o   . . . . # ; 5 6 6 f ~ _ ,.9._ T m T T / T J w.",
"DXDXBXBXMXMXzXzXsXoXaXaX/.MXNXyXO...K  .) B 0 V a - . . X     X O   o   O O O O . . . .   @ & > 6 2 t T / 9.q.q.J B J P / H m ,.",
"BXNXbXbXvXcXaXiXsX XoXXXyXDXbX^.o.i. . .B t : a > @ . . O O             O O O O . . .   . + & , 6 2 e ~ _ 9.w.w./ N V ( ` J f >.",
"MXNXvXxXcXvXcXiXaXoXsXXXMXmXyXC.} P J H 0 a , & . + X   O o o             O O O   . .     # ; 5 6 2 u T / _ >.>.>.T V / >./ N q.",
"xXNXNXsXyXaXcXiXpXpXzXuXKXuX{.g.b G t 6 q 5 = + @ o o   O O   O O   O   o   o     X   . . + , , $ $ $ e 1.>.1.q.T N / =.( ! / w.",
"bXbXxXxXuXyXaXaXtX7X7X7X0X5XQ.{ 4 q 5 2 > = X O o o o O O O O   O       o   o         . . . 8 6 $ * $ 6 T w.q.w.Q N =./ / / =.w.",
"bXbXvXNXcXaXvXyX XS.@.U O.+...4 u 9 6 5 * & @ @ o o o O O O         O   .   .   . . . . . + e e * 2 ; > V q.e.e.=.! =./ / >.=.j.",
"sXbXMXmX0XyXaX XC.U C.S.I.4 4 4 e 5 * * + X @ + o o O O O . O       X           . X . $ + @ e j 5 5 > 0 V 1.w.e.q./ 1./ =.1.1.e.",
"bXNXFXbX]. X0XP.Z.C S.zXSXD 3 B u * * - % O @ o o o O o O X O O O   X     o       .   @ + # a f 5 = * j ! =.1.e.1.=.1.=./ 1.<.e.",
"bXxXBXgXP.G.G.+.A.C.S.fXgXf.R j 9 % % 7 % % - O o O O O o O O       O     < . o . . . % & & f j = X * l V ! <.e.e.q.e.=.=.e.1.e.",
"bXsXGXgX].P.G.+...S.fXlX5XT.` =.g % + %   O o O o O X o O X X   O   O O o k - , 8 > - , 8 , j j 5 > f ! V V =.1.e.e.z.1.1.e.e.e.",
"bXxXbXXX].yXXXXXQ.w.Y.JXGXfXT 1.l.j 7 - o o p 7 O X O O X X .   X   X = - =.a k V a , a a > a e j j %.%.l l =.%.e.e.z.<.&.e.1.6.",
"xXbXxX<X{.].zXmXmX..A.;XlXhXV : / / T f * z.D.M.-   X X   .   +   # + e 8 f j j > , f V Q f 2 j l h l A Z d k &.$.t.t.5.&.*.z 5.",
"sXNXrX'.kXcXuXxX7XO.d.!.fXlX-Xw.. C ( r D.3XN.W.e.l i + + , $ . > 2 8 T V 8 a j B ! =.T ` p.Y a g A 4.l.y.$.z Z -.-.A z A *.x *.",
"xXkX].rXwXxXmXBX'...A.qXlXlXAXPXx.. m D.W.N.z.n.y.2.=.j =.l.1.V Q N V Y T , N ! V =.e.:.1.m.p.Y -.t.m.m.n.5.-.-.y.8.A *.&.t.*.4.",
"xXrXrXDXkXwXxXFX5XX.K.5X6X;XT.LXZX!.U.W.%XD.D.m.6.M.M.l.B.D.l.=.:.e.e.=.=.V e.1.=.! e.h.1.q.z.z.m.M.B.t.5.y.t.t.8.t.5.5.4.t.*.b.",
"hXqXrXnXGXwX5XgXmX7X5X7XZXZX:XlXlXLX,XE.-X3XF.v.M.W.m.n.m.l.&.*.6.N.N.N.h.h.z.l.z.%.e.n.y.3.y.M.t.m.l.4.-.4.6.5.5.n.t.t.4.8.z &.",
"BXVXhXxXnXgXxXrXfXlX5X:XKXKXlXlXFXhX6XAX1X%XE.v.M.n.-.t.m.7.8.*.l.n.1.n.%.Q W 3.n.=.2.1.3.n.l.z.y.t.y.;.*.;.4.4.t.5.&.&.&.8.x *.",
"GXVXnXnXqXgXDXrX:X7X'.:X6X7X7XfXgXdX6X-XW.F.r.:.z.y.-.n.n.7.8.z h.7.%.%.Z i h Z %.$.%.Y ;.5.-.5.l.t.3.;.$.$.<.5.*.A d d z A p Z ",
">X8X1XdX9XqX<X_.'.Y.5X{.'.fX7X7XxX<XqXJ.g.g.W v.y.5.-.t.4.8.n.8.4.n.m.7.6.E W i h l E Z A A S 4.y.3.y.5.<.;.$.$.E E k k x x % z ",
"3X-X-X>X>X9XrX^.S.Y.Q.~.'.wX7X'.5X<XR.F.O.+.' r.W 6.$.-.z 8.b.7.7.B.n.4.y.$.< % < s x S A *.A *.6.%.%.3.<.Z l Z E k l k z z p d ",
"-X-X>X>X1XfX,XF.S.Z.A.Q./.{.7X7X].'.^.R.J.o.R [ Y W 6.*.z x &.7.t.n.5.-.;.s < ;.v.3.;.A x x A -.E E Z E E E E E k g k i i i 7 z ",
"9X-X2X8X1X1X9X1XZ.H.T.^.5X/./.}.'.P.P.K.F.o.[ J 5 = p - p &.&.&.n.t.8.-.$.u S b.3.A s s s u S $.Z W E j j Z E l l l E k d d p *.",
"-XE.-X1X>X9XqX>XJ.;X5X].7X{.~./.].Q.P.K.G.O.r.J S z.e.8.- *.l g &.8.&.A S s u S S s 9 Z b.b.-.$.$.:.Q h g l Z l k k E l g p , z ",
"(.[.E.E.9XAX2Xm J._.`._.'.~.Q. X7X{.{.'.^.T.g.t W.PXPXPX4.< Z 3.A $.A x x x S u S u s 3.m.n.-.k Z h h j h h V E z k V l z g 7 l ",
"E.F.o.O.3XAXqX' J.R.R.^.~.L.L./.}.{.{.].`.`.U.' -XVXPXPX%X  7 l Z x s s s u S S W S Q y.m.m.t.5.s < - 9 s 9 s Y V g z d g z g &.",
"s.4 2 s.(.dXVXhXE.R._.`.^.L.Z.P.}. X/./.^.~.!.!.AXjXCXJXCXs h s Z < % < s u S W j S W ;.5.n.n.h.l 9 < 9 s i a j g a a p g z l 5.",
"U.[ s.(.9XdXdXdX>X>X<X`.P.P.P.~.7X}./.'.`.!.!.dXPX8XjXJXCXj._ y.V.Z s S 3.r.r.;.r.r.r.h.M.B.B.n.<.Z j l Y E E %.*.E =.*.<.1.8.M."
};
