/* XPM */
static char *_081_71d3314b621573b849c29319be8655aad592020d6770a328c568e72b815b891f[] = {
/* columns rows colors chars-per-pixel */
"64 64 212 2 ",
"   c #0D2800",
".  c #132E00",
"X  c #163200",
"o  c #1A3600",
"O  c #1D3A00",
"+  c #143900",
"@  c #223D04",
"#  c #243F08",
"$  c #1E4300",
"%  c #254402",
"&  c #294605",
"*  c #254B00",
"=  c #2B4C02",
"-  c #26420A",
";  c #2A460C",
":  c #2D4C0B",
">  c #304E0B",
",  c #314F05",
"<  c #265100",
"1  c #2D5401",
"2  c #2E5A00",
"3  c #2F5309",
"4  c #325403",
"5  c #3C5602",
"6  c #345B02",
"7  c #3A5D03",
"8  c #34540B",
"9  c #355A09",
"0  c #3A5C0C",
"q  c #2F4B10",
"w  c #2A4510",
"e  c #304D11",
"r  c #344F19",
"t  c #345312",
"y  c #385713",
"u  c #375812",
"i  c #3C5C13",
"p  c #395619",
"a  c #3D5C1A",
"s  c #356103",
"d  c #3C6302",
"f  c #376A00",
"g  c #3D6A02",
"h  c #36610A",
"j  c #3C630B",
"k  c #3E690C",
"l  c #3D7000",
"z  c #3E6311",
"x  c #3E6B11",
"c  c #3C5720",
"v  c #425E03",
"b  c #405E08",
"n  c #415F15",
"m  c #405D1E",
"M  c #436403",
"N  c #496504",
"B  c #436B03",
"V  c #4B6C05",
"C  c #42650C",
"Z  c #4A660B",
"A  c #446B0B",
"S  c #4B6C0C",
"D  c #546F00",
"F  c #526C0D",
"G  c #457204",
"H  c #4B7304",
"J  c #4D7903",
"K  c #47710A",
"L  c #4B730C",
"P  c #467B0B",
"I  c #4D7A0C",
"U  c #477805",
"Y  c #527506",
"T  c #537C04",
"R  c #52730D",
"E  c #58730E",
"W  c #537C0C",
"Q  c #5A7C0C",
"!  c #587B07",
"~  c #426413",
"^  c #4B6611",
"/  c #446B13",
"(  c #4A6C13",
")  c #45651A",
"_  c #466C19",
"`  c #4A6D1B",
"'  c #526E11",
"]  c #467213",
"[  c #4C7313",
"{  c #4D7A12",
"}  c #46711B",
"|  c #4C731B",
" . c #4D791A",
".. c #537414",
"X. c #5A7514",
"o. c #547C13",
"O. c #5A7C14",
"+. c #53751A",
"@. c #5A751A",
"#. c #547B1B",
"$. c #5C7C1B",
"%. c #637F0E",
"&. c #627C17",
"*. c #627D1D",
"=. c #466420",
"-. c #476821",
";. c #4E6E23",
":. c #4D7321",
">. c #4F7927",
",. c #537523",
"<. c #547B23",
"1. c #5C7C22",
"2. c #55752A",
"3. c #567C29",
"4. c #5A7B2C",
"5. c #5A7320",
"6. c #617E21",
"7. c #617F29",
"8. c #4D800D",
"9. c #568106",
"0. c #598105",
"q. c #54810C",
"w. c #5C840C",
"e. c #5D890E",
"r. c #4E8414",
"t. c #558214",
"y. c #5B8314",
"u. c #5D8A14",
"i. c #568319",
"p. c #5C831B",
"a. c #5D891B",
"s. c #5E911E",
"d. c #62850C",
"f. c #648B0E",
"g. c #688B0D",
"h. c #628414",
"j. c #648B14",
"k. c #6B8C15",
"l. c #63841C",
"z. c #69861C",
"x. c #638B1C",
"c. c #6A8C1D",
"v. c #698413",
"b. c #738D1C",
"n. c #659115",
"m. c #6C9216",
"M. c #65921B",
"N. c #6B931C",
"B. c #6D991D",
"V. c #739417",
"C. c #71941B",
"Z. c #73991D",
"A. c #799B1E",
"S. c #568022",
"D. c #5C8323",
"F. c #5E8A21",
"G. c #5C822B",
"H. c #5F8A2B",
"J. c #568328",
"K. c #5F8C31",
"L. c #638423",
"P. c #6A8624",
"I. c #648B23",
"U. c #6A8C23",
"Y. c #61842B",
"T. c #638B2B",
"R. c #6B8D2A",
"E. c #738D21",
"W. c #708E2B",
"Q. c #669224",
"!. c #6C9323",
"~. c #6D9923",
"^. c #669128",
"/. c #6C942A",
"(. c #6C9E2D",
"). c #729423",
"_. c #739B24",
"`. c #7B9C23",
"'. c #73962B",
"]. c #749C2A",
"[. c #7A9A2C",
"{. c #7C9629",
"}. c #618332",
"|. c #638B37",
" X c #708D33",
".X c #6C9631",
"XX c #6E9039",
"oX c #729533",
"OX c #759B32",
"+X c #7C9C32",
"@X c #759A3B",
"#X c #76A126",
"$X c #7BA227",
"%X c #70A028",
"&X c #7BA22C",
"*X c #7CAA2D",
"=X c #77A332",
"-X c #7BA432",
";X c #78A139",
":X c #7A975B",
">X c #829B2A",
",X c #809E24",
"<X c #82A32B",
"1X c #82A026",
"2X c #81AB33",
"3X c #83AA3A",
"4X c #89AE3D",
"5X c #83A535",
"6X c #93B63E",
"7X c #8BA946",
"8X c #8AB05B",
"9X c #AFCE66",
/* pixels */
"7XS 7 7 B 7 [ d B o.B L K i.P I N.e.J J J 9.9.w.T j.w.h.E.v.>Xb.1XV.g.V.,Xg.g.d.d.c.H l.O.$.$.[ C L  .#.{ [ ( [ _ 6 ( j 0 h j 8X",
"( 6 S ..S M L 6 L #.K A f o.K o.u.e.e.f.e.0.0.e.9.9.d.k.b.D b.>X,XA.m.V.A.V.C.g.).! M x.I.$.L $.$.#.[ [ #.,.| A 6 2 | ( ( _ < | ",
"M M S $.L $.#.B B o.L { A t.{ I w.T Y T w.e.j.n.! j.c.h.b.d.{.V.1X<XV.m.m.m.Z.d.N.c.!./.p.L.$.T.F.#.[ [ { #.[ A S.h / 6 h <.,.G.",
"@.S d #.[ D...B L { L { B i.F.x.w.H B H u.N.N.n.w.j.C.k.<X<X,Xd.V.Z.g.g.g.f.C.j.9.c.-Xx.H o.I D.[ { o.L B k S  .#.d [ | | T.G.<.",
"[ 7 4 #.o.o.7 6 a.#.K G s t.Q.Q.Q ! E j._.].N.j.#X! f.#X6X_.V.A.e.f.0.f.m.f._.#XZ.q.N.a.i.L d i.B L t.{ A B [ p.k 6 [ D.+./ A k ",
"M d M #...S d L D.o.o.O.f #.y.L E Q ! h.j.n.!.]._.u.Z.m._.g.m.$Xf.m.f.B.m.j.Z.#Xn.n.].x.y.L { i.L I o.t.o.o.#.i.{ S [ ] d 6 C [ ",
"[ L [ L L d L l.R L #.Q.I I.#.d +Xz.O.H R Q N.].N._.2XT ! m.Z.m.m.$X#X%XB.f.B.M.G s.%X8.U G F.i.p.y.t.o.t.o.W { K #.{ [ S A A L ",
"L ..o.M L M S L #.K L a.K I.I.H 9X7Xz.y.v.x.y.T *X).*X0.k.Z.m.f.e.$X#XB.f.n.B.n.9.q.q.i.Q.K Q.a.a.a.y.W L G B H W Q.o.d A ] K A ",
"d B #.K g s K M O.x.O.O.y.p.x.B P.E V h.c.l.'.!._.n.n._.Z.w.w.Z.f.e.f.e.*X*Xe.n.s.B.e.l a.r.a.i.i.y.q.G J a.j.#.I.o.B B L { [ A ",
"K B { B I L O.B I p.o.L H L y.o.V l.l.c.O.).].q.a._.Z.j.w.m.m.0.#Xe.B.e.n.%XB.M.e.%Xs.u.U l { i.u.W W y.p.o.o.y.o.#.g 6 K L B { ",
"L A { g o...o.B p.o.d H O.p.x.O.&.[.x.h.W [.&XW H n.N.! d.$X<Xk.Z.l n.#XB.e.n.B.B.M.U u.8.Q.i.G q.I o.y.t.U B I B p.I B p.[ 6 L ",
"A o.F.L o.G W I l.W M W U.U.U.y.h.c.l.O.H B y.j.N.!.N.d.h.k.k.Q n.9.B.B.B.9.e.e.q.u.u.~.8.8.Q.p.u.x.j.q.o.y.t.I U p.p.#.i.K d A ",
"g i.^.o.i.L o.t.I O.o.U.x.O.c./.7XN.!.c.3Xj.].u.].c.h.h.v.h.%.v.c.&X`.T j.j.n.0.u.u.~.~.t.G I.u.W q.O.I q.y.#.I I.t.#.{ d g #.#.",
"g I t.B D.t.{ o.O.p.O.x.l.O.Q.'.-Xj.w.H !.x.].B x.j.h.h.z.E.{.{.d.~.w.j._.n.e.N.n.e.u.t.Q.q.Q.t.U B G y.a.L H o.p.B #.i.7 A T.i.",
"B P G 6 i.t.o.O.y.p.R p.l.h.x.y.y.].].x.B U !.~.!._.).c.c.b.E.E.! h.T 2X_.m.e.j.9.s.u.u.y.U y.^.y.W a./.I.I L p.K g #.p.[ [ #.L ",
"P i.P s t.t.t.I.f O.p.x.O.H R Y q.M.q.].T n.j.Q x.h.l.).E.v.z.).y.4X].#XH _.$XH B.~.J w.u.a.W t.p.I./.x.K B H { A L L K L A d d ",
"f r.P f g r.i.t.p.H p.I.p.N l.D L c.! !.j.l.c.Q v.h.w.h.z.N.!.].Q.N.].M.W M.=Xu.I W Q.y./.p.x.o.p.R.A L $.S o.R.p.I.^.I S g #.y.",
"8.P l f l g g P B B O.l.l.O.P.O.W u.y.y.O.! c.c.N Y h.c.c.Q.'.-XN.y.u.e.W ~.-Xt.I x.a./.p.I.i.p.p...V $.L 1 M I M L i.{ #.I i.O.",
"P P P P r.U s B B R o.p.$.U.*.Y O.x.Q.Q x.! [.[.Y h.c.!.!.U.N.N.~.h.y.w.y.~.].O.W y.W p.W I.$.o.X.S ..T.L M $.o.B B o.[ p.o.{ B ",
"l r.i.{ { { B d I O...$.$.U.V S H W l.y.h.O.E.U.[.[.).c.N.N.c.y._.N.!.!.c.!./.j.l.W R d p.I.I.B I./.'.I.R #.p.B p...{ S i.{ [ d ",
"g P L g g B g S #.V S l.*.P.N X.H o.y.l.O.).l.c.).).).N.c.c.Q._.c.j.c._.'.!.!.c.!.j.$.B l.l.I.S L.OXL.V I p...B T.#.[ k #.] { A ",
"k k k i.S.d 6 [ 1.d S $.$.*.v X.l.y.y.x.h.+Xc.).E %.c.).x.w.N.4XQ.y.Q c._.c.y.! U.'.l.x.O.L.O.O.y.y.H M $.l.K D.F.o.[ A | A ] k ",
"] k A D.T.( d ( D.5 $.@.@.@.v Z p.W y.o.O.'.z.z.! ! h.N.h.Y y.&X).h.! x.).%.H Y l.h.O.U.l.l.R R '.p.p.o.#.i.S o.#.[  .A [ s k / ",
"| A 6 6 ( [ ( ..$.= 7.@.' @.' M l.R U.O.U.).l.v.c.Y N w.j.T 9._.c.h.v.c.c.Y Y c.O.N R O.+XU.y.N I.W !.i.H I.p.K ] S [ k / s ] <.",
"* G.| 1 ( | C Y.@./ ' ' L.@.5 S L.G O.p.O.z.l.Q Y 5 M w.N.).).e.! y.c.d.c.c.Y c.l.O.R R E O.O.L /.K W /.L ;Xi.s #.6 T.2 s :.s  .",
"< j j b ( k C #./ ' D.5.1.+.5 S ^.O.l.I.U.[.U.c.b.h.c.&XZ.f.e.N.N.h.Q Q ).[.Q h.x.U.).'.l.O.$.L.R V y.T.B a.[ L [ g T.f k  .s z ",
"z 6 0 / C ~ | #.4 [ Y.+.....S $.I.o.R L h.U.O.&.z.k.c.&X].! 9.].j.j.c.y.j.c.y.!.'.U.U.Q.l.o.X.p.o.#.^.I.[ { L S.] ] J.k ]  .x s ",
"| _ ~ 7 0 [ ,.+.4 A $.[ M C ..I..Xl.o.B O.&.Y z.Q Q ! k._.f.9.m.H N.].h.L ! l.[.[.y.O.p.O.L H O.#.p.i.[ [ B d [ A  . .k  .}  .s ",
"/ :.k < j j h / M S [ ( d 6 S i.L.I.p.o.l.*.Y c.&.k.d.w.N.N.e.j.y.N.c.J J x.!.w.j.i.l.I.O.B K l.p.I.[ k [ d s ] k  .] f ] ] S.k ",
"k z 6 x | 6 * A k d A { A d ..[ S L l.p.x.l.Q z.h.)._.j.k.m.m.j.N.M.9.W W c.!.H l.W O.x.I.y.o.o.#.F./ L ] d A D.] {  .g ] l  .f ",
"j 3 x 3.| 6 2 S d A A o.L L F.{ ..L p.L.l.U.l.z.c.C.[.Z.j.j.m.n.!.u.T x.y.W x.t.Q.I g I ^./.#.d A  .2 [ g A k  . .K  .k P f k f ",
"h 2  .J.k h | / ] #.] [ B { .Xo.p.V o.O.R O.O.Q 5X).).].N.j.N.u.~.G g !.n.U u.a.Q.W B G y.I.t.G [ [ * #.] #. .] ] s S.]  .k s f ",
"z / <.<./ d k ( A #.d #.1.[ o.4 *.V V O.R y.].W j.Y y.x.W ~.y./.x.u.q.!.u.I Q.e.U 8.u.t.P Q.(.r.a.[ A K s #.} H.x 2 k  .] h 2 2 ",
"j 2 2 z | C j k k S 7 #.L.[ p.S F L.P.+X'.I.c.J d ~.Q.U d M.'.q.W J W x.t.q.u.I G U 8.r.u.s.8.2 i.^..Xi.[ H.S.S.x x x x s x x 2 ",
"~ 2 < 7 ` #.| k A C 5 ..$.A o...V P.X.O.l.W H I u.].O.U y.H U.'.W H j.M.a.M.i.8.Q.s.t.8.s.s.8.l a.#.#.d S <.[ h J.h k } k x  .h ",
"j / j 6 h | | A A A 7 ( [ d S S $.W.O.V ..W p./.Q.=Xj.J OXI.U.x.J U x.u.y.u.G U 8.e.t.i.s.r.l K ^.G ] d  .| [ | <.2 j >.x x >.x ",
"z z h 6 4 k A / C / S [ [ ( ..S @.*.X.l.p.l.Q.j.q.y.Q.y.3X'.L V 9.I Q.u.y.i.g G t.t.K { F.t.l { K K T.D.#.k ] H.x h x x s x J.h ",
":.h 2 x / j z +.^ #.#.+...#...A N ..R p.y.t.y.B U H x.q.Q.y.B y.x.x.c.x.a.w.G q.=Xa.G U p.a.i.F.d K I.L d k ~ | x h 9 < 2 k x x ",
"z k j / | / ( | +.| $.#.$.+.A C S L...R p.O.W I g j.x.B N I.U.O.p.u.W y.y.G G p.p.I { p.p.i.o.L { I [ C d ( j / >.} h h x 2 h r.",
"$ z :.9 4 / } d ( 7 C +.#...M L S oX..B R.y.B y.t.R d ~.l.p.I.U.j.U.U p.M.B o.!.t.o.I.D.B g p.R.M d S D.A j * j } |.J.z x >.x x ",
"9 z h <.>.:.6 h C 7 C ( [ S ( [ L...I.O.I l.t.x.a.a.y.Q.x.O.P.H W y.I W H x.x.U.M M D.L 7 p.L.p.6 B [ #.4 j ~ ( s | >.h 3./ x x ",
"9 _ _ -.k 0 6 j j / +.+.[ S S ( ..A #.L.D.p.t.x.I.a.O.x.R S L.y.I.c.W y.G O.K L I o.oXL.[ $.C d ..S ..+.( j | G.3.` 9 ` } G./ 2 ",
"3 z x 9 9 6 7 0 d ( +.( S ( ..[ S M B p.l.A I #.o.M.U.p.L R *.F H B B Q O.y.H S S +.p.+.@.+.v N [ [ #.C [ 6 / 4._ 0 z :.< z _ h ",
"j 9 h < / _ | 2 7 / ^ j j ( @.+.+.$.A #.p.I x.Q.W p.x.l.O.Q l.l.O.J H W R L V S $.L.$...6.' v n M L.$.< 5 4 ~ G.3.1 2 1 x j _ 6 ",
"-.z x 1 _ ,.3.2 7 ~ A j A +.+.S ( D.B A o.{ ^.^./.I L O.*.E *.7X'.j.y.o.R H R p.$.L.$.7. X1.^ ^ [ oX[ 4 6 C C Y.}.:.z 1 >.z j / ",
"h 9 h 3 < ~ 3.j C ~ ( ( +.+.A 4 d #.S d S K L I I.c.p.H O.L.*.P.L W x.I.U.p.l.$.( ..^ ' 6.+.5.^ ( @.6 ..G.5.* ~ ) 3.z ) j 9 1 G.",
"* * 1 9 $ 0 | ~ j C C ( +.( A 6 S 1.L.{ i.o.f o.L I.^.V E W.E N J W !.x.'.O.R d $.@.M Z v v ^ v v 7 4 +.XX| % 4 ;.4 + 9 z | 0 _ ",
"2 3 9 _ * z / 0 7 6 6 C / S ^ L C [ D.#.T.p.g ^.W B V R l.X.N R.l.p.h.V O.o.p.( S S Z ' n n 5.v Z S Z 7 5.j z ` :.* 1 0 ~ 4 | } ",
"u 3 2 z z z z z 0 G.C 2 1.T.A ( S #.2 6 S.[ [ [ a.@XD.R V F z.&.E V R &.Y N S N $.Z 1.' b ( ^ +...S 5 ( C ~ ,.8 4.,.` = 4 / 7 C ",
"3 3 3 i z j 9 6 C J.A < A ] d A 4 C 6 A D.| ] S.S L M p.X.N X.l.O.R Q P.P.L.$.( 6.b ( ' 5.7.^ 4 / C 2 ( , ` ` ^ 2.1 9 ` 5.| 4 6 ",
"3 3 3 9 i 9 4 4 ` ,./ 4 7 ( [ [ ` / k A D.D./ #.D.S 7 R X.M X.{.&.Q l.*...F X.$.1.' +.' C ` ^ A C C ( ~ 4 ` ` ^ ;.* n 3.| C 5 S ",
"t = & * 4 4 3 * 4 0 7 1 1 C ( / #.C 7 = k  .d g [ ..$.p.*.@.&.E X.&.P.6.V N ..1.@.5.7.^ 5 5 ~ 2.^ C XX9 C 0 i 8 ^ 0 ` 5.0 j +.( ",
"> & $ * t u 3 % 4 4 0 0 0 | ,.C 7 ~ #.2 2 ] [ <.S [ +.F ..L.*.&.X.X.l.R.W. X1.S @.5.( ~ ^ ` ~ b C ~ XX4 n 4 4 , 0 0 ^ ` ^ <.4.4 ",
"% % * : u u : $ i n ` ` ` +.+.j 7 | 3./ ( H.T.S.S.S V 7 M E X.P.X.X.&.6.6.1.' v +.<.0 6 ( ` ` C h 5.,.C 4 b 9 ) 9 9 0 ` ~ ~ +.7 ",
"O - : e t t > & 8 i i 9 8 0 0 0 C A j [ <.D.J.d A 6 R #.O.X.v E @.@.@.' M M S C C 5.Z 4 0 0 ;.>.j 4./ ;.0 ) b ,.) ) 4 0 4 * ~ ` ",
"O : r : % ; u a t ) a 4 4 8 n ` ~ C k 3.J.] i.A 6 1 ( R ..@.N E P.*.*.&.@.6.5.S = +.~ ~ ` z _ _ n 4.` ` ;.9 ~ ) ,.5., , 0 4 n 4 ",
"- r @ - r q n > t ) 8 y 8 , ~ 9 ~ 0 / h C #.K / D.@X XY.F F v F X.6.6.N ' v Z +.4 ( 1.9 4 | =.3 ,.n 2.,.0 8 8 0 2.7.2.) -.n * = ",
"X # o ; a r m t t a > n n y ) i / 7 / C ( <./ / +.#.S M v ' F F Z X.7.&.6.' ( ^ ( ~ ` j 0 z x 2.i , ) ) 8 0 i ^ ) ) ~ n n , = 8 ",
"- - @ # ; # # @ : 8 > y n n ) 0 C 4 h h / | h A M A S M *.@.' F E F &.F ' S @.( ..7 k 0 6 9 x K.8 % y 9 = 4 4 8 ,.8 i ;.;.a = = ",
"r w # # - e m =.; & % 8 y n y 8 ` 0 C / } ] /  .6 / 1.S *.^ F F &.Z N N M S *.( 7 j / 2 < j x >.) 8 n y 9 i 4 4 4.0 ~ 4.2.) a , ",
"w o # ; @ # m m = # # > y y , = ~ z 0 C k h A | 5 ] #.7 Z v F @.E F ..&.X.$.$.M 7 / [ 1 < x x } i 8 t 9 n ) 8 n ^ 8 0 ) i n =.a ",
"#   # - X @ o X , @ , 8 b n = = 0 C 6 0 h 6 / ] 6 S ..M ' ' @.&.E E E *.$.P.X.C L j j 2 2 x x :.y : > y =.~ 4 ` i * % 8 n =.y @ ",
"c . @ - @ q : # t # > y n n , 8 ( ` j x ( / :./ 2 ( ..$.*.7.@.@.E &.D E ..L.....#.s f k x >.x :.-.y y -.2.) = ` n 4 * i ;.) > : ",
":Xr - @ X ; ; @ b & t b n n = 0 0 ~ < 0 / / [ 4 1 [ ( +.Z @.' &.D &.V E O.P.R #.o.k ] ] J.K. ._ a * : a ;.4 O n 0 0 i a 8 O a :X"
};
