/* XPM */
static char *_11f94baf6e742fe9edb6434f6d94870VhMqbFzymUND7G6z[] = {
/* columns rows colors chars-per-pixel */
"64 64 235 2 ",
"   c #090907",
".  c #0B0B0B",
"X  c #150F0F",
"o  c #121314",
"O  c #171819",
"+  c #191B1D",
"@  c #1D3803",
"#  c #223D05",
"$  c #233E09",
"%  c #28291F",
"&  c #1C1E22",
"*  c #1F2124",
"=  c #212326",
"-  c #23262A",
";  c #26282D",
":  c #2A2D2A",
">  c #372F2E",
",  c #36392B",
"<  c #2A2D32",
"1  c #2E3135",
"2  c #2F3238",
"3  c #313435",
"4  c #393D37",
"5  c #32353B",
"6  c #35383E",
"7  c #422B2F",
"8  c #264605",
"9  c #2C4D04",
"0  c #26410A",
"q  c #29450B",
"w  c #2D4B0B",
"e  c #2F4D0F",
"r  c #2D5304",
"t  c #2F5407",
"y  c #325406",
"u  c #335B05",
"i  c #395D06",
"p  c #34540B",
"a  c #38570F",
"s  c #355A0A",
"d  c #3A5C0C",
"f  c #354E13",
"g  c #365412",
"h  c #395613",
"j  c #3C5C13",
"k  c #3C591B",
"l  c #3A6406",
"z  c #3C630C",
"x  c #3E6A0C",
"c  c #3E6211",
"v  c #3F6B11",
"b  c #3F6519",
"n  c #3A4E23",
"m  c #3C4639",
"M  c #405E08",
"N  c #435E19",
"B  c #42640D",
"V  c #456A09",
"C  c #446C0C",
"Z  c #44720B",
"A  c #4B740D",
"S  c #4A780A",
"D  c #547A0A",
"F  c #426413",
"G  c #446B13",
"H  c #4A6C15",
"J  c #44641A",
"K  c #486518",
"L  c #466B1A",
"P  c #4A6C1C",
"I  c #516F1D",
"U  c #467314",
"Y  c #4C7314",
"T  c #4D7816",
"R  c #4C731B",
"E  c #527413",
"W  c #527B13",
"Q  c #51741C",
"!  c #537A1B",
"~  c #5B7A18",
"^  c #627E17",
"/  c #445C29",
"(  c #414938",
")  c #455538",
"_  c #525237",
"`  c #456223",
"'  c #4C6C24",
"]  c #4B6728",
"[  c #4B642C",
"{  c #526C29",
"}  c #4D7224",
"|  c #527323",
" . c #577627",
".. c #537B23",
"X. c #4C6535",
"o. c #536939",
"O. c #587336",
"+. c #60752E",
"@. c #363A40",
"#. c #3A3E44",
"$. c #3C4047",
"%. c #3E4249",
"&. c #464B45",
"*. c #41454C",
"=. c #45494E",
"-. c #584F43",
";. c #495544",
":. c #4C5A47",
">. c #4B554B",
",. c #555C4A",
"<. c #464A52",
"1. c #474C55",
"2. c #494E55",
"3. c #4C5255",
"4. c #4E5951",
"5. c #4D525B",
"6. c #535953",
"7. c #51565D",
"8. c #545B5C",
"9. c #664848",
"0. c #615255",
"q. c #556746",
"w. c #54634B",
"e. c #5D744A",
"r. c #5B6659",
"t. c #666A58",
"y. c #657558",
"u. c #737557",
"i. c #515760",
"p. c #555A64",
"a. c #595D65",
"s. c #575D68",
"d. c #595E69",
"f. c #725F62",
"g. c #5B6166",
"h. c #5D626B",
"j. c #666E65",
"k. c #61666D",
"l. c #656C6C",
"z. c #6A7669",
"x. c #77796A",
"c. c #626872",
"v. c #656A73",
"b. c #696E75",
"n. c #766D73",
"m. c #6C7273",
"M. c #6D737B",
"N. c #6F787A",
"B. c #727C72",
"V. c #72767E",
"C. c #767878",
"Z. c #825E5F",
"A. c #89746A",
"S. c #936770",
"D. c #AF747E",
"F. c #58830A",
"G. c #5B840C",
"H. c #4F8112",
"J. c #5B8313",
"K. c #598618",
"L. c #5B841C",
"P. c #64890E",
"I. c #668715",
"U. c #648C13",
"Y. c #6A8C14",
"T. c #62841B",
"R. c #648C1B",
"E. c #728D1C",
"W. c #6B9216",
"Q. c #65911A",
"!. c #6C941A",
"~. c #73951B",
"^. c #74961A",
"/. c #5A8224",
"(. c #668824",
"). c #6D9622",
"_. c #739B23",
"`. c #7B9923",
"'. c #799735",
"]. c #698849",
"[. c #788167",
"{. c #788174",
"}. c #7A857C",
"|. c #83A830",
" X c #88A841",
".X c #888969",
"XX c #908F6F",
"oX c #9D9C77",
"OX c #A5987C",
"+X c #A4A57E",
"@X c #6F7580",
"#X c #707680",
"$X c #7B7780",
"%X c #757B84",
"&X c #797E86",
"*X c #797F89",
"=X c #B87E85",
"-X c #7B8484",
";X c #7D8883",
":X c #7C828B",
">X c #7F8591",
",X c #818D83",
"<X c #80858D",
"1X c #848C8D",
"2X c #859187",
"3X c #818691",
"4X c #848B94",
"5X c #888E96",
"6X c #878E99",
"7X c #898F9A",
"8X c #8A9097",
"9X c #8C939C",
"0X c #90979F",
"qX c #90999D",
"wX c #B08C82",
"eX c #AD9381",
"rX c #A8A985",
"tX c #B6B08E",
"yX c #B8B78A",
"uX c #8F96A1",
"iX c #9097A1",
"pX c #949AA4",
"aX c #979DA8",
"sX c #989FA9",
"dX c #9DA3AC",
"fX c #9FA6B0",
"gX c #A0A6AF",
"hX c #A2A8B1",
"jX c #C1B192",
"kX c #C8C898",
"lX c #D4D49C",
"zX c #D0CDA1",
"xX c #D8D5A4",
"cX c #EFF0B9",
"vX c #FAFAC3",
/* pixels */
"'.Y i l V z C l V A C Z Z W S W U.G.D D D F.F.G.F.G.G.I.E.I.`.`.`.^.Y.^.^.Y.P.P.I.I.D J.~ ~ ~ Y C Y T ! T Y H H F l C B z l G ].",
"Y B V H J ) J l C E A C Z W A W J.G.F.G.F.F.G.G.F.G.P.I.Y.^ E.`.`.^.W.^.^.^.W.Y.Y.G.D T.T.~ W ~ ~ W T T ! Q U C l s G G G G z | ",
"V V V ] ( ) ] B C Y A A Z W W W F.D D D G.G.U.U.G.I.I.I.E.I.~.^.`.`.~.W.W.W.!.U.U.R.(.(.L.L.~ /.L.! Y Y Y T Y G P ` / j F } | ..",
"E V B X.( ) X./ H Y A A Z H.L.K.G.S Z D J.!.!.U.U.U.Y.!.`.`.`.Y.W.~.Y.P.Y.Y.!.U.U.R._.R.W W W L.W T W A C V C R X.;.m ) o. .....",
"C l d { / , &.:.[ R A Z x W R.R.D D D I.!.).!.!.!.P.U._.|.`.^.~.U.P.P.P.Y.U.~._.!.U.!.K.W A Z W A A W T C C U { 4.*.3 =.j.X.G G ",
"V V G | / , 6 3.4.' W W Z W J.W D D D J.I.R.)._.).R.!.!.~.W.!.~.W.W.U.!.W.U.!._.Q.U.).R.W A T W A W W W W E ' ,.5.6 1 <.m.r.L C ",
"A A Y H / , < %.5.) ' ! T L.! A ).(.~ D D J.R.).)._._.G.P.W.~.W.W._._._.!.U.!.Q.H.K.Q.K.S S K.K.J.J.H.W R P ) 5.%.< 5 <.v.{.' Z ",
"A Y E G / m < < <.5.&.) ' /.L.~  X'.T.J.I.I.I.U._._._.J.I.R.Y.U.U.).).Q.W.!.!.U.F.G.J.H.K.W L.K.K.L.! ] ( &.5.<.< < #.1.v.,XO.V ",
"V C T P ) *.6 ; 5 2.i.7.r.o. .E (.^ D I.T.T.(.(.(.(.(.{ { [  .T.~ { [ { (.).T.L.L.R.J.S H.H.K.K.! | w.8.7.i.1.2 ; 6 *.1.b.1Xe.C ",
"C Y Q [ m %.@.< - 6 2.s.d.g.w.' E T.T.~  .O.o.:.;.;.:.>.3.3.4.w.w.4.3.3.4.:.;.;.:.O. .R A S W ! [ 8.a.d.s.2.6 - < @.%.*.k.4X[.T ",
"R e.y.>.6 #.2 ; - ; #.5.s.h.g.w. .(. ./ ;.8.8.3.=.*.*.=.*.*.<.7.7.<.*.*.=.*.*.=.3.8.8.:./ Q ! ] 8.d.h.s.5.#.; - ; 2 #.@.8.:X}.R ",
"| XXC.=.6 #.5 ; - - 5 =.i.d.d.8.o. .) 3.p.p.7.5.5.5.5.3.<.%.*.5.5.*.%.<.3.5.5.5.5.i.p.i.4.[  .;.i.d.d.i.*.5 - - ; 5 #.6 <.*X;XR ",
"{ 2X3X7.%.*.#.< - - - 6 2.i.i.3.3.>.2.7.s.s.s.s.p.i.i.7.7.7.5.1.1.5.7.7.7.i.i.p.s.s.s.s.7.>.>.1.2.i.7.1.6 - - - 1 #.*.%.7.3X2X..",
"[ 1X9Xv.1.<.*.@.< - - 1 %.*.*.2.5.5.2.5.5.i.s.d.s.p.5.5.5.i.s.p.p.s.i.5.5.5.p.s.d.s.p.5.5.2.2.5.2.*.*.%.1 - - < @.*.=.<.v.5X2X/.",
"' ,XiX:Xp.<.%.6 < - - ; 6 #.%.2.2.2.5.5.5.p.p.7.a.h.d.s.i.i.s.d.d.s.i.i.s.d.h.a.7.p.p.5.5.5.2.2.2.%.#.6 ; - - < 6 %.<.p.:XiX,XQ ",
"Y ].qX9X#X7.=.$.5 < - - 5 *.2.<.<.5.i.7.p.c.v.k.M.*X%XM.v.c.h.h.h.h.c.v.M.%X*XM.k.v.c.s.7.i.5.<.<.2.*.5 - - < 5 #.<.7.#X9XiXz.C ",
"x { }.9X5XM.p.1.%.@.< - 5 *.=.*.2.p.a.M.3XiXpX9X<X:X:X<X5X3X%Xv.v.%X3X5X<X:X<X<X9XpXiX3XM.a.p.2.*.<.*.5 - < @.%.<.p.M.5XiX}.O.W ",
"S U X.z.8X5XV.a.*.6 ; - 5 %.#.%.5.h.M.5XdXhXhXgXaXiX3X%X5XpX9X3X3X9XpX4X%X3XpXaXdXhXhXdX5XM.h.5.%.#.%.5 - ; 6 *.p.#X6X9X}.O.! W ",
"S S U O.}.5X%Xh.2.#.< ; 6 %.#.<.a.#X5XsXhXhXhXhXhXhXsX:X%X9X4X%X%X4X9X%X:XsXhXhXhXhXhXhXsX5X#Xa.<.#.%.6 - < #.2.h.%X5X-XO.Q Y C ",
"Z S W R e.}.3X*Xc.5.#.6 *.2.5.i.h.#X*X9XdXdXdXsXdXhXhXiX*X9X9X*X*X9X9X*XiXhXhXdXsXdXdXdX9X*X#Xk.i.5.2.*.6 #.5.c.*X3X-Xy. .T A V ",
"x Z A Z L o.-X4X:Xv.5.2.i.s.s.i.i.5.$.8.9XdX9X<X9XdXdXiX*X3XsXsXsXsX3X*XiXgXdX9X<X9XdX9X8.$.5.i.i.s.s.i.2.5.v.:X4X-Xr.' R Y Y C ",
"x x C W T J q.B.%Xv.a.s.d.d.i.2.2.=.5 < l.aXiX*X*XaXdX9Xb.c.9XhXhX9Xc.b.9XdXaX*X*XiXaXl.< 5 =.2.2.i.d.d.s.a.v.%XB.e.' G U C C C ",
"U x C ! ..H F X.8.p.s.s.d.s.5.2.*.1 4 ;.r.5XdXpX5XaXdX9Xh.=.%X9X9X%X=.h.9XdXaX5XiXdX5Xr.;.4 1 *.2.5.s.d.s.s.p.8.O.R U C G l x G ",
"G C l l H H J :.7.i.i.p.s.p.i.a.p.*.t.rXrX}.9XdXdXhXhXpXg.1 2.5.5.2.1 g.pXhXgXdXdX9X}.rXrXt.*.p.a.i.s.s.p.i.i.8.X.H Y C x l G R ",
"s R G i G H / 8.7.5.5.5.p.d.c.:X:Xb.C.tXyXx.m.<X9X0X9X%X<.- - * * - - <.%X9X0X9X<Xm.x.yXrXC.b.:X:Xc.d.p.5.5.5.7.4.` Q l l G x U ",
"r z z z G J ;.5.1.*.<.7.s.h.v.:XV.7.a.j.x.6.m.6.3.2.*.*.7.h.a.2.2.a.h.7.*.*.2.3.6.m.6.x.j.a.7.V.:Xv.h.s.7.<.*.1.5.:.| x x U l z ",
"z i d B F ) 3.<.#.#.5.s.d.i.p.k.7.< 5 #.=.*.2.4 3 = 1 =.b.5XiX9X9XiX5Xb.=.1 = 3 6 2.*.=.#.5 < 7.k.p.i.d.s.5.#.#.<.3.X.G U Y x l ",
"L G z i j m <.6 < %.i.d.i.*.<.7.2.6 *.5.7.5.5.a.g.2.a.:X4X0XdXhXhXdX0X4X:Xa.2.g.a.5.5.7.5.*.6 2.7.<.*.i.d.i.%.< 6 =.m v U R U l ",
"L L z u j ( *.5 3 @.3.s.5.#.#.#.*.1.5.5.2.%.#.p.M.V.%X9XdXdXdXhXhXdXdXdX9X%XV.M.p.#.%.2.5.5.1.*.#.#.#.5.s.3.@.3 5 *.) v U U T x ",
"z z l v ] r.k.v.a.2.i.p.2.$.5 #.*.%.%.$.5 - *.*X9X9X9XiXdXsX9X9X9X9XsXdXiX9X9X9X*X*.- 5 $.%.%.*.#.5 $.2.p.i.2.a.v.k.r.L Z Z U x ",
"l s v } q.V.*X%X8.5.p.i.1.#.6 %.1 = = & o + 7.*X:X1X9X0XiX4XV.b.b.V.5XiXiX9X1X:X*X7.+ o & = = 1 %.6 #.1.i.p.5.i.%X-XB.{ Z x x l ",
"l l R  .w.4.l.h.*.*.i.5.<.$.#.@.= + + o   + 5.V.5X9X5XV.h.p.5.5.7.7.p.k.V.5X9X4XV.5.+   o + + = @.#.$.<.5.i.*.*.h.j.O.} U x l l ",
"z z R } L ` z.h.3.<.5.2.<.*.%.@.< & o   . - p.%X9XpX:X>.m ( &.;.4.>.( m >.:XpX9X%Xp.- .   o & < @.%.*.<.2.5.<.3.k.z.' U U l u u ",
"l u u F G { -X*X7.#.<.2.<.%.%.6 - o . o 5 =.a.:XdXsXm.n j ! (...Q Y E I  .B.sXdX:Xa.=.5 o . o - 6 $.%.<.2.1.#.7.*X-X] v x x z u ",
"z u r i L O.1X3Xh.%.3.5.*.6 < - O O + 1 b.#Xv.9XhXdXl.: n | (.R.D S | / { B.dXhX9Xv.#Xb.1 + O O - < 6 *.5.3.%.h.3X;Xo.L x v U z ",
"z z l u c y.5X9X#X5.i.5.<.@.* O O & $.h.*X:X%XiXhXgX<X2.7.r. .J.S P r.8.6.1XdXhXiX%X:X*Xh.$.& O + * @.<.5.i.5.#X9X1Xq.P v v R v ",
"v z l u j z.9XuX3Xh.p.i.2.2.3 O & - 3.*X:XV.<XsXhXhXdX5X*Xb.) K H ) b.*X5XdXhXhXsX<XV.:X*X2.- & O 5 2.2.i.p.h.3XuX9Xy.b l v R v ",
"L z u z ' }.aXaX9XM.h.p.7.c.a.5 6 6 *.:X9X*X3XdXhXhXhXdX9X:Xh.;.>.k.:X9XdXhXhXhXdX3X*X9X:X%.- < 3 g.c.7.p.h.M.9XaXpXz.j u l v v ",
"c z z F { ;XaXsXsX5XM.c.c.%X3Xk.p.<.6 b.9X9X5XaXgXhXhXhXdXsX5X%X%X5XaXdXhXhXhXhXsX5X9X9Xb.< ; <.k.3X%Xc.c.M.5XsXdXaX}.` z l x U ",
"r z G z ] }.4X9XdXsX3X%X%X<XiX5X#Xi.1 #.v.5XpXsXdXgXhXhXhXhXpX5X5XpXhXhXhXhXhXdXsXpX5Xv.#.= @.b.5XiX<X%X%X3XsXdX9X1X}.' G L v v ",
"s c v P { z.r.-XdXhXaX9X5X9XpX4Xb.7.@.+ 3 M.aXhXhXhXhXhXhXdX9X%X%X9XdXhXhXhXhXgXfXaXM.3 + 5 *.v.4XpX9X5X9XaXhXdX;Xy.y.' R R G x ",
"s v L L F J ` }.dXhXhXdXaXsXsX3X3.$.5.- - <.:XpXdXdXdXdXpX8XM.<.<.M.8XpXdXdXdXdXpX:X<.- - 3.#.2.3XsXsXaXdXhXhXdX}.{ [ L L R G l ",
"s z v s i i J {.dXhXhXdXdXhXdXiXh.#.a.*.#.4 6.l.<X<X&Xm.j.{.t., , t.{.j.m.-X1X-Xl.6.4 #.*.a.#.h.uXdXdXdXhXhXhXdX{.` c F s v G l ",
"d s l u v G ' z.iX0XdXdXdXgXhXsX:X3.a.5.<.&._ ,..X[.t.t..XkXlXoXoXzXkX.Xt.u..X.X,._ &.<.5.a.3.:XsXdXdXsXdXdX0XpXB.b u u z z F l ",
"F c z u v R | y.-Xm.9XpXsXdXhXdX5Xk.2.=.2.3., u.kXyX+XkXlXcXvXcXcXvXcXlXkX+XyXkXu., 3.2.=.2.k.6XdXdXaXpXdX0Xz.-Xy.' z s G v z G ",
"s s s r t F } o.y.,.:XuXiXaXdXdX9XM.*.1 *.a.3 u.kXyX+XxXxXcXvXcXcXvXcXlXxX+XyXkXu.3 p.*.1 *.M.9XaXdXiX9XsX1XX.y.o.' c c v d i R ",
"r r y y 9 d L ` [ ` z.4X%X5XdXaX9X*X7.< #.a.*.q.yXoXu.+X.X+XkXkXkXkX+X.X+Xu.oXyXq.*.a.#.< 5.:X9XpXpX3X-X9XB.k N ` s 8 s c F c L ",
"r t s z t d F d d c q.z.w.N.iXiX9X>Xk.#.3 7.7.,.+XoX+.o., : 4 ( ( 4 : % ( , XXrX,.7.7.3 #.c.>X9XuX9Xm.q.B.q.J F L s t s d z G L ",
"p t u z z c z z z R J ` ] t.5X9X9X3X@X5.5 *.h.u.oXXX .H f O X . . o X .   + .XoXu.h.*.5 5.#X3X9X9X3Xw.` o.] P F } L c s i B z z ",
"t t t d c z s u G Q G s F o.-X3X%X>X:Xc.%.@.a.z.XXXXX.N _ 9.9.7 7 9.9.> X 4 .XXXz.a.#.%.c.:X>X%X3X-X[ F j J H H P d d F P G i i ",
"t t t y d s y y F H B u i J j.l.>.m.:XM.&.3 7.b.x.rXXX,.Z.D.D.S.S.D.D.Z.-..XrXx.b.8.m >.M.:Xm.>.l.t.' B d F L K J y c | H B M V ",
"p 9 8 9 y y t 9 y i i y u F X.q.[ w.%Xl.` J >.M.C.oXyXOXOX=X=X=X=X=X=XOXOXyXoXC.V.4.] [ l.%Xw.[ q.X. .F d d d d F d H I F G H H ",
"w 8 8 8 p p t 8 y s d d z H P F z [ j.:.c G ) N.*Xx.oXkXjXwX=X=X=X=XwXyXkXoXx.*XN.o.H J w.j.] F F P  .z d y y p d d G P K R Q d ",
"8 8 8 w g g w 8 p j F F G H H z z L [ ` H ..O.l.:Xn.A.kXxXzXjXjXjXjXzXxXkXA.n.:Xz.{ B d / [ L F z Q Q F d d i c d d d G F F H z ",
"@ 0 w w p p w w p j j d d d d d z C F R ../. .4.%X$XA.rXyXxXxXxXxXxXxXyXrXA.$X*X,.' B d d c P P G | P P c c B P J F s d y y F F ",
"# q e w q w g g g N j p y p j F F z C R ..T R / k.:XC.A.A.XXOXeXeXOXXXA.A.C.:Xk.k H H c F F L L J | P P J d c J | I d p d p d p ",
"0 q 0 q e e h g g j g g p p j d c z F v G T Y J >.#X:Xn.0.0.f.n.A.f.0.0.n.:X#X:.j H R z i G J c L J ' P j p d F |  .P J J d t 9 ",
"@ $ # q g f g g g h p j j j N j z i z z G R G F / r.#X*X%X#X%X&X&X&XV.%X*X#Xr.` G G G z i c G P j p F F p s d F P J F J F p 9 t ",
"0 0 # 0 q q q q w p e h j N F d z i l z L U z C h m i.M.%X*X%XM.M.%X%X%XM.p.( K V z z i u s G ..j w g s y y y d P j j L ' j p 9 ",
"e q $ 0 0 w k k w 8 8 p j j j s F d z G G G G G h m h.v.c.M.:X:X:X*XM.c.v.k.) F l z z u r l v } F p j s s d y d L j F | ' J h p ",
"q @ # 0 # 0 g h 9 0 0 e h h y y z z d z z l C G d / N.:X:X3X5X7X5X5X4X:X:XC. .V l B C u r z v L j p g s j c s j F p d F F J N h ",
"$ @ # $ @ # # # 9 0 9 p d j 9 9 d B i l l l G G i J j.:X6X6X3X>X3X6X9X6X<Xz. .V C z z u u v v L j p p h J F d F j 9 9 p F J h q ",
"k $ # # # q q 0 w q w a j j y p F G l z G G H v u G { t.z.B.z.j.j.z.B.B.y.O.E E Y z l x G R U P J g g J ' c p F j y 9 j J j g g ",
"e.k 0 # @ 0 q 8 p w p d N j y s d c u d G G G s u C H Q I  .I ~ E ~ E E ~ ^ E W W C C U ../.R L j w p j L p 8 j d d j h p q k ]."
};
