/* XPM */
static char *_4769_4b099205492e8549a697c18fdcaf8b9e5a84aa87fa619d26ad2a2a534c41c44a[] = {
/* columns rows colors chars-per-pixel */
"64 64 248 2 ",
"   c #020104",
".  c #0B0201",
"X  c #02030C",
"o  c #09050D",
"O  c #04090E",
"+  c #0A0B0D",
"@  c #080905",
"#  c #130B08",
"$  c #16130C",
"%  c #020512",
"&  c #020A14",
"*  c #0B0C14",
"=  c #040C1A",
"-  c #0B0D1A",
";  c #070516",
":  c #140D16",
">  c #05121B",
",  c #0C121C",
"<  c #0C1417",
"1  c #141315",
"2  c #12131C",
"3  c #1B1B1C",
"4  c #191818",
"5  c #0D100F",
"6  c #250B05",
"7  c #221C1A",
"8  c #28130E",
"9  c #0C0E21",
"0  c #040F21",
"q  c #0B1323",
"w  c #0C1B25",
"e  c #081A27",
"r  c #131522",
"t  c #131B24",
"y  c #1A1C23",
"u  c #141B2B",
"i  c #1C1D2A",
"p  c #171525",
"a  c #171B30",
"s  c #221D24",
"d  c #1D2224",
"f  c #15232C",
"g  c #1B222B",
"h  c #112027",
"j  c #1C2432",
"k  c #182938",
"l  c #0E2635",
"z  c #23242C",
"x  c #2C2A2D",
"c  c #282627",
"v  c #352B27",
"b  c #34322D",
"n  c #242432",
"m  c #242B33",
"M  c #2B2C33",
"N  c #242C3A",
"B  c #282B3B",
"V  c #332E34",
"C  c #2D3335",
"Z  c #2D333B",
"A  c #283238",
"S  c #3A3632",
"D  c #32353B",
"F  c #3C3B3C",
"G  c #373637",
"H  c #2F302B",
"J  c #20211D",
"K  c #561009",
"L  c #751F0B",
"P  c #492B1C",
"I  c #433D39",
"U  c #50312A",
"Y  c #6F392B",
"T  c #3D433E",
"R  c #48433C",
"E  c #6A4C3C",
"W  c #11364D",
"Q  c #263444",
"!  c #2E3541",
"~  c #2B3B4C",
"^  c #283848",
"/  c #333C44",
"(  c #3A3C44",
")  c #333C4A",
"_  c #353745",
"`  c #2A3B52",
"'  c #2D314A",
"]  c #433C43",
"[  c #18485B",
"{  c #3C4345",
"}  c #3B424C",
"|  c #384943",
" . c #2C4855",
".. c #3B4755",
"X. c #35525D",
"o. c #394D63",
"O. c #2A5767",
"+. c #3D5364",
"@. c #2A576D",
"#. c #336575",
"$. c #44444B",
"%. c #4A4B4C",
"&. c #454747",
"*. c #554C47",
"=. c #56544A",
"-. c #444A54",
";. c #4C4C53",
":. c #434C5C",
">. c #484B57",
",. c #4D5256",
"<. c #48545B",
"1. c #5D5A54",
"2. c #585758",
"3. c #544E52",
"4. c #6A5447",
"5. c #615C55",
"6. c #715D45",
"7. c #66635A",
"8. c #7B655A",
"9. c #434D61",
"0. c #4B5464",
"q. c #475968",
"w. c #535B64",
"e. c #555D6B",
"r. c #565A66",
"t. c #4E5D71",
"y. c #6A5D63",
"u. c #4C636D",
"i. c #59636B",
"p. c #496579",
"a. c #536474",
"s. c #5C6574",
"d. c #5A6B7A",
"f. c #596876",
"g. c #55717C",
"h. c #636364",
"j. c #6B6867",
"k. c #746C6A",
"l. c #78756B",
"z. c #646B76",
"x. c #6A7379",
"c. c #787776",
"v. c #924B3B",
"b. c #86695E",
"n. c #827C75",
"m. c #896F60",
"M. c #868379",
"N. c #928D77",
"B. c #3F7486",
"V. c #5B6D81",
"C. c #477A8A",
"Z. c #577688",
"A. c #637484",
"S. c #6D7A84",
"D. c #6C7D8B",
"F. c #697686",
"G. c #747B85",
"H. c #767A87",
"J. c #697D92",
"K. c #686F81",
"L. c #558493",
"P. c #4E8192",
"I. c #7A828B",
"U. c #778189",
"Y. c #778896",
"T. c #7D929D",
"R. c #6A8794",
"E. c #7E94A5",
"W. c #7296A9",
"Q. c #669FAE",
"!. c #898A89",
"~. c #928D83",
"^. c #979489",
"/. c #878B94",
"(. c #89939A",
"). c #969797",
"_. c #A19D8C",
"`. c #A39D95",
"'. c #9EA199",
"]. c #A7A399",
"[. c #B3AD9B",
"{. c #B3AF96",
"}. c #B4B19F",
"|. c #8897A6",
" X c #949DA6",
".X c #979CA7",
"XX c #8F96AB",
"oX c #9BA3AC",
"OX c #9AA3A9",
"+X c #98A6B5",
"@X c #8EABB7",
"#X c #A8AAA8",
"$X c #B4B4AC",
"%X c #B8B5A7",
"&X c #A6ACB3",
"*X c #ABB5BA",
"=X c #B5B7B9",
"-X c #B1AEAA",
";X c #C1BEAE",
":X c #C0B99F",
">X c #C8C5B9",
",X c #D4CCBB",
"<X c #D1CAB2",
"1X c #88B7CA",
"2X c #98BAC8",
"3X c #8DACC0",
"4X c #A7B8C5",
"5X c #B6BDC5",
"6X c #ACBDD1",
"7X c #98C5D6",
"8X c #91C3D4",
"9X c #BAC3CA",
"0X c #BBCAD3",
"qX c #B3CEDA",
"wX c #9CD2E1",
"eX c #ACD7E5",
"rX c #B3E3F2",
"tX c #C7C6C9",
"yX c #D8D5C6",
"uX c #C6CCD3",
"iX c #C9D4DB",
"pX c #D2D6DC",
"aX c #D6D7D7",
"sX c #D4CEC2",
"dX c #E3DAC4",
"fX c #E6DDD1",
"gX c #EBE5D4",
"hX c #ECE7DB",
"jX c #F3EDDB",
"kX c #F2EEDA",
"lX c #CCD9E4",
"zX c #D8DDE1",
"xX c #DBE3E9",
"cX c #C7E9F6",
"vX c #C8F4FE",
"bX c #D9F8FD",
"nX c #E4E6E8",
"mX c #F2EEE4",
"MX c #FDFBEA",
"NX c #F8F4E6",
"BX c #ECEEF2",
"VX c #EDFFFF",
"CX c #E8F6F9",
"ZX c #F3F6FA",
"AX c #F4FDFE",
"SX c #FEFEFE",
"DX c #F7F7F6",
"FX c #F1ECF2",
/* pixels */
"SXSXSXSXSXDXSXMXSXAXSXAXSXSXSXAXSXSXSXSXSXSXSXSXSXSXSXSXSXSXMXSXSXSXSXSXSXSXSXSXSXSXSXSXSXSXSXSXSXSXDXSXSXSXSXSXSXSXSXDXSXSXSXDX",
"SXSXSXSXSXSXSXSXDXAXVXVXAXAXAXSXSXSXZXSXSXSXSXSXSXSXSXSXSXSXSXSXSXSXSXSXSXSXSXSXSXSXSXSXSXSXSXSXSXSXAXSXVXAXAXSXSXSXSXSXSXSXSXSX",
"SXSXSXSXSXSXDXSXAXVXvXeXvXVXAXSXSXSXSXSXSXSXSXSXSXSXSXSXSXSXSXSXSXSXSXSXSXSXSXSXSXSXSXSXDXSXSXDXDXVXVXvXrXrXVXVXAXSXSXSXSXSXSXSX",
"SXSXSXSXSXSXSXAXAXqXB.#.Z.7XVXAXAXAXAXDXSXSXSXSXSXSXSXSXSXSXSXSXSXSXSXSXSXDXSXSXSXSXSXSXSXSXAXSXVXVX8XC.#.B.qXVXZXDXSXSXSXSXSXSX",
"SXSXSXSXSXSXSXAXbXL.l = O.L.Q.rXVXAXZXSXSXMXSXDXSXSXSXSXAXSXDXSXSXSXSXAXAXSXSXSXSXAXSXDXSXSXAXVXrXQ.C.o.; W L.bXAXSXSXSXSXSXSXSX",
"SXSXSXSXSXSXSXAXrX@.% = > p.Q.P.@XCXAXAXCXAXSXSXAXAXAXAXAXSXDXSXSXDXAXAXDXAXVXAXSXSXDXVXAXVXVX@XC.Q.C.0 % X #.rXAXSXSXSXSXSXSXSX",
"SXSXSXSXSXSXAXVXwX[ ; ; % % p.7XQ.C.8XbXVXVXAX0XbXVXbXeXVXVXAXVXVXAXVXVXqXbXVXCXuXVXVXVXbX1XC.R.2Xt.; & % % [ wXAXSXSXSXSXSXSXSX",
"SXSXSXSXSXSXAXAX8XW = - - O O  .7X1XL.#.Z.3XcX2Xu.R.2Xu.@XT.+XAXSX+X|.|.g.4XR.u.4XcX2XZ.p.P.1X1X .; = ; * % W 7XVXSXSXSXSXSXSXSX",
"SXSXSXSXSXSXSXVX1XW % ; s % % X ^ T.W.3XC.l W -.h h a.e e k e |.Y.> k e l u.h g <.k l C.@XW.W.Q X O & t * % [ 8XAXSXSXSXSXSXSXDX",
"SXSXSXSXSXSXDXAX1X[ 0 o n - o * X ) F.o.E.q.e = <.Z U.0XU.l  .^  . .k R.iXx.D <.> l V.E.o.V.) X * O < g o t [ 1XVXDXSXSXSXSXSXSX",
"SXAXSXDXSXDXDXAX1X@.W 2 B - % j.M X :.T.Q ` j 9 u.oX..(.cX4X` t.a.^ 9XlXY.<.&X,.q j Q Q |.}   ( h.X , m 1 / #.1XVXAXSXSXSXMXSXDX",
"SXSXSXSXSXSXSXVX1X@.f.d _ ; % _ =Xn % 0.V.0 = % ..9X4Xq.Z.+XXX` ..|.@Xg.u.*X*X-.X ; q d.-.X F $XG X = D J f.O.8XVXAXSXSXSXSXSXSX",
"SXSXSXSXSXSXSXAXwX[ |.b s % X + k.3.o r B r % % A u.Y.J.' ` E.V.R.|.^ W J.Y.e.N % ; r ' 2 o 3.l.+   - n H (.O.eXVXAXSXSXSXSXSXSX",
"SXSXSXSXSXSXAXAXrX .OXx.p % { 3.l.3.* ; r * ; X i.+XV.p.o.W a q.q.k W q.t.Z.+Xq.X % - q * * 1.l.1.( % s c.OX .rXAXDXSXSXSXSXSXSX",
"SXSXSXSXSXSXSXAXVX+.G.&X>.O b ).].h.4 O % % O r n F.J.q.` o.9.a i :.q.^ q.D.S.m r * X % O 1 7.#X^.c o ,.*Xx.+.CXSXAXSXSXSXSXSXSX",
"SXSXSXSXSXSXSXSXAXS.} #Xw.4   j.#X%.* O % q ..S.+XF.q.W ..9.e.p u s...+.` q.S.OXG.-., % X 5 =.-X5.  3 ,.#X| Y.AXSXSXDXSXSXSXSXSX",
"SXSXSXSXSXSXSXSXAXuXA /.C D   1 F D - X n I.|.d.f.q.~ k e T.s.0 = z.Y.a k ` a.f.d.|.H.n   + I &.1 + M C /.C lXAXAXSXSXSXSXSXSXSX",
"SXSXSXSXSXSXSXSXSXxXt U.,.O * 3 c X % ! I./.x.R.A.Y.Y.+X..o.e.; ; z.0.) +XY.Y.J.R.S.|.U.M   o n 3 + o ,.I.< BXAXSXSXSXSXSXSXSXSX",
"SXSXSXSXSXSXSXAXSXiXt U.!.*     o + z H.+X+X|.d.u.T.(.@X7Xz.H.9 9 F.s.6X3XXXT.u.f.T.@X+XS.z * o X X 5 /.c.3 xXSXDXSXSXSXAXSXSXSX",
"SXSXSXSXSXSXSXSXAXzXd OX(.n X X + X ) &XT.u.` e & e f.d.D.J.9.B B 0.J.A.V.V.w % w ~ a.T.+X_   O X o B )./.d xXSXSXSXSXSXSXSXSXSX",
"SXSXSXSXSXSXSXDXAXSX-.! x.g o o @ ..9XS.g % Q V.A.9.q Q ~ ..N q q m :.^ m q q.A.A.' & k D.9X-.X *   n H.V ;.SXZXSXSXSXSXSXSXSXSX",
"SXSXSXSXSXAXSXSXAXpX/ O ; - - z >.iX<.w j r.XXI.0.k q = u u f & & t y f ; r m 0.I.XXs.a = 0.iX>.z * : - % ] pXSXSXAXSXSXSXSXSXSX",
"SXSXSXSXDXSXDX9Xi.2 & % % % % -.0X| & x.&Xx._ p n B % X ; = O O & % - *   o B n 9 ' z..XH.; $.0X$.o ; X % & , i.5XAXSXAXSXSXSXSX",
"SXSXSXSXSXSXSXnXOXU.0.> / % Z .XA > z..X) X   3.-XnX&X2.; - % & % - ; + 5.=XnX-X;.o ; ) XXa.& / .XM o ( = r.T.OXBXSXSXSXSXDXSXSX",
"SXSXSXSXSXSXSXSXAXxXj |...X n - % i e.n   h.'.l.n.mXDXNXk.+ B q u N * j.mXMXjXc.c.].2.  g e.w O , g % :. Xf xXSXSXSXSXSXSXSXSXSX",
"SXSXSXMXSXSXSXAXAXi x.+X% X _ r.9 n :.* M.>X#X^.] n.mXjXyXJ ! ' ' ) y yXjXjX8.I N.{.>Xl.* -.g , 0.~ X % oXx.j VXAXSXSXSXSXSXSXSX",
"SXSXSXSXAXSXAXSX Xt xXe.u x.oXZ - <.t F =.$   @ U # -X,XdXR 9 Q Q p ] fX<X{.# b @   $ =.G r >.; ! OXx.w w.lXw OXSXSXSXSXSXSXSXSX",
"SXSXSXSXSXZXSXAX/ U.lXF.H. X} X - * %   J R 8 4.] . I `.%X&.% a p % 3.$X_.I @ R =.8 *.8   X * - X .. XS.U.lXD./ AXAXZXSXSXSXSXSX",
"SXSXSXSXSXDXAX XA 9Xz. .>.A X / z.r % o %.%X6.6.m.v . D h.m % ~ ' % M h.S . P b.E 4.:X&.  * i z.Z O m :.) x.0Xm OXSXSXSXSXSXSXDX",
"SXSXSXSXSXSX=X< j w X > & X m 9XU.z * X %.sX,XE P 6 . o - - Q q.q.N 9 - . . 6 P 4.dXsX3.  o N U.4Xg X = & & l f = *XAXSXSXSXSXSX",
"SXSXSXSXAXSXaX(.Z & f > > t 5X/.m 5 c . 2 ].NXMXfX].s o   t D.V.s.S.9 % X c {.fXMXDX`.1 @ d - Z XX&Xq q = f X { OXzXSXSXSXSXSXSX",
"SXSXSXSXSXDXSXpXk &X|.z.^ U.i.  T #XM.F @ 4 7.'.,X`.8 o 2 t d.|.|.z.a - o 4 '.>X#X1.1 @ S M.#X( X e.H.! s. X&Xj pXSXZXSXAXSXSXSX",
"SXSXSXSXSXSXBXf oX9XY.../.u.  3 fXkX:Xm.H # @ @ 4 . # T D i.q.o.q.q.s.( F +   5 +   5 v 7.}.NXaX3 X e.(.} D.uX#Xd CXSXSXSXSXSXSX",
"SXSXSXSXAXSXG.w.9X^ N f.5X} O M.gX,X<XN._.c.c 4 v 7.).aXzX-.p.Q ` d.&.nXyX].7.c 1 b j._.N.:XyXgXc.O $.5Xz.k ^ 0X,.G.AXAXSXSXSXSX",
"SXAXSXSXSXZXZ &XD f w lX|...x #X%X,X,XdXkX,X_._.yXgXhXkXMX;XA F.K.D $XMXgXgXgX,X^.N.>XjXdX<X,X}.).z :.XXiXu t | &XZ AXSXSXSXSXSX",
"SXSXSXSXAX9X_ G.& O d.0Xx.> m j.;X}.,XNX,X{.{.N.M.}.kXgXgX#X| f.a.{ $XyXgXkX{.N.N.].#X,XNXdX{.<Xh.m ; K.lXs.& O G.( uXSXSXSXSXSX",
"SXSXSXSXAX&X( / O X +X|.a % ; !.l._.>X7.&.5.5.E M.'.<XjX;X^.Z Y.U.T '.;XkX<X_.M.*.5.2.R 7.>X^.7.!., ; a +X+XX X / / =XSXSXDXSXSX",
"SXSXSXAXSX&X1 * A m 4X..q ! m c.T ^.J   4 c 4   E kXmXyX$X( / .. .A T $X,XNXgXR . 4 c 1   c ^.T c.M ) 9 :.4XA m % * 5XSXSXSXSXSX",
"SXSXSXSXSXtXo z lX! (.u N u _ %.H { J 5 X X X @ H aXMXyX2.>.Y.XX XY...2.yXMXsXc X X O X + J { z ;.D i N p XX_ iXt O uXSXSXSXSXSX",
"SXSXSXDXSXnXo .XAXZ U.q & X x 1 + j.l.&.- % % & 1.sXMX-XV s.J.|.(.R.w.A $XMX,X=.X % o ; &.c.h.X 2 z % % a H.D SX(.* nXSXSXSXSXSX",
"SXSXSXSXSXSX2.nXAX$.>.% = X O   G n.%X7.c : X * l.>XMX_.@ & = e 0 = O   ].MX<Xl.. o : x 7.%Xc.V   o ; ; & $.-.AXpX2.SXSXSXSXSXSX",
"SXSXSXSXSXAXpXZXSXw.q j _ - 1 . 4 R ,XN.1.F ; . M.}.NX{.  O t 9 = w   @ }.jX{.l.o o I 2.M.<XF 1 + + , D j * z.SXZXpXSXSXSXSXSXSX",
"SXSXSXSXSXSXSXSXSX).X x.( M $.3   4 %XN.N.5.s . h.~.>X<XS 1 n % * g 4 R ,X;X~.5.  p y.M.^.}.$ . 7 &.z } H.X OXSXDXSXSXSXSXSXSXSX",
"SXSXSXSXSXSXSXDXSX9XO /.; %.^.G 4   7.R -Xj.j.o 4 ^.l.].N.D * % X o G !._.l.!.4 : y.k.#XR 7.  : S !.&.o /.; uXAXSXZXSXSXSXSXSXSX",
"SXSXSXDXSXSXSXSXSXaX4 -.y z.>X5.x i p : c.).&.  X V c.1.3.F p ; - r ] 2.5.n.x   o ] .Xc.5 y 3 M 1.tX2.y ,.2 xXSXSXSXSXSXSXSXSXSX",
"SXSXSXSXSXSXDXSXSXBX3 m !.%.tX^.Z ) - X b c.    X   $ S s s p - - 2 s s S :   O % X c.D o p ..Z ^.>XI (.d x SXDXSXSXSXSXSXSXSXSX",
"SXSXSXSXDXSXSXSXSXSX%.h.tX+ $X=X( z.Q % , i , ; % X . 2.S $ ( V G ] 7 I 3.  X % % - g 2 ; B s.} $X%X+ tX,.2.SXSXSXSXSXSXSXSXSXSX",
"SXSXSXSXSXSXSXSXDXSX#XH.BX  ].-X, I.s.p 9 a j = X ;   c.k.3 ] s c S 4 c.j.. ; X & N a 9 q e./.r ;X).  FXc.#XSXSXSXSXSXSXSXMXSXSX",
"SXSXSXSXSXSXSXSXSXSXBX=XSXM i.!.  I.S.) ` 9.^ k ; X ; D 3.; o .   . . 3.V % X = k Q o.' ` H.G.  ).2.C SX=XDXSXSXSXSXSXSXSXSXSXSX",
"SXSXSXSXSXSXSXSXSXSXSXDXSX!.* %.2 / K.f.A.t. .z., o ; _ r.8 8 6 6 6 : y.V * X t K.~ V.A.s.z.A 4 { * (.SXSXZXSXSXSXSXSXSXSXSXSXSX",
"SXSXSXSXSXSXSXSXSXSXSXAXSXDX5 x OX  e.D.E.A.k XX- % : V 8.U K K K K Y 8.x - X >  Xj g.T.J.0.X OXd d BXSXSXSXSXSXSXSXSXSXSXSXSXSX",
"SXSXSXSXSXSXSXSXSXSXSXSXSXDXx.x.BX  g |.q.J.= /.r % n z ] P v.L L v.U ] x n X d H.= Y.q.E.e O BXi.c.SXDXSXSXSXSXSXSXSXSXSXSXSXSX",
"SXSXSXSXSXSXSXSXSXSXSXSXSXSXxXuXSXD n H.) 9.r ] n X { m l.8.Y Y Y v.b.k.d T   z } - 0.) F.B $.SXaXnXSXSXSXSXSXSXSXSXSXSXSXSXSXMX",
"SXSXSXSXSXSXSXSXSXSXSXSXAXSXSXSXSX).x.>.) ; p * p X w.C 4 5.4.E 4.4.3.7 C <.  d + y % $.>.s..XSXDXSXSXSXZXSXSXSXSXSXSXSXSXSXSXSX",
"SXSXSXSXSXSXSXSXSXSXSXSXSXSXSXAXSXFX5XH.9 ; r g     $./.3 $.] ] ] ] ] s (.T     g 2 & q /.tXFXSXSXDXSXSXSXSXSXSXSXSXSXSXSXSXSXSX",
"SXSXSXSXSXSXSXSXSXSXSXSXSXSXSXSXSXSXSXBXi z M M +     &X/.i n z B n s (.#X    5 C V g i ZXZXSXSXSXSXSXSXSXSXSXSXSXSXSXSXSXSXSXSX",
"SXSXSXSXSXSXSXSXSXSXSXSXSXSXSXSXSXSXAXSX=XD &X+ * h.x 2 ).H.;.x M ;.!./.5 x h.* 1 #XV =XSXSXSXSXSXSXSXSXSXSXSXSXSXSXSXSXSXSXSXSX",
"SXSXSXSXSXSXSXSXSXSXSXSXSXSXSXSXSXSXSXAXSX!.aX-X  2.ZXs   x x 1 o G x   V SX;.o =XaX(.SXSXSXSXSXSXSXSXSXSXSXSXSXSXSXSXSXSXSXSXSX",
"SXSXSXSXSXSXSXSXSXSXSXSXSXSXSXSXSXSXSXSXSXDXfXSXtXb aXFXx     @ .     M DXuXV tXSXzXZXSXSXSXSXSXSXSXSXSXSXSXSXSXSXSXSXSXSXSXSXSX",
"SXSXSXSXSXSXSXSXSXSXSXSXSXSXSXSXSXSXSXSXSXSXSXDXDXDXtXSXaX#XT     R #XnXSXtXZXSXDXSXSXSXSXSXSXSXSXSXSXSXSXSXSXSXSXSXSXSXSXSXSXSX",
"SXSXSXSXSXSXSXSXSXSXSXSXSXSXSXSXSXSXSXSXSXSXSXSXSXSXSXDXSXSXAXz.x.AXSXSXDXSXSXSXSXSXAXSXSXAXSXSXSXSXSXSXSXSXSXSXSXSXSXSXSXSXSXSX",
"SXSXSXSXSXSXSXSXSXSXSXSXSXSXSXSXSXSXSXSXSXSXSXSXSXAXSXSXSXSXSXSXSXSXSXSXDXSXSXSXSXSXSXSXSXSXSXSXSXSXSXSXSXSXSXSXSXSXSXSXSXSXSXSX",
"SXSXSXSXSXSXSXSXSXSXSXSXSXSXSXSXSXDXSXSXSXSXSXSXSXSXSXSXSXSXSXSXSXSXMXSXSXSXSXSXSXSXSXDXSXSXSXSXSXSXSXSXSXSXSXSXSXSXSXSXSXSXSXSX",
"SXSXSXSXSXSXSXSXSXSXSXSXSXSXSXSXSXSXSXZXSXSXSXSXSXSXSXSXSXDXSXDXSXDXSXSXDXDXSXSXSXSXSXSXSXSXSXSXSXSXSXSXSXSXSXSXSXSXSXSXSXSXSXSX"
};
