/* XPM */
static char *_d83628dc1d14ace9dde2ff1162c1066IuCNzUIKEaVkvmTk[] = {
/* columns rows colors chars-per-pixel */
"64 64 246 2 ",
"   c #090A0C",
".  c #1D3803",
"X  c #223D05",
"o  c #233E09",
"O  c #161C29",
"+  c #1F232C",
"@  c #2B2C2F",
"#  c #4F2C37",
"$  c #264605",
"%  c #2C4D04",
"&  c #26410A",
"*  c #29450B",
"=  c #2D4B0B",
"-  c #2D5305",
";  c #2F5A03",
":  c #2E5208",
">  c #325406",
",  c #345C05",
"<  c #395E06",
"1  c #33540B",
"2  c #38570F",
"3  c #355A0A",
"4  c #3A5C0C",
"5  c #304D11",
"6  c #355412",
"7  c #3A5717",
"8  c #3C5C13",
"9  c #366205",
"0  c #3D6305",
"q  c #3C6B04",
"w  c #376109",
"e  c #3C630C",
"r  c #3D690C",
"t  c #3F7304",
"y  c #3E6311",
"u  c #3F6B11",
"i  c #3F641C",
"p  c #405E10",
"a  c #416606",
"s  c #436B06",
"d  c #486F07",
"f  c #41660C",
"g  c #446B0C",
"h  c #4A6D0D",
"j  c #506F0F",
"k  c #457407",
"l  c #45720B",
"z  c #4B730D",
"x  c #4C7A0D",
"c  c #53750C",
"v  c #577B0A",
"b  c #537A0D",
"n  c #426413",
"m  c #446B13",
"M  c #4A6D13",
"N  c #446319",
"B  c #48671C",
"V  c #456C1A",
"C  c #4A6B1C",
"Z  c #516E1A",
"A  c #467213",
"S  c #4C7314",
"D  c #4E7912",
"F  c #4C741B",
"G  c #4C761B",
"H  c #527414",
"J  c #5B7713",
"K  c #537B13",
"L  c #5A7D14",
"P  c #53761C",
"I  c #547B1B",
"U  c #5B7C1B",
"Y  c #627D0D",
"T  c #617E1A",
"R  c #4B6A23",
"E  c #556F2F",
"W  c #4E7422",
"Q  c #527323",
"!  c #537C22",
"~  c #5A7A28",
"^  c #5B7D33",
"/  c #5C7839",
"(  c #637D29",
")  c #627F36",
"_  c #2F3C52",
"`  c #593641",
"'  c #3E4A5E",
"]  c #504B4F",
"[  c #6D4A55",
"{  c #637C44",
"}  c #5F5B6F",
"|  c #736B6E",
" . c #875D6A",
".. c #8D6E78",
"X. c #58830B",
"o. c #5B840C",
"O. c #568217",
"+. c #5C8213",
"@. c #5E8913",
"#. c #5C831B",
"$. c #63890E",
"%. c #628514",
"&. c #698616",
"*. c #638B13",
"=. c #6A8C14",
"-. c #62851B",
";. c #658B1B",
":. c #6A8C1C",
">. c #718C1D",
",. c #6B9115",
"<. c #679218",
"1. c #6B931C",
"2. c #73951B",
"3. c #73971B",
"4. c #5C8323",
"5. c #5B8127",
"6. c #5F8133",
"7. c #638524",
"8. c #658923",
"9. c #6B8D23",
"0. c #67872B",
"q. c #6F8E2D",
"w. c #6C9422",
"e. c #6E9626",
"r. c #719324",
"t. c #739B23",
"y. c #7C9A23",
"u. c #72942A",
"i. c #739B2B",
"p. c #688736",
"a. c #779739",
"s. c #76A129",
"d. c #70894D",
"f. c #799746",
"g. c #7D9956",
"h. c #798D63",
"j. c #82A533",
"k. c #829D4A",
"l. c #849B59",
"z. c #86A546",
"x. c #8BA759",
"c. c #94AE5A",
"v. c #869968",
"b. c #899877",
"n. c #919F74",
"m. c #8BA367",
"M. c #92AA68",
"N. c #99B366",
"B. c #98AA78",
"V. c #9CB375",
"C. c #A0BA6A",
"Z. c #A3B874",
"A. c #AAC27F",
"S. c #60769B",
"D. c #707B90",
"F. c #B77E8E",
"G. c #BB7F91",
"H. c #7685A1",
"J. c #7691C3",
"K. c #928C8C",
"L. c #BD8595",
"P. c #BE8B9A",
"I. c #A69499",
"U. c #98A684",
"Y. c #9DB380",
"T. c #A6B789",
"R. c #A4AD93",
"E. c #AAB696",
"W. c #B2BE9A",
"Q. c #8690A1",
"!. c #AAABA9",
"~. c #B1B0AF",
"^. c #B3BAAA",
"/. c #B4B4B3",
"(. c #B9B8B4",
"). c #BBBCBB",
"_. c #C18396",
"`. c #C48598",
"'. c #C38C9C",
"]. c #C88B9D",
"[. c #C98EA0",
"{. c #C497A5",
"}. c #CA94A5",
"|. c #CC9CAA",
" X c #CEA9B3",
".X c #C9ADB5",
"XX c #D2ABB7",
"oX c #D3B2BC",
"OX c #D8B5BF",
"+X c #AEC288",
"@X c #B4C78D",
"#X c #B8C898",
"$X c #BAC7A6",
"%X c #BDC3B3",
"&X c #C1C9AB",
"*X c #C4D3AA",
"=X c #C4C9BB",
"-X c #CBD5B8",
";X c #D0DBBC",
":X c #D5E0BF",
">X c #9BAAC4",
",X c #ACB5C4",
"<X c #C4BEC0",
"1X c #D7BAC3",
"2X c #B8C3D6",
"3X c #B1C5E7",
"4X c #C5C5C4",
"5X c #C8C9C5",
"6X c #CDCDCC",
"7X c #DAC6CB",
"8X c #CCD2C2",
"9X c #CFD1CD",
"0X c #D1D3CD",
"qX c #D4DBC8",
"wX c #C8CDD6",
"eX c #D9CED1",
"rX c #CED1D4",
"tX c #D3D3D3",
"yX c #D9D7D5",
"uX c #DCDCDC",
"iX c #E0C0CA",
"pX c #E3CAD2",
"aX c #E9D6DC",
"sX c #E3DBDD",
"dX c #D9E2C8",
"fX c #DDE2D5",
"gX c #DFE0DE",
"hX c #E1E2DD",
"jX c #E5EBD9",
"kX c #E4EADA",
"lX c #CED7E8",
"zX c #EADDE1",
"xX c #E4E4E3",
"cX c #EAE5E6",
"vX c #E9ECE5",
"bX c #EBECEB",
"nX c #F1E4E7",
"mX c #F2EBED",
"MX c #EDF1E7",
"NX c #F2F3ED",
"BX c #EFEDF1",
"VX c #F4F4F3",
"CX c #F9F5F6",
"ZX c #F7F8F4",
"AX c #F9F9F6",
"SX c #FCFCFC",
/* pixels */
"a.S < 0 a a g 0 d x d k k K x K *.o.v v v X.X.X.X.o.o.%.:.&.y.y.y.2.=.2.2.=.$.$.$.%.c +.#.L I S M A S I D S M M n 0 g f e e m f.",
"S a g h h h h 0 k K z d s x z K @.o.X.o.X.X.X.o.X.X.$.&.&.Y >.y.y.2.,.2.2.2.2.1.r.%.c -.-.L H L I I S S I P A g e w m m m m e Q ",
"a a h H S H H s d S x z k K K K X.v v v o.o.*.*.X.%.&.&.>.&.2.2.y.y.2.,.,.1.j.Z.@XZ.f.e.#.#.L 4.4.I S S S S A M A r m 0 m F Q ! ",
"H g a S H I S s z D z z d K #.#.X.c d b @.<.<.;.*.*.=.1.y.y.y.=.2.2.=.$.$.1.c.:XNXjX*Xx.7.K K I D D K z d d h S S a M A F ! ! ! ",
"h 0 < S H H a 0 K H z d a K ;.;.v v c @.1.w.1.<.1.$.=.t.j.t.2.2.*.$.$.$.=.1.C.jXSXSXNX;XV.p.S H z z K D d d S K M 0 A I S M M M ",
"s 0 a S H h a z I H K K k K O.K L v v o.*.;.w.t.w.;.1.1.2.,.1.2.,.,.,.1.,.1.N.jXSXSXSXAXjX+Xf.4.K K K K K K H K S h A A a 0 a h ",
"z z z z z a h H H x K #.K #.I x u.9.L v b +.;.w.w.t.t.$.o.,.1.,.,.t.t.t.1.,.z.*XZXSXSXSXSXvX*XV.a.8.O.K K K b x x H D z g a g z ",
"z S S d d a h z H x H O.K #.#.L z.a.-.+.%.-.%.*.t.t.t.*.*.,.,.*.*.2.t.1.<.<.i.A.jXSXSXSXSXSXZXdX+Xx.q.K z z z z K #.D a d l l d ",
"a h S z s q d h K O.L K K O.O.b 8.T L %.-.:.w.;.w.1.1.1.<.*.*.,.*.*.*.*.t.t.w.c.dXAXmXaXmXAXSXAXjX*XM.7.b O.+.K O.K d a k S z g ",
"d d z d z z x d b O.K x z K O.K c -.-.-.%.w.e.+.@.1.1.;.*.,.,.*.1.@.<.*.1.w.1.z.*XNXzXXXXXpXmXSXSXMX-XM.8.K K K K H s 0 z z d z ",
"z z z k x H b z K K d z L #.#.L T 9.:.+.L 9.w.+.X.<.<.o.$.2.2.=.<.X.*.2.1.*.<.i.A.jXnX XL.{.1XnXAXAXvX$Xg.O.z x z K x z H z 0 d ",
"d K O.D K z b b L b h b -.:.:.-.:.:.-.+.b b *.*.;.1.:.$.%.=.&.%.*.@.1.1.,.o.o.*.x.dXmXOXL.F.P.oXnXAXVXjXT.a.K x x O.I H K k a g ",
"s K #.K K x K K K K K -.;.#.:.e.a.w.;.:.e.;.1.;.w.:.%.%.%.%.&.&.:.t.1.$.*.*.$.$.a.*XNXpX}.G.F.L.oXnXVXNXqXM.4.K #.O.I D a s S I ",
"s x D z I K K K L L L -.-.+.8.e.i.1.*.+.;.;.w.+.;.:.%.%.&.>.r.>.&.<.*.;.1.<.*.;.e.+XMXzX|.`.L.F.'.7XmXVXhXT.7.K K z H H a g #.O.",
"k x d q K O.K L K L K #.-.+.#.+.;.w.1.#.x X.;.;.1.1.:.:.:.>.>.:.%.&.*.t.w.<.*.@.;.N.jXnXXX`.`._.L. XcXVXvX$Xp.K z d H K A A S z ",
"k D k q x O.O.O.z b O.-.L c c c X.;.*.;.X.@.*.%.;.;.;.:.:.&.:.9.;.i.t.w.@.1.1.o.<.x.dXmX1X].`.`._.|.sXbXvX-Xf.I z x D x z d a a ",
"t x k q k x O.O.K K 7.q.0.U T J b %.+.;.%.%.&.%.Y %.+.%.&.:.w.t.w.w.w.;.+.1.i.@.O.f.;XNXiX[.`.`._.}.pXcXcX8Xl.7.K O.#.D z d S K ",
"x x t q k z I p.f.l.M.V.V.V.M.k.a.q.9.-.+.+.&.-.c v %.;.:.w.r.i.1.*.@.@.+.w.i.#.K f.;XVXpX}.`.`._.}.eXcXxX8Xl.I z x O.H H x K K ",
"x x x O.p.g.Y.$X-XdXjXjXjXjXdX;X$X+XV.z.a.9.u.r.L %.:.w.w.9.1.1.1.*.+.@.+.w.e.+.O.k.;XVXaX}.`.`._.}.eXxXuX8Xm.I d z D S K K D d ",
"t O.0.M.$XdXMXVXAXSXSXSXSXSXAXAXVXMXjX;X#XZ.x.a.u.u.r.:.1.1.:.;.1.1.:.1.:.w.w.;.8.x.dXAXaX|.`._._.|.yXxXuX8Xm.I H H S S K D z q ",
"q I x.;XNXSXSXSXSXSXSXCXVXmXmXmXmXVXVXVXNXjX;X+XN.z.i.w.:.;.w.e.1.&.:.w.r.w.9.;.u.N.fXAXzX|.`._.L. XuXgXuX=Xg.H #.I A g S S S a ",
"r p.$XNXSXSXSXSXAXmXaX7XoX X X XXX1X7XaXnXVXVXMXdX#XN.z.9.%.1.s.w.+.+.:.r.:.+.o.u.+XjXAXzX|._._.'.oXsXuXyXW.p.#.#.H A g A g M g ",
"A g.fXSXSXSXSXCXaXOX|.{.P.P.P.L.`.'.'.}. XiXzXVXAXNXdX#Xx.8.;.t.w.%.L ;.:.%.c J a.#XNXSXaX}._.L.{.eXzXuX8XB.7.H H S S g M 0 r M ",
"F m.jXSXSXSXAXzX1X.X.XoX1X1XoXXX|.}.'.`.`.'.|.iXnXAXAXjX*XM.u.w.&.%.%.&.;.v v -.k.-XAXCXpX'.G.L.oXuXxXyX$Xx.4.z A h A g r 0 m F ",
"4 m.jXSXSXSXVXsX7X&X&X=XqXuXhXsXsXeX1X X}.`.`.'.XXaXCXSXNXdXZ.i.%.@.%.%.&.-.v :.x.dXSXVX1XL.G.{.eXxXuX&Xm.a.O.s A g I 0 0 m r A ",
"; d.qXVXAXVXbXqXT.g.l.v.B.E.$X-XyXuXsXuX7XXX}.`.'. XaXCXSXZXdXC.i.%.+.+.:.w.+.:.c.jXSXnX|.G.L.oXzXxXqXT.p.#.D A A l I q r A 0 r ",
"y ^ %XbXbXvXqXT.p.P 5.~ ~ p.d.l.T.$X8XyXuXyX7X X'.'. XaXCXSXZX:XN.u.:.-.;.:.:.u.N.jXCXpX'.F.{.yXcXgX$Xl.~ S z D A S F m A S r w ",
"V ^ $XxXxX9XR.p.n g P S a g H 8.a.l.B.E.=X0XyXeX1X|.'. XaXAXSXVX-XN.z.a.a.k.k.z.+XvXVXoXL.P.7XcXvX-Xm.5.S a a A A S S g A F A 0 ",
"V ^ Y.=X%XB.^ m a g S M 0 0 h I #.8.q.a.M.E.$X0XyXeXoX{.XXzXSXSXNX-X#X@X#X*X*X$X;XNXmXoX|.7XcXbXqXV.0.A g 0 0 A m S A q A A F r ",
"r V d.v.d.R 3 0 0 a d z g a S S S K #.-.q.f.x.T.$XqXyX7XoXpXVXSXSXNXMXMXMXVXZXNXVXSXCXzXaXmXVXjXT.f.A g g 0 g F S S S s l l A q ",
"e 3 V ^ F , , a a a g S z x #.H H x L #.-.8.9.a.x.T.;XxXcXnXCXSXSXSXSXSXSXSXAXAXAXAXAXAXAXAXAXdXB.0.r g s s g F S l S g l q r q ",
"w w F ! m e m M M S A S z H 4.H H z b L L L -.9.c.@XqXvXbXbXVXAXSXSXSXSXSXAXVXbXbXBXVXSXSXSXSXNX8XB.^ F A S F S m r S A A r 9 9 ",
"e r F F M 0 g m M S g H I H H g H c c L L #.u.x.*XjXvXvXcXcXBXVXSXSXSXAXVXBXcXcXcXcXbXVXSXSXSXSXAXjXW.p.A F I ! m w m A A 0 , ; ",
"e , , y M m r r g g a H U H H h j U -.9.9.q.x.*XMXNXcXuXuXzXcXVXSXSXAXVXxXtXtXtXtXuXcXVXAXSXSXSXSXSXvXT.p.5.! I A r u u r r e , ",
"e , ; < m F A g a a a S H z H H c -.T L 8.k.$XMXbXuXrX4X,X,XrXVXSXSXVXrX/.,X2XrXtX4X6XcXAXSXSXSXSXSXSXfXB.0.S V F e r m r u A e ",
"e r e , e M A g a a 0 M A g h h I 8.L H p.T.vXNXtX6X2X>XH.S.Q.xXSXAXrXQ.D.S.J.3XbXxX4XtXVXSXSXSXSXSXSXAXqXl.P F F w e V u u F u ",
"y e w , , r g m g m h S S M S h H U L 7.M.qXVXuX6XwXJ.' + O ] rXSXbXK._ + O _ J.lXVXuX4XbXSXSXSXSXSXSXSXNX$Xp.! m w e r w u F u ",
"V e , r n r n M M F I H H H S g h H 7.x.*XMXcX6XtX2X} O     ] 6XAXgX}       + H.wXcXuX6XcXAXSXSXSXSXSXSXSXdXg.Q m e 3 ; , 0 u u ",
"y r r n m m m M M S P I I H g g h 0.m.*XvXVXbXgXxXwXH.@ @ @ | 4XcXtX| + @ ] D.,XuXcXcXxXbXVXSXSXSXSXSXAXAXvXE.^ F V y w e w r A ",
"- e m y e m m a g f g H I S g h I l.$XvXVXVXVXVXVXbXtX/.~.~.~.4XuXuX/.K.!.4XxXVXAXAXAXVXVXVXVXAXVXVXVXVXNXvX9Xv.W ~ W u m V u u ",
"3 y y F F V e e e e g M S h h S p.T.fXbXVXVXVXVXbXtXtXcXVXVXxXcXVXVXcXgXtX(.6XVXAXAXVXVXVXVXVXVXVXBXbXcXcXcXgX^.W F F u F F m r ",
"3 n m V n e , e e m M H M h h P l.-XvXbXbXVXVXVXcXtX4X4XtXyXtXyXuXuXtX).K.[ ..tXVXVXbXbXbXbXbXbXcXcXxXxXgXxXxX=X^ m y m V F m w ",
"3 e y 4 3 < < < 0 m H M h M H P v.8XvXcXcXbXBXVXmXbX6XK.| K.!.).!.K...[ # # | tXbXbXcXcXcXcXcXcXcXxXuXuXuXuXuX=X^ e e n 4 y m w ",
"e 4 w ; y m V , < g h f f M H P f.$XhXcXcXcXcXbXmXVXxXI.] [ K.~.K.[ ` # # [ I.sXcXcXcXcXcXcXcXxXxXuXuXuXuXyXtX%X^ 4 , , e r n e ",
"n y w , y F F w < f g f g S H m ~ M.=XuXcXcXcXcXcXbXbX6X..[  ... .[ [ [ [ I.tXcXcXxXxXxXxXxXuXuXuXtXtXtXtX6X=XU.^ C e 3 m y e m ",
"3 3 3 : : n F r e n m M S S g < g 0.m.%XyXhXxXxXxXcXcXxX5XI...........I./.tXhXuXuXuXuXuXuXtXtXtXtX6X6X5X5X^.b./ R C y y y 4 < F ",
"- - : > % 4 V n e e f m S M a 0 g I p.m.W.8XyXuXuXuXuXgXuXtX<X(././..X6XtXuXtXtXtXtXtXtX9X6X6X6X5X4X4X).E.v.R 8 B 3 $ 3 y n y V ",
"; - 3 e : 4 n e < e < f M M h g g S P 5.f.m.R.%X8X9X0XtXtXtXtXtX9X6XtX0XtX6X6X6X6X6X6X6X6X6X6X5X4X).R.v.d.W n n V 3 - 3 4 e m V ",
"1 : , e e e e e e F f 0 F I h g g M 0 r I ! 0.g.M.T.E.^.^.%X5X0XtXtX6X6X6X6X6X6X6XrXtXtXtXtXtX6X=XR.v.d.Q C C n Q C n 3 < f e a ",
"1 : : 4 y e 3 , m P g , g A a a e f 0 g I F S ! ~ ~ ( a.f.l.E.9XyXtX6X6X6X0XtX0X9XtXuXuXxXxXuXyX6X%XR.B.h.d.Q C C 4 4 m C m < < ",
": : : > 4 3 > > n C f , < g M M m m 0 g P P A S I h g H J ( W.hXcXuXtXuXtX6XtXuXxXuXxXbXVXVXcXuXtX5X4X5X(.R.d.Z B > y Q C f p a ",
"1 % $ % > > - % > 4 < > , f M M A f e 3 r S a g S H H L U p.#XbXVXcXxXbXxXtXtXuXxXbXVXAXAXVXbXxXtX4X4X4X6X=XU.E n 4 m Z n n M m ",
"= $ $ % 1 1 : $ > 3 4 4 e M F g e m A w w A S F S S H j H 0.Z.jXVXbXVXVXcXxXcXuXyXcXVXAXVXcXbXxXtX4X(.).4X6X^.d.4 4 n C m F P 4 ",
"$ $ $ = 6 6 = $ 1 8 n n m M M f e M F M M 4.5.I H h h a h 0.B.qXcXcXVXbXxXbXAXVXcXuXcXcXuXcXcXuX6X)././.(.4X%Xh.y 4 4 n n n M e ",
". & = = 1 1 = = 1 8 8 4 4 4 e e f g m A P 4.! g a 0 h S U l.=XhXuXuXxXxXcXVXSXSXVXcXhXuXgXcXgXtX4X).~.~./.=X^.d.B n 3 4 > > n n ",
"X * 5 = * = 6 6 6 8 7 1 > 1 8 n n f g F ! F D g e e M H ( T.yXxXxXuXgXcXbXVXAXAXVXVXbXcXxXuXtX5X)./.~././.(.U./ Q Z 4 1 4 1 4 1 ",
"& * & * 5 5 7 6 6 8 6 1 1 1 8 e y e n y M S A M P 7.7.U ( T.0XyXuXuXuXxXcXcXcXcXcXxXuXyX6X4X4X)././.~./.~.U.{ B Q Q C N n 4 - % ",
". o X * 6 5 7 6 6 7 1 8 8 6 n 8 r < r r m F M m H I H M ~ n.=XtXtXtXtXtXtXtXtXtX6X5X4X4X).(././././.~.!.b./ N n C B n N N 1 % % ",
"& & X & * * * * = 1 : 2 8 N N 4 e < e e V A r m F ^ p.f.v.Y.=XtXtX6X5X4X%X).).)./.~.!.!.!.!.~./././.!.h.R 4 > 4 C 8 8 B R 7 1 % ",
"5 * o & & = 7 7 = $ $ 1 6 8 6 2 n 4 e n m M F p.m.$X8XqXhXuXgXuXuX0X=XE.n.n.U.U.U.b.b.h.h.U.(.%X4X=X!.v.E 8 > 4 C 8 n Q R N 7 1 ",
"* . o & X & 6 7 % & & : 2 2 1 > 4 e 4 r r r 6.#XfXvXNXNXMXvXhXqX=XW.B.l.0.0.p.~ Q Q Q y i h.(.6X9XtXtX=XU.E 4 8 n 1 4 n n N N 7 ",
"o . X o . X X X % & % 1 4 8 % % 4 f < e e e ^ T.$X&X&X$XW.T.B.l.f.0.( T U T J h g r 0 , w ^ b.E.^.^.%X^.B.E 4 n 8 % % 1 n N 2 * ",
"7 o X X X * * & = * = 2 p 8 > 1 n n e r m m F Q Q ) p.p.0.0.( T J J c c J T H H S 0 q r m W Q ^ / / / / ^ N 1 n 8 > % 6 N 8 6 7 ",
"{ 7 & X . & * $ 1 = 1 4 p 8 > 3 4 y , 4 m m M 3 , g M H j H H J c J c c L T H H K g g A ! 5.F V 8 : 1 8 B 1 $ 6 4 4 6 7 1 * N d."
};
