/* XPM */
static char *_4627_c74bfef47215b18044312454b43adc9e5e9b9e39ab895b20b9ba04cb0e88a1f6[] = {
/* columns rows colors chars-per-pixel */
"64 64 246 2 ",
"   c #130D00",
".  c #231700",
"X  c #2D3200",
"o  c #453514",
"O  c #58382A",
"+  c #593D32",
"@  c #663A23",
"#  c #3D4009",
"$  c #4C4C17",
"%  c #657A1A",
"&  c #58462A",
"*  c #595728",
"=  c #5D4336",
"-  c #5E5732",
";  c #4D4F20",
":  c #66492C",
">  c #67582C",
",  c #6A4D3C",
"<  c #654936",
"1  c #754933",
"2  c #68573A",
"3  c #7A573B",
"4  c #734F2D",
"5  c #657B25",
"6  c #686438",
"7  c #786836",
"8  c #6A7738",
"9  c #787939",
"0  c #73742C",
"q  c #576729",
"w  c #6B4D44",
"e  c #695544",
"r  c #735A45",
"t  c #7C5D4B",
"y  c #785746",
"u  c #7F5951",
"i  c #6D6845",
"p  c #7C634D",
"a  c #7C6A4D",
"s  c #786445",
"d  c #797848",
"f  c #7C7751",
"g  c #796F4B",
"h  c #85753E",
"j  c #82543D",
"k  c #835E4A",
"l  c #865B45",
"z  c #845E56",
"x  c #876848",
"c  c #93684E",
"v  c #837A4C",
"b  c #937A4D",
"n  c #836354",
"m  c #8C6B55",
"M  c #8A6D5B",
"N  c #866956",
"B  c #946C54",
"V  c #936C5A",
"C  c #9C6C5A",
"Z  c #986B53",
"A  c #887756",
"S  c #95725C",
"D  c #9B735C",
"F  c #9A7959",
"G  c #A06D5D",
"H  c #A2755D",
"J  c #A07E5B",
"K  c #8D6B60",
"L  c #8D7362",
"P  c #8D7A64",
"I  c #947461",
"U  c #9D7462",
"Y  c #9C7C64",
"T  c #9B7C6B",
"R  c #947A64",
"E  c #9A746D",
"W  c #A47C64",
"Q  c #A97C64",
"!  c #A37D6B",
"~  c #AD7D6B",
"^  c #A77465",
"/  c #B27C6D",
"(  c #68851C",
")  c #6A8224",
"_  c #6C8B24",
"`  c #6D832C",
"'  c #6A8527",
"]  c #738B23",
"[  c #738C2C",
"{  c #75882A",
"}  c #76942D",
"|  c #7C942C",
" . c #7B9A2C",
".. c #769226",
"X. c #6D8837",
"o. c #748C33",
"O. c #758D3C",
"+. c #7A8D3C",
"@. c #778734",
"#. c #749333",
"$. c #7B9434",
"%. c #7C9A34",
"&. c #74923C",
"*. c #7C943C",
"=. c #7D9A3C",
"-. c #779A39",
";. c #6F922D",
":. c #7EA339",
">. c #7B8949",
",. c #749342",
"<. c #7C9443",
"1. c #7D9A43",
"2. c #7D954A",
"3. c #7E9B4A",
"4. c #779845",
"5. c #7C8355",
"6. c #7EA142",
"7. c #7FA149",
"8. c #819A2E",
"9. c #80962D",
"0. c #83893E",
"q. c #829C34",
"w. c #83953D",
"e. c #839B3C",
"r. c #859937",
"t. c #84A234",
"y. c #85A23C",
"u. c #8BA33D",
"i. c #8BA93D",
"p. c #87A337",
"a. c #93AA3E",
"s. c #838D4B",
"d. c #868947",
"f. c #93874C",
"g. c #829443",
"h. c #8B9445",
"j. c #849C44",
"k. c #899D45",
"l. c #83944B",
"z. c #8C944C",
"x. c #849D4B",
"c. c #8A9D4B",
"v. c #92994E",
"b. c #888956",
"n. c #96895A",
"m. c #8C9553",
"M. c #839C52",
"N. c #8C9C53",
"B. c #8D9C5B",
"V. c #869556",
"C. c #949455",
"Z. c #929C53",
"A. c #93945A",
"S. c #949D5B",
"D. c #999B5C",
"F. c #9B9558",
"G. c #A2995D",
"H. c #A38E5F",
"J. c #85A244",
"K. c #8AA445",
"L. c #8CAA44",
"P. c #85A24B",
"I. c #8BA44C",
"U. c #8DA94C",
"Y. c #86A94D",
"T. c #91A644",
"R. c #93AA43",
"E. c #91A54D",
"W. c #92AB4E",
"Q. c #9AAE4F",
"!. c #8EB04C",
"~. c #95B24D",
"^. c #94B445",
"/. c #86A252",
"(. c #8CA552",
"). c #8DAA53",
"_. c #8DA259",
"`. c #8DAA59",
"'. c #87AA50",
"]. c #92A553",
"[. c #93AB53",
"{. c #99AD55",
"}. c #93A55A",
"|. c #9AA35D",
" X c #94AC5A",
".X c #9AAD5B",
"XX c #98A355",
"oX c #95B253",
"OX c #9AB455",
"+X c #9CBA53",
"@X c #95B25C",
"#X c #9CB25C",
"$X c #9DB95D",
"%X c #8EB250",
"&X c #A2B75C",
"*X c #A3A75C",
"=X c #998667",
"-X c #9C9C63",
";X c #959A65",
":X c #938C6C",
">X c #A28265",
",X c #A5826C",
"<X c #AB836C",
"1X c #AD8B6C",
"2X c #A88766",
"3X c #B2836D",
"4X c #B18C6E",
"5X c #A39D64",
"6X c #A79869",
"7X c #A48571",
"8X c #AB8A74",
"9X c #AC8875",
"0X c #B48C74",
"qX c #B88A77",
"wX c #AC9974",
"eX c #BB937A",
"rX c #B79679",
"tX c #B19B69",
"yX c #93A562",
"uX c #9BA463",
"iX c #95AD63",
"pX c #9BAC63",
"aX c #9AA869",
"sX c #9CB361",
"dX c #9EB866",
"fX c #96A869",
"gX c #A4A26C",
"hX c #A5A766",
"jX c #A2B563",
"kX c #A5B868",
"lX c #ACAB72",
"zX c #A8A475",
"xX c #B5A47A",
"cX c #B0B575",
"vX c #C3967E",
"bX c #C3A57F",
"nX c #ABC16C",
"mX c #ABC675",
"MX c #BB9C87",
"NX c #B5AA8A",
"BX c #C49B82",
"VX c #C49D88",
"CX c #C4A688",
"ZX c #D2A58C",
"AX c #CEB090",
"SX c #CDC38E",
/* pixels */
"7.'.@X)./.3.2.,.l.x.P.P.P.1.6.6.:.-.-.=.Y.'.P.x.x.x.P.x.4.4.j.).P.P.j.j.J.W.W.U.-.1.U.).%XL.:.:.i.i.y.y.y.y.%.$.q.y.u.L.~.L.u.t.",
"7.Y.'.7.x.x.x.2.2.x.x.j.4.-.-.-.6.:.7.J.I.Y.U.I.<.j.x.P.U.). X`.x.'.I.J.U.W.[.U.I.Y.).).Y.:.:.:.t.y.y.y.%.%.%.q.y.q.y.y.K.u.y.y.",
"'.Y.7.4.3.x.M.x.x.x.3.1.,.;.#.#.L.Y.J.J.J.J.I.P.I.P.P.(.oX@X@X)./.'.U.P.L.U.L.U.).).U.Y.J.:.:.:.%.e.y.y.e.e.e.L.L.L.K.L.K.K.U.L.",
"'.'.P.1.<.3.2.<.x.x.3.4.-.-.-.-.J.U.U.U.P.J.J.J.U.K.P.J.).%X).U.(.).U.j.e.y.y.e.I.P.1.1.-.=.p.i.%.y.K.U.K.L.W.oXoXoXoXW.U.W.oXOX",
"7.'.)./.4.4.,.O.x.j.1.3.3.6.:.1.J.U.oXOXW.U.I.I.j.=.=.=.J.J.P.I.).).J.=.} } $.#.=.1.*.*.*.r.r.u.j.J.j.I.U.[.[.[.W.W.[.W.U.U.W.[.",
"7.).@X%X(.P.j.l.j.3.j.j.6.Y.J.Y.j.K.W.[.W.U.K.K.Y.U.I.J.1.J.K.Y.@XoXJ.%.}  .%.$.J.e.k.j.j.e.k.u.J.j.k.K.I.W.[.W.I.I.[.W.W.I.W.E.",
"7.'.`.).(.(.(.I.x.3.3.=.6.J.6.J.w.J.K.I.K.K.y.y.oXoXoXoXU.U.W.[.dXOXU.u.i.i.L.L.U.W.].W.I.T.T.E.E.U.[.].[.).[.[.[.[.[. XOX@X[.[.",
"7.7.3.4.j.P.P.j.j.w.*.=.1.6.=.1.k.k.k.K.J.K.J.J.L.W.oXoX#X#X#X#XdX$XoX%X^.+X+X+XOX#X#X#X{.{.Q.Q.[.#X#X$X[.[. X#X@X[.[. X#X#X#X#X",
"4.,.*.4.j.I.I.K.J.k.K.U.U.J.J.P.W.E.[.W.E.K.L.oXL.&XE.#XsXc.kXdX X#X#XU.u.+X&X^.oXoX@X#X*X&X&X&XjXsX[./.c.(.].c.].[. X.X X[. XjX",
"(.'.'.(.).[.].E.I.I.I.W.).U.U.[.#X.X{.[.U.I.U.oXI.#X X].|.|.S.dXcX|.c.K.T.~.~.~.W.W.[.{.&X&X&X&X&XsX].I.x.x.I.(.].].[. X].c.c.(.",
"[.`.(.`.[.[.E.E.I.I.E.W.U.P.Y.).[.[.].U.U.J.I.).U.P. XN.aXhXd 5.hX|.XX].{.W.~.~.oX@X#X#X{.{.Q.{..X#XsX#X].c.(.]. X X.X.X].c.j.x.",
"x.x.P.U.[.[.W.K.K.K.W.[.W.J.J.P.I.x.x.).).(.).). X_.x.$ # - o   * s.lXXX{.{.+X~.oXoXOX@X{.E.E.k.{.#XkXkXjX.X[.{. X X.X X[./.c.c.",
"3.x.P.).[.[.[.E.T.K.W.[.U.J.P.P.)./.(.`.@XiX`.`.x.kX;XX   f NXe   * D.z..XE.[.W.I.Y.).[.oX[.W.Q.]..XjXnXnXjX#X.X{.[.[.].(.c.v.[.",
"3.x.x.U.[.W.T.k.e.e.k.K.J.j.P.[.iX`.).`.`.'.3.,.M.B.B.;   f NXu . $ v d.jXh.k.K.I.U.). X XOX{.{.].E.].&X#X#X{.#X.X{.].].E.I.E.[.",
"<.<.2.J.I.K.w.9.$.9.e.K.j.e.P.).`./.4.4.7.4.X.,.8 q d d e 5.E f o 2 v 9 hXk.c.I.).).).[.[.[.[.[.E.I.].{.[.v.].&X.X{.]..X.X[.]..X",
"&.O.<.x.c.k.j.w.@.+.I.[.[.x.x.x.7.4.,.&.,.,.X.,.2.,.5.i MXNXe = o s =X9 hX{.jX[.U.).U.U.[.W.~.oXc.I..X#X Xc.I..X[.].].[.{.[.[..X",
"g./. X.X X[.]. X[.N.N.}._.}.B.2.3.2.,.,.,.,.3._.M.V.V.5.5.NX5.. o : zX6 m.aXS..X#X{.{.I.U.!.%X%X<.x.x.(./.(.}.$X$X`.).[.oX[.[.oX",
" X X X X}.}. XiX}.V.S.B.V.B.uXyXfX`._.3.3.3.fXdXiXyXaX;X5.NX:X& 2 < n.> b.lXuXN.XXXXXX{.oXoXJ.6.P.P.P.(.'.). XsX[.).P.).`.).Y.).",
"#X[.(.).).}._._.N.M._.V.>.m.iXaXiXiXiX`./.3.`.dXiX XaXlXaXNXNX:Xb 7 A 6 7 zXaXD.C.Z.v.E.].U.P.&.'./.(.`.`.(.). X).(.P.).(.(.U.(.",
"I.I.I.].].].].(.}.S..XuXN.V.|.iX_.`.iX X(./.7.'.).x._.uXfXfXfXaXMXY 8Xn.> b.n.A.F.C.f.z.z.].N.j.M./.(. X`.(.P.P.@X`.).).U.P.U.P.",
"I.I.[. X.X X X.X XuXjXkXjXaXpX|.}.]. X.X XI.I.I.I.j.l.l.s.m.S.;X8Xt s s & A n.A.6X6XG.C.F.|.|._._././.`. X`.'./.#X@X`./.x.P.P.P.",
"].U.[.W.[.[..XsX].].pXkXjXjXpX].}.].I.I.P.J.K.W.W.I.k.g.z.Z.S.5XAXx : s x NXNXrXn.wXrXtX6X6XuXA.pX)././.(.`.).}.@X@X).x.3.3.x.x.",
"j.e.=.j.c.I.I.c.g.g.c.].N.S.].].I.k.K.J.e.e.J.W.W.U.I.I.(.c.XXlXAXn 1 3 s =XF 3 x >XrXMXzXzXgXB.aX`././.`.`.`.`.`.@X@X'.P.P.P.P.",
"[ [ o.*.k.J.g.+.c.g.g.g.+.g.N.].c.I.[.[.U.J.U.oXU.U.K.I.c.+.+.hXvXC n V N N N n 1 D xXCXrXNXxXgXiX`./._. X`.M.3.`.@X@X).(.(.P.P.",
"o.j.[.OX].j.k.W.I.c.h.k.k.v. X&XI.U.U.P.U.U.U.Y.U.P.j.J.c.c.g.hXxXC ! D V MX9XE qXV ! eXrXwXzXAXyX(.`. X`./.x.U.`.U.P.P.P.).).P.",
"(.sXnXkX[.j.*.*.].I.c.k.k.c.c.c.[.[.Y.P.P.P.Y.P.j.U.(./.c.g.Z.cX>Xj ^ W I ! U ! 9XG C k R AXxXd kX).x.(.@X@X).P.).`.(.Y.U.[.oXU.",
"*.I.oX[.(.E.I.c.h.I.E.c.c.v.I.g.(.[.(./.(.).[./.c.M.z.N.uX|.D.lXc @ 1 y k I V V ! V c t s n.n.d.M.x.P.P.P.P.Y.P.P.I.I.U.Y.U.P.U.",
"j./.P.j.c.].].j.g.I.].v.E.].E.h.c.N.].}.}.pX}._.yX}.C.-XlXlXF.H.B 3 3 1 y V V z x 3 S >Xg 6 d cX+.4.P.U.J.1.j.Y.J.J.J.U.J.J.J.J.",
"}.[.).c..XkX#Xx.j.I.].c.c.v.c.g.z.Z.S.].|.uX-XA.5XlXzXgXwX2Xn.1XJ <XrX>XV S m V y 3 >XtX-XA.m.pX(.P.J.I.U.oXU.J.).L.U.U.W.L.J.y.",
"2.x.x.}.kXkXsXx.g.g.g.c.c.j.k.l.Z.D.F.D.-XgXgXzX6XwX2X>X1XwX0XvXvX0X0XrX9XD S <X1XF 2X6X6XhXZ.M.).W.U.J.j.J.U.oX%XL.J.U.%XK.:.y.",
"x.x.N.). X).l.+.g.g.g.c.v.c.c.XXD.G.5XhXgXwX6X6X=X=Xm B <XqXqXqX0X2XF <X1X=XY 8XCX4XxXtXb.z.l. X=.U.%Xy.#.;.-.L.y.$.} =.y.:.#.$.",
"c.c.P.(./.k.j.J.[.c.N..X.XZ.z.D.5XzXxXxXwX6XF a S Y W D D C G ^ H 4X4X1X<XY D S D tXAXxXd.z.I.Y.J.K.K.J.e.e.=.#.=._ ( } $.#.] _ ",
"Z.I.].W.J.=.y.L.~.[.].].pXzXzX:XwXMXCX8XV N Y 7X9X9X! eX! ~ D W J F 1X3X<X/ qXG Q 3XbXbX*X*X.Xw.W.q.e.~.oXJ.w.J.=.#.$.*.` ) [ u.",
"].].E.W.^.!.!.L.L.k.E.pXlX6X6X:XMXMXMX7X=X7X9X7XMX9X~ W ~ qX3XZ F >X>XH G ^ / / vXvXbXSXhX&X].q.p.q.%.%.e.k.j.w.j.I.OXoXe._ } L.",
"#X.XE.I.~.+XoXi.J.k.XXhX-XA A R 7X7X7X7X7X! U Y ! ! ! V 9X~ 3XF 4X4XJ D ^ / / ^ Q 3XtXSX*X&XQ.r.q.u.q.[ w.W.{.T.E.I.I.W.K.e.e.u.",
"&X.XI.K.U.OX~.e.j.E.hX-Xv i p =XR R 7X9X! V U ! U m ^ 7XqXC H 3X4X4XH C / qX^ G Z J G.bX*X*Xa.u.u.T.u.$.u.&XjX{.W.k.e.w.r.q.e.r.",
"XX.XW.j.K.W.E.g.z.Z.D.n.A N S =XL m m m V m C <XC B B 0X3XH H qX/ G c c / / G Z c b tXtX{.e.J.i.R.u.r.u.T.Q.Q.Q.u.u.u.9.] % ..a.",
"I.W.W.J.j.I.E.v.D.C.b.v A I M t t n V V x x n D ^ D c C Z 3X3X3XG Z l c ^ / Q J h b tXu.E.[ i.p.R.p.r.T.T.a.u.k.{ 0.9.9.( % ] 9.",
"I.I.I.K.j.g.z.S.m.f.v x M N z w k S <X,XD D H >XW Q H Z G 3X3XQ Q c j h H 3X3XJ h f.F.9 9.% .. .u.r.a.R.R.u.u.T.0 ] % 9.] 9.] ] ",
"U.L.I.c.g.g.z.A.v g a N n y z E m N k l V <XeX0X<XQ eX3XvXH 3X3XvXj j l H 2Xf.j b *Xv.{ % % ( ( | r.u.T.T.T.R.R.9.8.a.8.9.9.r.u.",
"J.y.W.(.g.l.-X-Xi N a y n E E z y l y x <XrX0X0XeXqXZXvXZXZXvX^ G Z c c j b h j v.0.a.0.( _ ..( ] [ r.T.R.r.8.t.9.a.a.a.a.t.9.8.",
"Y.y.I.(.z.D.;Xn.f A L I K n u u m Y Y >XrXMX<X>X>X<XBXqXvXBXZXvX/ c c Z 4 x h f.f.0.0.u.q.q.q.q.| { | r.q.] ] ..8.q.8.8.8. .9.8.",
":.6.%X(.l.b.=XA p M R E K u M K ! rX7X,X8X9XY ! BXeXVX0XvXvXZXvXH Q Q h 4 f.F.F.0.@.9.u.Q.e.| u.e.$.$.%.q.] ( ] 8.8.8.8.....9.8.",
"} J.U.c.>.s.v A r L L p u K E T T 9XT M I m x B D V D B 1X0XAXZXc G Q c h 6XG.v.v.h.w.v.&XT.q.K.j.=.e.y.u.y.:. .p.p.a.a.t.8.8.8.",
"y.6.*.g.m.n.a 2 L K u w , r n p = t p p M N p m V I S B S B qX<Xj @ 7 h H.H.z.D.XXE.j.e.Q.k.$.w.e.=.j.J.!.L.i.i.t.:.i.^.p. . ...",
":.6.k.}.uXb.2 < N w w w w < < , p R M t y , : , y M S V V k 0X<Xj @ 4 j H.G.v.v.w.k.j.+.w.w.+.@.*.=.=.J.6.i.i.i. . .:.i..... ._ ",
":.'.[.pXaXi - e < + < w e < < 2 & r e e p M S 8XMXAXMXVXMX! VX7X@ j h > f.G.Z.0.+.+.c.k.w.w.k.w.X.X.#.#.-. .:.:. ... . .( ( } _ ",
"^.!.K.].D.i * r + w y e , 2 r 2 O e t p L R T rX8X7XL =XMX8XMXB j j b j f.d.0.@.% 5 @.*.0 ` 0.@.5 5 ) 5 ( _ .. . ._  .:.( _  ._ ",
" .R.r.g.yXf * e O = e = + + w = = = e a L K P :XL p a f NXNXN v > 0 0 h 0.0.h.@.0 +.` 5 ` ` ` <.' ' X.<.c.*.o.#.@.o.=.e.e.{ [ q.",
" .q.[ 0.B.d 2 2 e e e e + + O O = e e p f P P P A A p P NXNXf > 0 h 0 h 0 h h.h.w.g.*.o.,.,.*.2.,.[ o.j.c.<.` 5 *.o.O.w.e.%.e.K.",
"] ( 5 @.>.5.i i e e e e < = + & & 2 i 2 e f f d d :Xf b.gXb.b.>.d.f.d.0.0.w.E.E.j.w.j.c.c.I.I.x.(.w.<.]. Xc.+.X.` 5 % ) [ | $.q.",
"$.' [ *.2.B.2.5.5.f i i i - - i - f b.d i 5.b.b.2.;X>.5.>.d d.m.z.h.h.h.w.h.h.h.{ ` w.I.x.I.U.2.I.j.j.[.#X Xc.I.x.*.o.o.w.J.K.T.",
"7.;.,.,.,.V.B.>.fX;XV.5.5.8 - 6 d >.l.>.>.>.l.l.l.>.>.<.l.x.` 8 l.g.@.9 @.{ 5 % 5 5 j.E.w.=.*.` *.@.+.k.U.x.c.].I.k.*.*.w.e.e.e.",
"7.,.4.4.X.,.2.,.3.fXB.V.B.>.8 ,.>.O.X.<.N.x.2.O.,.O.U.j.P. X=.1.E.*.@.5 ` *.[ ` [ %.K.K.*.o.[ ) o.{ ` *.<.*.g.I.#X{.[.W.I.K.K.K.",
"`.`.`.7.4.x.P.1.X./.3.x.dXiX2.2.x.j.2.U. X@X(.k.j.J.[.U.j.P.%X@X$XP.k.#.=.W.J.K.e.K.J.e.w.%.o.$.K.=.%.j.k.*.<.x.j.g.w.*.w.e.e.e.",
"3.`./.3.4.j.j.J.J.`.J.,.iXiX/.M.&.j.).[.Y.U.U.U.W.oXP.Y.j.%.U.[ sX).@Xj.J.[.u.u.J.I.r.q.K.J.j.I.#XE.k.E.].k.g.x.g.<.*.*.J.I.E.E.",
"B.x.).].j.W.&XoXJ.U.E.L.K.U.(.x.J.I.x.j.P.(.[.(.(.I.U.U.oXJ.k.W.dX@X).Y.J.L.U.J.+XU.L.~.OX[.U.W.W.W.I.W.[.k.*.I.I.].c.k.[.E.j.I.",
"pXiXkXkXE.E.Q.K.u.p.u.E.I.j.j.I.(.(.I.x.I.(.I.x.x.c.j.x.I.k.j.].Y.Y.Y.6.=.6.J.J.~.y.e.W.+XW.W.oXT.W.{.{.I.*.c.#X.XsX[.I. XW.k.K.",
"].].&X*XI.k.K.r.e.$.r.K.K.$.$.x.[.]._.P.c./.c.x.c.].z.g.c.]. X#XP.P.Y.oX%XJ.L.!.~.J.y.oX#XU.K.W.I.u.r.j.j.w.k.(.I.[.].[.#XW.k.k.",
"g.h.c.c.E.Q.OX{.{.T.K.Q.{.K.I.W./.(.(.N.x.x.z.x.<.x.<.@.l.].}. XI.P.).$X$XU.L.oXL.U.W.oXU.y.j.J.E.e.$.e.j.j.c.x.+.x.].#X#X[.k.=.",
"*.w.w.w.I.{.{.{.[.E.x.k.k.W.E.I.(.(.`./.x.3./.`.l.N.2.O.l.S.(.].3.x.I.U.[.=.[ J.*.W.+XL.-.j.J.e.L.J.W.Q.k.k.[.[.x.I.[.#X.XW.I.w.",
"q.K.e.J.I.I.j.x.(.I.j.*.g.K.K.w.'.`.`.'.3.<.M.`.).}.N.x.).}.N._.g.I.x.<.J.o.) $.#.L.oXJ.=.J.).W.K.q.K.W.K.E.#X].(.c.(.].c.I.[.I.",
"i.+X~.I.[.).). X X}.].).I.K.I.U.P.P.'.'.x.4.4.2.<.3.2.x.].M.,.<.).iXx.*.c.*.[ =.=.j.J.J.J.J.%X@XW.$.$.K.J.OX#Xg.c.g.x.c.*.j.[.[.",
"%.!.L.%.J.P. XmX)./.).@XI.*.=.P.3.4.4.7.7.4.&.,.O.O.,.P. X_.<.2.}.jXI.O.k.j.#.k.I.*.;.=.1.*.=.E.W.r.T.W.j.E.jX(.[.c.].(.g.g.I.j."
};
