/* XPM */
static char *_0858_76fd39fea51c70b8ce89376e264bef0fc195e5fdaf35e72803473bb0597de97e[] = {
/* columns rows colors chars-per-pixel */
"64 64 210 2 ",
"   c #7E644C",
".  c #7E6750",
"X  c #7E6B54",
"o  c #7F6E5A",
"O  c #83664D",
"+  c #84694E",
"@  c #88694D",
"#  c #816750",
"$  c #846B53",
"%  c #8A6D53",
"&  c #846E59",
"*  c #896E59",
"=  c #8D7156",
"-  c #85715C",
";  c #8C735B",
":  c #8F7A5F",
">  c #917256",
",  c #92755B",
"<  c #95795E",
"1  c #98795E",
"2  c #806E60",
"3  c #867563",
"4  c #8B7563",
"5  c #8C7965",
"6  c #887668",
"7  c #8D7C6B",
"8  c #877865",
"9  c #927761",
"0  c #957B63",
"q  c #997D64",
"w  c #937E6A",
"e  c #997E69",
"r  c #8E7F72",
"t  c #9C8266",
"y  c #92816B",
"u  c #9C836C",
"i  c #9F8A6E",
"p  c #928167",
"a  c #8F8271",
"s  c #938373",
"d  c #9B8573",
"f  c #9C8975",
"g  c #968679",
"h  c #9B877C",
"j  c #96887D",
"k  c #9C8B7B",
"l  c #9E917F",
"z  c #A1866D",
"x  c #A28A6D",
"c  c #A18771",
"v  c #A38B73",
"b  c #A98E73",
"n  c #A48D7B",
"m  c #AB8F79",
"M  c #A59074",
"N  c #AA9275",
"B  c #A5927C",
"V  c #AC947C",
"C  c #AA987E",
"Z  c #B0957D",
"A  c #B29A7D",
"S  c #9D8E81",
"D  c #9E9183",
"F  c #9F9289",
"G  c #A28F83",
"H  c #A49383",
"J  c #AA9582",
"K  c #AC9A84",
"L  c #A3958A",
"P  c #A99789",
"I  c #A6988C",
"U  c #AB9B8C",
"Y  c #B19682",
"T  c #B39B84",
"R  c #B29D8A",
"E  c #B99F8B",
"W  c #B99D87",
"Q  c #A69A90",
"!  c #AB9D92",
"~  c #B99F90",
"^  c #BEA687",
"/  c #B5A28C",
"(  c #BBA48B",
")  c #BBA88C",
"_  c #AEA294",
"`  c #ADA39A",
"'  c #B5A493",
"]  c #BAA594",
"[  c #BCA994",
"{  c #B4A69A",
"}  c #BAA699",
"|  c #B5A99D",
" . c #BBAA9B",
".. c #BFB09D",
"X. c #B5ABA2",
"o. c #BAADA3",
"O. c #BCB2A5",
"+. c #BDB4AA",
"@. c #C3AC8F",
"#. c #C0A68D",
"$. c #C2AB93",
"%. c #C2AB9A",
"&. c #C5AA96",
"*. c #C5B197",
"=. c #C5B29D",
"-. c #CBB49C",
";. c #CCBA9E",
":. c #CCB297",
">. c #D2BA9E",
",. c #C2AFA1",
"<. c #C4B4A4",
"1. c #CBB4A3",
"2. c #CCB9A5",
"3. c #C4B6AB",
"4. c #C9B6AA",
"5. c #C5B9AC",
"6. c #CDBCAC",
"7. c #C5B8A7",
"8. c #D3BDA5",
"9. c #D1BCAB",
"0. c #D0B5A2",
"q. c #C5BBB3",
"w. c #CBBEB2",
"e. c #C9BFB8",
"r. c #C6BDB8",
"t. c #D3BFB1",
"y. c #D9BFB0",
"u. c #CDC0AE",
"i. c #D5C1A6",
"p. c #D3C3AB",
"a. c #DBC5AD",
"s. c #DACAAF",
"d. c #D4C9AD",
"f. c #CBC1B6",
"g. c #CCC4BB",
"h. c #CFC9BD",
"j. c #D4C4B5",
"k. c #D9C5B4",
"l. c #D7C9B6",
"z. c #DDCBB4",
"x. c #D4C6BA",
"c. c #D9C6BB",
"v. c #D3CABC",
"b. c #DCCABB",
"n. c #DFD1B7",
"m. c #DDD1BB",
"M. c #E0C8AC",
"N. c #E2CBB4",
"B. c #E2CDBE",
"V. c #E2D2B7",
"C. c #E4D2BA",
"Z. c #EAD5BD",
"A. c #CFC8C0",
"S. c #CEC7C1",
"D. c #D2C7C0",
"F. c #D4CCC3",
"G. c #DACEC4",
"H. c #D8CFCA",
"J. c #D7D3C7",
"K. c #DCD2C6",
"L. c #D7D2CB",
"P. c #DCD4CC",
"I. c #DDDACE",
"U. c #DDD7D1",
"Y. c #DED9D2",
"T. c #E2CDC1",
"R. c #E3D5C5",
"E. c #EBD6C2",
"W. c #EDDCC5",
"Q. c #E4D6CA",
"!. c #EAD6CC",
"~. c #E2DACD",
"^. c #EADACC",
"/. c #F0DEC6",
"(. c #F0DDCD",
"). c #E1D7D1",
"_. c #E3DCD3",
"`. c #ECDDD3",
"'. c #E4DDDA",
"]. c #E8DFD9",
"[. c #F1DDD2",
"{. c #EEE1C6",
"}. c #EFE4CA",
"|. c #F0E0C7",
" X c #F1E4CB",
".X c #F2E8CD",
"XX c #E4E0D6",
"oX c #EAE1D4",
"OX c #E6E2DB",
"+X c #EAE4DC",
"@X c #ECE8DF",
"#X c #F2E9D4",
"$X c #F1E5DA",
"%X c #F3EADC",
"&X c #EBE5E1",
"*X c #EEEAE4",
"=X c #F3ECE4",
"-X c #F9EDE1",
";X c #F3EEEA",
":X c #F6EBE6",
">X c #F5F1E5",
",X c #F9F3E6",
"<X c #F5F2EC",
"1X c #F9F4EC",
"2X c #FBF8EF",
"3X c #F6F5F1",
"4X c #FAF6F2",
"5X c #FDFBF5",
"6X c #FEFEFC",
"7X c #F9F8F5",
/* pixels */
"6X5X6X6X6X6X6X6X6X6X6X6X6X6X6X6X6X6X6X6X6X6X6X6X6X6X6X6X6X6X6X6X6X6X6X6X6X6X6X7X6X7X6X6X6X6X6X6X6X6X6X6X6X6X7X7X6X6X7X6X6X6X6X6X",
"6X6X6X5X6X5X6X6X6X6X6X6X6X6X6X6X6X6X6X6X6X7X7X6X6X6X6X6X6X6X6X6X6X6X6X6X6X6X6X6X6X6X7X6X7X6X7X6X6X6X6X6X6X6X6X6X6X6X6X6X6X6X6X6X",
"6X5X6X5X6X6X6X6X6X6X6X6X6X6X6X6X6X6X6X6X6X7X6X7X6X6X6X6X6X6X6X6X6X6X6X6X6X6X6X6X6X6X7X6X6X7X6X6X6X6X6X6X6X6X6X6X6X6X6X7X6X6X6X6X",
"6X6X6X6X6X5X6X6X6X6X6X6X6X6X6X6X6X6X6X6X6X6X6X6X6X6X6X6X6X6X6X5X6X6X6X6X6X6X6X6X6X6X6X6X6X6X6X6X6X6X6X7X6X6X6X6X6X6X7X6X6X6X6X6X",
"5X6X6X6X5X6X5X6X6X6X6X6X6X6X6X6X6X6X6X6X6X6X6X6X6X6X6X5X6X6X6X6X6X6X6X6X6X6X6X6X6X6X6X6X6X6X5X6X6X6X6X6X6X6X6X6X6X6X6X6X6X6X6X6X",
"6X5X5X6X6X6X6X6X6X5X6X6X6X7X6X6X6X6X6X6X5X6X5X6X5X6X6X6X6X6X6X6X6X6X6X6X6X6X6X7X6X6X6X6X7X6X5X6X6X6X6X6X6X6X6X6X6X6X6X6X6X6X6X6X",
"5X6X6X5X5X6X5X5X4X4X4X4X7X7X7X6X6X6X5X6X7X3X3X5X7X5X6X5X5X5X5X5X5X5X5X5X6X5X6X5X7X7X7X7X6X7X5X6X4X7X4X4X7X7X7X6X6X5X6X6X6X6X5X6X",
"6X5X5X6X6X5X5X4X<X>X;X1X1X4X7X7X5X6X5X3X<X<X<X<X5X5X5X5X4X4X3X2X3X2X3X5X5X6X6X3X3X<X;X<X4X6X5X4X3X3X3X4X4X4X4X7X5X6X5X6X6X6X5X6X",
"6X5X5X5X5X2X3X>X*X+XOX+X=X>X1X4X5X5X2X3X*X@X&X*X>X5X5X4X3X*X*X>X*X<X>X3X5X5X5X1X*X&X&X*X<X7X5X3X;X=X*X*X*X;X<X4X5X5X6X5X6X5X5X6X",
"6X6X5X6X5X3X3X@XXXP.P.I._.=X=X1X3X5X3X*XXXI.I.XX=X2X2X1X>X*X@XOXOX@X@X>X2X4X,X=X+XY.Y.OX<X1X4X1X*X+X_.'.].@X=X=X4X5X5X6X5X6X5X6X",
"5X5X6X5X2X2X,X@XP.h.g.v.K.~.oX=X,X2X,X+XL.g.h.J.XX,X,X>X@XXXY.P.J.I.I.@X>X,X,X@XI.A.A.I.@X1X,X=X+XL.G.G.G.)._.*X1X5X5X5X5X6X5X6X",
"5X5X5X5X5X5X,XXXv.5.+.3.f.v.R.oX>X2X>XXXg.X.X.f.~.#X>X#XXXJ.F.v.f.h.h.I.%X,X-X~.f.+.+.h.XX,X,X@XR.f.w.q.e.v.L._.*X2X6X5X6X6X5X5X",
"6X6X5X5X5X5X>XI.f.| _ _  .7.u.R.%X,X%XK.O.I I  .v.`.%X`.K.j.5.O.O.| 7.h.oX>X%XG.O.Q U +.J.%X=XoXx.O.} { X.3.f.L.+X2X5X5X5X5X6X6X",
"5X5X5X5X2X2X@XJ.O.U l D P ' 7.l.}.%X@Xl.! a a P 6.R. XR.x.4. ._ _ _ ` u.{.#X`.l._ j j _ v.#X#XI.5._ L H P { O.v.oX>X5X5X5X5X6X5X",
"5X5X2X2X,X>XI.h.` l s s f B / 7.m.~.I.7.l 8 6 k %.k.T.k.4.} ! P l l K ..d.R.m.7.H 7 7 F 5.R.~.l. .H f s k P { 5.J.+X2X2X5X5X5X6X",
"3X2X>X@XXXJ.f.| D a 8 8 a f H ) 7.d.2./ f - 2 w R =.2.<.~ J n e a f l ) O.d.6./ f 3 3 k [ f.z.=.U s 7 7 s l I O.f.I.*X>X2X5X6X5X",
">X>XOXY.g.+._ D a 8 o - - p u n R / R v w $ ; 0 Y W W W e e e e e e c Z W ( E m q & - p J &.%.R v w 3 & 7 s H _ 7.h.U.&X;X3X5X6X",
">X@XY.A.+.I j 7 3 o o o - ; 9 u u i i t ; & & , e e e m e q , 9 0 q e c v v v e ; & ; q v Y Z v 0 * $ & - 7 k I { +.S.Y.*X4X5X6X",
"*X@XI.g.` S r o o o X # $ * = ; < < : = * % $ > 1 1 1 1 1 @ * * , 0 9 q e q e 9 * $ & , e c z e * # . # & 7 s G ! X.q.L.@X>X5X5X",
">X@XY.h.X.F a 6 - o $ + + $ $ * = = = = @ $ @ = > , 1 > > @ @ % , , 1 9 q 9 , > * % $ = 0 q 0 , % # . . $ - w d H ! o.g.'.>X5X5X",
">X*X_.F.+.I j a 5 - & $ @ @ @ > > > > > % @ @ @ > > > > % % % % % > > 9 1 , , > % @ $ = 1 1 1 > $ O O O # * 6 r S F ` r.U.*X7X6X",
"1X>XOXP.r.X.I k y 9 ; $ $ % % > 1 t t > > @ @ @ > 1 1 > , % > > % > > , 1 0 1 , % + + = > 1 1 > % O O # $ 3 4 w g F ! r.P.&X4X5X",
"4X1X&X_.F.5.| P f p : = % % > 1 x b x z , % @ % 1 e e q q 1 e 9 , , , q u c c q , & = , q e z q > % O @ * * w g S L X.S.).*X4X6X",
"7X4X<X&XY.v.q. .K f w < , , 1 x A ^ ^ V q * % , e m Y Z m m e e 9 9 e e Z ( W b q - = < b T Z m e 1 > * 9 e d H ! X.r.L.&X;X7X5X",
"6X4X4X1X*X+XK.6.| B c t q q t T :.d.>.) f ; & p V #.=.&.~ W Y e e e e ~ &.0.0.~ c ; ; e ~ -.-.#.Z e 0 0 e f J ] q.F.Y.&X;X7X7X6X",
"6X6X6X7X4X,X+Xb.<.R B u q u M @.s.Z.Z.;.C 5 ; f ) 2.y.y.0.%.~ J G h G } y.T.T.%.n 4 9 n &.y.N.8.E b z u c V ' <.G.'.;X4X6X7X6X6X",
"6X6X6X6X6X5X>X~.6.' B x u i V *.m..X.Xd.K 7 8 k %.y.T.T.t.4.%.R G h m } c.!.!.0.H 6 6 n 0.Z.E.M.&.V c c v P } w._.;X6X6X6X6X6X6X",
"6X6X6X6X6X5X>XK.6.] B c u i V *.m..X}.d.K 8 5 k  .k.T.T.y.4.~ U G h G ,.c.[.!.y.U 7 w m 4.E.E.N.%.Z v v n T [ f.~.;X6X6X6X6X6X6X",
"6X6X6X6X6X6X>X~.6.' m d u u M $.n..X}.j.K y 5 k } t.b.b.t.4.o.U S h G ,.c.[.!.t.P 7 7 H <.C.E.a.*.C b b B K ] f._.<X6X6X6X6X6X6X",
"6X6X6X6X6X5X>X~.6.' J i w e v [ n.}.W.p.K 7 8 f ] 6.c.j.w.<.} U h h G { c.!.!.4.I 7 7 H <.z.C.p.$.C v v n J } 6.~.;X6X6X6X6X6X6X",
"6X6X6X6X6X5X>XI.6.' B c w q i [ z.|.W.p.K p 8 f ' 6.c.c.t.<.o.U F h S { t.!.!.4.U w 7 B =.z.V.p.$.C n c n J ] w.~.=X7X6X6X6X6X6X",
"6X7X6X7X6X5X>X~.w.] J x q q i ) d././.p.K a 8 f ' 6.j.t.6.<. .! S h G } t.!.!.4.P 7 7 H *.z.V.i.$.C v f n J ] w.~.;X7X6X6X6X6X7X",
"5X6X5X6X5X5X>X~.d.) A x t p M ) d.{.W.i.K 5 8 f ] 4.j.l.f.4.o.! S g S { t._.!.6.P 7 7 B =.z.C.p.$.V x f l C ' u.I.>X5X6X6X6X6X5X",
"6X6X6X6X5X2X>X~.d...C x t p x ) s.{.Z.p.K a p f ' 6.c.k.j.4. .! S g S { x.!.Q.6.P y 5 H =.z.V.i.@.V v x i C [ u.I.>X5X6X6X6X6X6X",
"6X6X6X5X6X2X>X~.j.[ A M p p x A s.{.{.p.K p : f ' 9.k.x.t.4.,.! S r G } l.^.Q.6.H 5 5 B =.z.C.i.@.V i i M C ' u.~.>X5X6X6X6X6X6X",
"6X6X5X6X6X5X>XoXl.=.A x t t x ) z.}.}.d.R y p l ] 9.z.b.j.6.,.R S j G o.c.(.!.6.K a 8 B ;.V.Z.a.@.C M M l C [ u.~.>X5X6X6X6X6X6X",
"6X6X5X6X6X5X,XoXl.=./ N t > t ) s.}..Xd.K p p f [ p.B.b.k.4.%.R G d G  .k.(.!.9.P 5 5 B :.V.Z.a.@.A b x M A [ u.I.>X5X6X6X6X6X6X",
"6X6X6X6X5X5X>X}.l.;.( M t p x A d.{.{.d.K p 8 f [ 9.z.N.k.0.%.R v s n ] k.W.E.9.K 5 5 N :.V.Z.i.@.A x x M C ) u.K.>X5X5X5X6X6X6X",
"6X6X7X4X1X>XoXK.6.*.R x t > x A ;.n.V.;.C p 5 i E -.8.8.0.&.E Y v s v E 2.N.N.*.M ; : M @.i.M.>.^ N x t i M ) O.m.oX>X3X5X5X6X6X",
"6X6X7X>X@X~.K.u.[ K V t p > t N ) ;.;.^ v < ; t V #.&.@.E Y J v i q z Z ] :.:.R i ; ; t A @.:.^ N t t t p i i ) 7.v.I.*X3X5X5X6X",
"6X5X2X&XI.g.O.' P f t < = : < t N A A x t = = 1 e Z Z Z b e e q 9 0 q z m Z m x < $ % < x Z Z b t > = = ; 0 d H { +.A.I.*X3X6X6X",
"6X5X<XOXh.O._ D d p , ; % % = < t t t < , = % , 1 q q q 1 , , , 9 0 q q q q 0 , % + + ; 1 t z 1 > +   + $ - 5 d D _ +.F.&X<X5X6X",
"5X5X>XY.g.| I j 8 ; = $ % % % = > < , = % @ @ % > 1 1 , > % % > , , q 1 , , = % + O + = , 0 0 , %       . $ 4 y D _ O.A.'.<X5X5X",
"6X5X1X_.g.X.I f 7 ; & + + % % = = > , = % @ % % , 1 9 1 , > > * , , 1 9 < < , * O     $ , q q 9 = .     . & 6 s D ` +.A.OX<X5X6X",
"5X6X<X'.A.+._ S a 3 & X # % * ; 0 q w , % O @ % , e e e 0 < 9 9 0 , e e e e q ; +     * e v n u p $ . . X & 7 k Q X.r.H.&X;X6X6X",
"6X6X<X&XL.r.X.U f 7 - X # # * 9 u x c e * # # * e c m v v c e e 0 0 e e v Z v e &   # * e Y Y m p : - $ & 4 s H | q.L.'.*X;X7X6X",
"6X5X3X*X).D.q.{ P h 7 4 $ $ & 0 v K J b 9 % $ 4 e m Y Y Y m n c e e e m Y E W n ; $ $ w Y ~ &.E B y p : 5 y k U +.g.U.&X:X1X5X6X",
"5X6X3X;X&X).v.q.| J h r 2 & 4 u R %. .R d 3 & e G ~ &.%.&.&.~ P G e G P %.4.,.~ f 7 4 n ~ 4.0.1./ C k f k D U X.f.P.OX;X<X4X6X5X",
"6X6X4X1X;X:X).F.w.X.U h 6 o 6 L  .x.c.,.H r 7 g U ,.6.t.t.w.4.~ Q G G } w.T.D.4.! h h P 4.c.T.y.7.| / U ! ! X.q.H.'.;X4X4X6X6X6X",
"5X5X6X5X7X1X*X+XL.w.o.! g 6 r Q w.Q._.l.{ S j L o.t.G.R.R.T.D.4.{ ! ! 3.G.`.[.G.o.Q L o.e.).[.!.x.6.3.O.o.+.r.H.'.:X4X4X6X6X6X6X",
"5X5X6X5X6X5X3X;X].G.e.{ F S L X.F.+X:XR.3.! Q X.q.G.!.].`.`.).x.3.X.o.e.).:X:X).e.o.o.r.T.:X:X$XQ.F.x.f.r.S.H.'.&X3X6X6X6X6X6X6X",
"6X6X6X6X6X6X7X<X=X_.L.e.X.~ X.q.~.:X1X].F.q.+.e.H.`.].:X:X:X].Q.H.g.e.).&X1X1X&XH.D.e.H.'.:X:X:X$X_.).P.U.U.).&X;X6X6X6X6X6X6X6X",
"6X6X6X6X6X6X7X7X;X:X&X).H.S.D.H.:X;X1X:X'.U.P._.+X:X1X1X1X1X1X:X'.'.'.&X;X7X7X;X&X'.'.&X:X4X4X:X;X:X&X&X&X:X&X;X4X7X6X6X6X6X6X6X",
"6X6X6X6X6X6X5X7X7X4X;X:X&X'.'.&X;X4X7X4X<X;X;X>X;X3X4X4X4X4X7X3X<X;X;X3X4X4X6X4X4X;X;X4X4X4X4X4X4X;X4X4X4X4X4X4X7X7X6X6X6X6X6X6X",
"6X6X6X6X5X7X6X7X6X7X7X4X4X4X;X4X4X7X6X7X6X6X6X6X6X6X5X6X6X5X6X6X6X6X6X6X6X6X7X6X6X6X7X7X7X7X6X6X6X7X6X6X7X6X6X6X6X6X6X7X6X6X7X6X",
"6X6X6X6X5X6X6X6X6X6X6X7X7X4X4X7X7X6X7X7X6X6X6X6X6X5X6X6X6X6X6X6X6X6X6X6X6X6X6X6X6X6X6X7X6X6X6X6X6X6X6X6X6X6X6X6X6X6X7X6X6X6X6X6X",
"6X6X6X5X5X6X6X5X6X6X6X6X6X6X7X6X7X6X6X6X6X6X6X6X6X6X6X6X6X7X7X6X6X6X6X6X6X6X6X6X6X6X6X6X6X6X7X6X6X6X6X6X6X6X6X6X6X6X6X6X6X6X6X6X",
"5X5X6X6X6X5X6X6X6X6X6X6X6X7X7X6X6X6X6X6X6X6X6X6X6X6X6X6X6X6X7X6X6X6X6X6X6X6X6X6X6X6X6X6X6X6X6X6X6X6X6X6X6X6X6X6X6X6X6X6X6X6X6X6X",
"6X5X5X6X6X6X6X5X6X6X6X6X6X6X6X6X6X6X6X6X6X6X6X6X6X6X6X6X6X7X6X7X6X6X6X6X6X6X6X6X6X6X6X6X6X6X6X6X6X6X6X6X6X6X6X6X6X6X6X6X6X6X6X6X",
"6X6X6X5X6X6X6X6X6X6X6X6X6X6X6X6X6X6X6X6X6X6X6X6X6X6X6X6X6X7X7X6X6X6X6X6X6X6X6X6X6X6X6X6X6X6X6X6X6X6X6X6X6X6X6X6X6X6X6X6X6X6X6X6X",
"5X6X5X6X6X6X6X6X6X6X6X6X6X6X6X6X6X6X6X6X6X6X6X6X6X6X6X6X7X6X7X7X7X6X7X7X6X6X6X6X6X6X6X6X6X6X6X6X6X6X6X6X6X6X6X6X6X6X6X6X6X6X6X6X",
"6X6X5X6X6X6X6X6X6X6X6X6X6X6X6X6X6X6X6X6X7X6X6X6X6X6X6X6X6X6X6X7X7X7X6X6X6X6X6X6X6X6X6X6X6X6X6X6X6X6X6X6X6X6X6X6X6X6X6X6X6X6X6X6X",
"6X5X6X6X6X6X6X6X6X6X6X6X6X6X6X6X6X7X6X6X6X7X6X6X6X6X6X6X6X7X7X6X7X6X6X7X7X6X6X6X6X6X6X6X6X7X6X6X6X6X6X6X6X6X6X6X6X6X6X6X6X6X6X6X",
"6X6X6X5X6X6X6X6X6X5X6X6X7X6X6X6X6X6X6X6X7X6X6X7X6X6X6X6X7X7X6X7X7X7X7X7X6X7X7X6X6X6X6X6X6X7X6X6X6X6X6X6X6X6X6X6X6X6X6X6X6X6X6X6X"
};
