/* XPM */
static char *_2946dc09c9848d9a1143c88410ad090i6g9JBRNJ4SJKxbn[] = {
/* columns rows colors chars-per-pixel */
"64 64 255 2 ",
"   c #0D0600",
".  c #0D0B00",
"X  c #150500",
"o  c #1C0500",
"O  c #140A00",
"+  c #1B0B00",
"@  c #1B1300",
"#  c #181800",
"$  c #230400",
"%  c #220A00",
"&  c #2B0800",
"*  c #320800",
"=  c #251400",
"-  c #2B1500",
";  c #241B00",
":  c #2B1B00",
">  c #341400",
",  c #341B00",
"<  c #3B1B00",
"1  c #3B1500",
"2  c #1A2500",
"3  c #1B3700",
"4  c #2D2300",
"5  c #2C2B00",
"6  c #242700",
"7  c #342400",
"8  c #3A2400",
"9  c #342B00",
"0  c #3A2900",
"q  c #293901",
"w  c #373803",
"e  c #323D12",
"r  c #431B00",
"t  c #471700",
"y  c #432300",
"u  c #432C01",
"i  c #4A2900",
"p  c #522A06",
"a  c #443301",
"s  c #4B3401",
"d  c #4C3A01",
"f  c #473806",
"g  c #563806",
"h  c #4D3713",
"j  c #5B3B13",
"k  c #67370A",
"l  c #6C3A12",
"z  c #673815",
"x  c #733D14",
"c  c #783B17",
"v  c #6F320F",
"b  c #783D25",
"n  c #623A20",
"m  c #2B4B02",
"M  c #294606",
"N  c #364807",
"B  c #2D5701",
"V  c #325403",
"C  c #345B03",
"Z  c #3B5D0B",
"A  c #375609",
"S  c #3A4715",
"D  c #3C5B13",
"F  c #3A5515",
"G  c #346302",
"H  c #3B6302",
"J  c #3B620C",
"K  c #3A6907",
"L  c #3C6711",
"P  c #3A6F09",
"I  c #3F5524",
"U  c #454807",
"Y  c #564509",
"T  c #47580A",
"R  c #525808",
"E  c #464A17",
"W  c #584715",
"Q  c #435B14",
"!  c #44541C",
"~  c #4C5D1B",
"^  c #4A5817",
"/  c #525D1B",
"(  c #585916",
")  c #67430C",
"_  c #684318",
"`  c #744114",
"'  c #754119",
"]  c #794718",
"[  c #70531B",
"{  c #436B02",
"}  c #43640D",
"|  c #436B0B",
" . c #4C6D0C",
".. c #496606",
"X. c #536808",
"o. c #44710C",
"O. c #4B740C",
"+. c #497504",
"@. c #547B0C",
"#. c #57770B",
"$. c #446413",
"%. c #4B6414",
"&. c #446B14",
"*. c #4B6B14",
"=. c #4C6D1B",
"-. c #46651B",
";. c #526B1C",
":. c #5B6D1B",
">. c #546617",
",. c #4B7314",
"<. c #4B721C",
"1. c #497816",
"2. c #547413",
"3. c #5B7413",
"4. c #547C14",
"5. c #5A7B14",
"6. c #52731B",
"7. c #547B1B",
"8. c #5C7C1A",
"9. c #5C741C",
"0. c #646A19",
"q. c #647D1C",
"w. c #657719",
"e. c #64700E",
"r. c #495A24",
"t. c #565925",
"y. c #585328",
"u. c #764329",
"i. c #7A4828",
"p. c #7A5628",
"a. c #774332",
"s. c #7C5735",
"d. c #6A5129",
"f. c #4B6723",
"g. c #536424",
"h. c #5C6C2C",
"j. c #586826",
"k. c #4D7822",
"l. c #547323",
"z. c #5A7324",
"x. c #597828",
"c. c #566B32",
"v. c #646A27",
"b. c #637B24",
"n. c #677628",
"m. c #74792A",
"M. c #636A33",
"N. c #697736",
"B. c #767C36",
"V. c #756832",
"C. c #6A7241",
"Z. c #893D20",
"A. c #854D1D",
"S. c #8B4C1C",
"D. c #864619",
"F. c #97481B",
"G. c #88521E",
"H. c #9A521E",
"J. c #98420F",
"K. c #AC571C",
"L. c #AA501D",
"P. c #834C23",
"I. c #8B4C24",
"U. c #844D2B",
"Y. c #8C4D2B",
"T. c #874527",
"R. c #934C2C",
"E. c #974926",
"W. c #8B5324",
"Q. c #8B522B",
"!. c #855428",
"~. c #985729",
"^. c #8B4D33",
"/. c #864D36",
"(. c #8C5234",
"). c #83533B",
"_. c #875535",
"`. c #9C5D34",
"'. c #9C5D3B",
"]. c #955838",
"[. c #944D33",
"{. c #A3542C",
"}. c #AD562B",
"|. c #A45B2C",
" X c #AD5B2C",
".X c #A85824",
"XX c #B45625",
"oX c #B45A25",
"OX c #B45B2C",
"+X c #B7592B",
"@X c #A35531",
"#X c #A45B33",
"$X c #AB5C33",
"%X c #A45C3B",
"&X c #AA5D3A",
"*X c #AB5536",
"=X c #B35C33",
"-X c #B75B36",
";X c #A34C29",
":X c #9C6435",
">X c #9C633A",
",X c #976635",
"<X c #8F6530",
"1X c #A9612B",
"2X c #B2612E",
"3X c #A36234",
"4X c #AB6233",
"5X c #A4623B",
"6X c #AB623A",
"7X c #A66A3A",
"8X c #B46438",
"9X c #AB621E",
"0X c #9A5E40",
"qX c #9B5740",
"wX c #845244",
"eX c #A55D41",
"rX c #8D7043",
"tX c #AB6242",
"yX c #A46443",
"uX c #B26745",
"iX c #C05D33",
"pX c #59840C",
"aX c #5C8314",
"sX c #5B831B",
"dX c #578519",
"fX c #568B12",
"gX c #64880A",
"hX c #64831C",
"jX c #648A1B",
"kX c #668917",
"lX c #718A19",
"zX c #6D941B",
"xX c #68941A",
"cX c #75991A",
"vX c #72A11C",
"bX c #5B8322",
"nX c #5C8727",
"mX c #5D8B2E",
"MX c #648B23",
"NX c #698727",
"BX c #768829",
"VX c #6A9426",
"CX c #759628",
"ZX c #678535",
"AX c #778538",
"SX c #7A9834",
"DX c #7BA52C",
"FX c #798546",
"GX c #72904D",
"HX c #849C28",
"JX c #839339",
"KX c #84A22E",
"LX c #8B9649",
"PX c #93AE54",
"IX c #B7C46C",
/* pixels */
"PX2 5 ! %.C O.K P @.{ *.g.q 3 6.CXaX+.+.+.@.aXaXw.N q b.VXkXHXlXHXcXgXcXvXjXq w nXVX+.kX3.hX8.2...2.7.x.e 6 <.o.o.C *.H G G Z PX",
"j.2 w j.;.*.{ B O.4.O.*.^ N 3 6.MXkXfXxXpXpXpX5.w.U q b.CX{ lXKXHXHXgXcXvXCXw U ZXsX{ lXhX5.| 7.7.6.,.f.E 5 =.o.C B 6.,.&.&.B =.",
"E E y.E >.7.7.| | 4.2.:.w t.w n.8.@.+.pXpXjXjXVXU ( w AXVXpXCXlXDXKXzXxXzXBXY [ T NXVXCX5.MXdXVXnXbX=.M y.h ;.| nXJ &.C C x.l.N.",
"7 d.s.0 :.b.7.| ,.6. .:.5 V.t.n.q.+.K +.pXzXjXNX9 V.( m.KXDXHXgXzXCXxXgXkXX.) !.5 BXKXkXO.7.1.dX1.1.;.5 p._ N 6.l.G <.<.<.ZXNXb.",
"$ s._.s w.8.C C nXbX .9.7 rXV.W w.#.#.kXCXCXVXBXd ,Xp.R PXcXlXCXgXkXpXgXlXU ] :Xd m.BXhXsX| K dXP O.n.w <Xp.5 b.} C 1.NX7.,.....",
"t 0X>Xg :.| G 1.bX7.7.0.d ,Xs.a e.#.5.hXkXkXCXBX) >X<Xd HXgXlXKXkXkXkXCXBXa W.:XY B.SXaXdXo.4.dXP 5.v.d <X<X0 N.6.|  . .H C { 2.",
"v '.`.k R H ,.nX,.,.7.T [ >X].s JXxX#.+.+.@.MXR ] :X,Xd e.zXcXzXzXCXDXSXBXd :X:XY v.DX+.O.P dX4.fX8.U [ ,X<Xf M.=.7.4.O.,.K | o.",
"T.uX#X] w ..,.o.7.| 2.6 <X5X>Xg IXPXhX5.jXMXb.2 <X5X<XY BXCXzXgXgXcXDXCXv.g 7X:Xd.q aXfXxXO.nXnXjXNX4 s.:X,Xj w z.VX4.H | o.o.P ",
"{.&X$XA.4 .. .{ 8.NX9.9 :X#X5Xk R 3.{ aXVX8.LX5 `.&X:X) R 5.gXcXgXpXkXhXU d.`.tXs.w aXP jXdXdXsX5.q.: 0X`.`.d.5 ZX4.{ { o.1.1.P ",
"$X8X=XG.9 :.7...2.b.z.9 :X$X#X` 5 b.q.NXw.SXAX9 `.6X`.g w BXlXgXcXgXzXNX4 wXtX`.s.U VXpX{ { O.dXaXw.< ].6X`.u.7 j.sX{ C O.,.K 7.",
"}.}. XG.4 :.6.| sX6.%.4 :X$X{.` ; PXNXhX3.SXLXa :X&X'._ 5 LXHXgXvX+.kXJX= ).%X&X_.9 3.aXaXMXsX| 5.w.< ].8X#Xb - ^ hX+.{ dX,.B ,.",
"OXOXOXW.: j.7.1.nXz.~ 4 :X8X|.] = B.b.q.X.X.n.8 7X&X'._ @ AXBX#.gX@.CXAX+ ).6XuX_.8 BXVX5.8.NXnXMXm.> >X3X~.i.- j.bXdX5.bX6.%.%.",
"OX}. XG.: / z.x.z.x.v.u ~.8X|.x + FXAXAXLXBXLX0 `.5X>Xz + M.m.hXNXJXSXv.+ ).5X`.i.0 AXSXb.>.NXZXx.v.< yX3X~.i.$ FXh.x.;.Z -.M.M.",
"}.OX.XD.> 0 9 5 5 w a i ~.4X{.D.& @ 6 6 w a d y 5X4X3Xk % 7 9 w 5 w 5 7 > U.4X8XQ.< 9 5 9 9 q 6 6 7 r ].1X|.i.* + . 6 6 # 6 9 9 ",
"$X8X2XH.c l l k l k v D.4X2X{.S.k _ _ W z k k I.=XXXXXF.v z z _ k _ k k c @XOXoX~.x j g k l j W W k ] |.1X1XE.v z _ _ _ j j j _ ",
"$X=X.XF.E.T.R.Y.T.R.E.E.}. X$XI.I.Q.i.i.U.Q.T.{.+X+XXXF.T.^.^.U.^.T.Y.I.E.}.oX+XE.[.U.i.R.I.P.U.i.Q.E.OXK.K.;XE.Y.U.U.Y.U.U.U.P.",
"OX2XL.L.E.T.Y.Y.Y.I.E.{.}.2X XE.I.I.Y.U.T.R.R.{.+XoXoXJ.R.^.T.[.Y.Y.D.S.E.}.-XOXF.I.U.Y.D.~.T.R.I.S.F.OXoXK.F.E.I.I.E.R.Y.Y.Y.P.",
"XX+XoXL.I.P.P.i.P.Q.~.~. XOX.XE.I.P.P.!.P.U.T.~.2XoXK.F.Y.U.Y.P.Q.Q.!.S.E.{.=X XE.D.i.!.Q.W.P.Q.!.D.@X8X X.XE.S.A.P.I.Y.U.U.U.!.",
"XXOX2XF.k ) g d s s g l 4X2X|.E.k s d Y d s g ] 1X.X.XD.p j d d d a a s v %XtX6X'.l j u s g s f s g v %X6X5XY.z j f h h h h h h ",
"+XOX.XD.y d.U N U ( [ p ~. X{.c & V.v.R R 0.rXr 3X4X|.l % rX0.T T T m.rX* T.`.`.' r d.U Y U U w v.rXt ].5X].c & V.^ w 5 5 2 # . ",
"L.=X8XW.- / ~ l.x.>.( y 7X8X#Xc o M.N.b.q.BX<Xy `.|.#X' X FXNXSXBXNXNXJX$ _.:X7X<X> m.R m.NXBX*.NXLX> '.6X5Xi.$ FXz.%.-.x.x.h.j.",
"-X}. XA.4 ~ D &.l.Q v., ~.3X#Xx % N.x.MXaXSXJXs 7X6X@Xx + N.CXDXxX5.5.BX$ _.:X~.!.< m.BX3.hX4.5.sXn.< >X$X#Xi.o AX7.1.&.<.&.*.%.",
"=X X$XG.4 ~ $.<.ZXV v.8 :X5X`.' X h.NX4.@.JXv.y 3X*X@Xc + ~ aXDXzXkX#.q.& (.5X6XQ.y e.CXq.NXO.O.VXw.y `.{.&Xb & v.,.1.o.o.G } *.",
"}.8X XG.; j.%.6.z.N B.0 <X6X#X' O M.NX4.VXBXm.i 3X6X&Xc o n.@.xXxXpXgXJX$ /.tX#XY.< e.#.KXMXdX{ MXw., `.&XuXz % >.| ,.P o.G ,.x.",
"}. X8XA.: h.T NX9.>.v., 7X6X~.' + >.7.sX5.hXm.8 :X#X%Xx O FXCXpX+.kXjXn.$ wXyX%X(.< 0.#.2.7.4.O.VXX.8 ].tXeXa.o z.C VXB G 1.B 1.",
"OXOX$XI.= / %.7...:.N.8 :X$X~.` @ z.bXMXVXSXAXu :X3X`.` O n.kXzXzXpX5.n.% wXeXtX/.y BXCXbX7.dXsXO..., ].tXeXa.+ l.H VXG K 1.G L ",
"OXOX}.W.= >.;.6.V ;.B.0 `.$X#Xx   z.6.O.sXBXn.8 ,X3X~.` + v.3.CXkXgXxXn.% ).yX5X_.8 NXVXjX4.@.aX@.9.8 0XtX'.a.+ ;.,.MX} O.O.P G ",
"}.OX=XI.; g.6.7.C *.M.7 `.6X#X` O N.9...3.q.0.u ,X3X`.k + B.q.zX+.zXCXw.% ).6X#X(., w.aX4.{ +.5.4.n., ].6X%Xa.o %.1.l.} 2.O.1.G ",
"XXOX-XP.; ~ Z | H *.g.7 >X6X|.` + N.b.3.q.w.0.i :X4X#Xl + AXhXgXgXzXkXe.& /.%X6XY.< n.MX4.{ #.hXsXAX1 qX&X&Xa.o %.1.=.$.6. .bXL ",
"+X+X-XP.; F m | H } ~ 9 >X$X|.`   h.x.hXlXlX0.y 3X#X#Xx O AXBXkXVXxXpXw.% ^.#X6XY.< v.MXMXdX5.#.7.AXr eX&X#Xb + ;.1.<.$.,.| <.L ",
"oX+X=XI.: F Z | ..%.~ 8 >X$X|.` O c.x.MXkXlXm.i 3X#X#Xx O AXVXxXVXaX@.NX% (.&X$X(.> %.2.MXVX5.{ K :.1 '.$X#Xu.+ 6.P k.&.,.K P G ",
"XXOX=XI.; ^ 6. .*.z.j.8 :X6X#X` O g.z.4.+.3.m.y 3X6X#Xl O ZXsXfXVX{ { BX% Q.6X#XQ.> X.o.dXMXdX{ O.9.< '.6X#Xu.+ *.G bX&.1.P G K ",
"oXOX XW.: ^ Q <.} b.^ 7 >X$X|.` + / >.hX{ w.LX0 3X6X{.x O FX5.zXdXjX@.BX% U.5X#XQ., b.pX+.jXSXdXMX>.< 0X%XeXa.% %.C J k.1.G B B ",
"oXOX2XA.= ~ %.J } ;.U 7 :X$X|.x + N.m.SXCXNXAX0 3X#X6Xx O AXCXpX@.@.@.BX% /.5X5X(.> w.pXfXMXdXB 8.m.y 0XtXeXa.o >.| &.L G P P B ",
" X X2XS.; h.x.J *.%.A 9 >X$X#Xx O FXz.7.MX3.:.0 :X&X%Xz O j.NXSX@.O.dXBX% ).yX%X/., q.dXMXdX1.| bXb.> ].yX0Xa.o N.J $.=.J &.<.G ",
"}.OX=XI.; h.x.$.%.%.^ 8 5X&X#X' O FXl.*.2.7.n.0 >X#X#X' X C.NXhXO.{ xXNX+ ).yXeX/., 9.dXMXdXo.o.VX>., 0X5X0Xu.+ h.C $.z.&.&.k.L ",
"OX-X=XS.; ~ -.*.} ;.g.4 #X-X*Xc X N.x.bXsXNXAX0 :X$X#X' + FX3...5.+.zXhX+ ).5X&X(.< >.+.MXdXo.@.O...y >X@X&Xu.O -.C $.} C &.k.G ",
"OX-X=XI.; ^ -.l.=.x.M.7 #X-X*Xc + j.=.sX4.8.B.8 3X=X|.v + N...aXjXkXxXNX+ ).#X$X].1 >.O.dXdXaXjXH :.1 ].&X#Xu.o -.J Z C V J &.&.",
"*X=X=XI.: g.g.l.l.l.M.0 3X8X*Xc + N.2.4.MX8.v.y 3X}.=Xx o FXNX4.aXhX@.q.+ _.3X4X[.> 0.4.dXsX4.O.6.v.1 %X8X#Xb o h.=.J Z J Z J k.",
"=X$X=XS.= t.g.Q ;.T / 8 `.&X#Xc o LX:...NXw.( y 1XOX.Xc o N.NXNXNXBX .m.% (.#X$XY.r B.b. .} x.NX%.Y r 5X#X#Xb & h.FXx.L =.l.-.-.",
" X8X4XS.> v.E ^ ( ( W y 7X#X5Xc $ V.B.v.v.B.V.y `.4X#Xc o V.B.:.v.v.0.V.* ^.#X4XI.r V.0.T n.B.N.U d.t `.6X#Xb * W h.M.^ N.g.^ t.",
"4X|.L.~.k g u s a d g k 3X|.`.I.z p s f d d g ] 6X$X{.Y.p h d a f Y d g v %X#X4X~.k g d s d f a u g k 5X#X#XR.v p f f f a f f f ",
"}.2X X;XE.T.Q.!.Q.Q.I.E.4X X{.R.[.U.!.p.p.P.P.~.|.8X XE./.i.P.P.p.!.p.Q.Z.&X$X|.~.G.] !.Q.i.p._._.P.~.4X.X|.E.R.Y.!.i.!.p.p.p.p.",
"}.OXXXF.E.R.T.Y.Y.Y.E.;XOXOX XE.Z.R.Q.!.A.I.R.R.4X2X}.F.[.^.D.~.W.Q.I.I.;X-X-X2XH.D.Q.P.Y.Y.U.Q.P.W.F.|.1X.XF.E.Y.Y.W.S.Q.!.P.U.",
"+X+XXXF.E.[.T./.U.Y.R.{.OX+X=XE.R.T.P.!.A.D.I.~.4XXX.XF.R.[.D.I.A.A.G.D.E.*XOX.X~.D.Q.i.Y.[.P.U.P.W.H.1X9XK.F.E.Y.P.W.S.A.P.Q.U.",
"+XiX+XL.c k u.n _ z v D. XOX}.E.c z _ Y ) ` l D.1X2X2XF.c z l k ) ) ) l v &X8X4XE.c k z z _ k _ _ k D.1X.X.XF.v z z k ) z _ z z ",
"+XXX.XH.< X @ @ # = - y |.2X.XD.* + # 2 5 9 < i 3X|.~.c * o   # ; ; 6 X 1 ^.`.7XY.t % @ + @ @ O + $ t `.4X3Xc * X     . O     X ",
"OXOX2XS.- t.c.I r.! E 8 3X|.$Xc % y.N.N.ZXN.d.y :X6X|.v $ M.g.ZXN.n.n.j.o ).5X5XY.r y.j.r.r.h.^ t.d.r 5X#X~.u.% C.e F r.r.! M.c.",
"XXOX XS.: t.~ D D N./ 8 :X$X#Xx O N.A A x.l.j.u :X6X#Xx X t.ZXb.3. .2.n.o ).tX#X^.< N.g.Q =.-.z.g.v.< ].6X`.i.o N.c.f.m V =.A Q ",
"oX+XOXW.: ! F A $.N./ 7 :X#X#X` O r.Z &.x.6.>.8 :X$X~.` + / b.8.5.#.q.m.+ s.tX&X[.> j.=.z.ZX} C $./ < '.6X`.u.o h.V D f.z.6.V C ",
"oX+X XW.= ! A V =.x.g.7 :X#X#X' O r.Q $.nXb./ 0 :X$X#Xx X ~ b.CX8.5.q.m.+ ).tX&X(.< v.*.$.<.$.*.$.^ < '.6X#Xu.+ j.m D x.=.} Z *.",
"oX+X XP.= ! A m A A ^ : :X4X#X'   r.Q m | 6.^ 0 :X4X#Xx O M.b.3.8.5.q.m.+ ).tX&XY.< n.*.V C } z.$.^ < '.5X#Xu.% >.A f.l.Z } 6.*.",
"XXOX$XP.= ! N M A A ^ , :X6X#X` O r.x.V B ;.v.8 :X4X#Xl + N.b.5.#.5.NXAX% ).&X&X^.> / $.=.=.$.Z $./ < '.5X#Xu.% ^ Z f.l.$.6.x.V ",
"XX=X=XY.= ! M 3 $.Q t.8 >X6X@Xx O c.x.&.*.ZXAX0 :X$X#Xl X M.z.NX2.5.q.n.% ).&X&X(.> ^ Z &.=.=.$.J j.< '.5X#Xu.o T A D f.$.$.l.Z ",
"+XOX=XQ.= S N m A Q ^ 7 >X&X#X'   r.-.=.nXNXN.8 7X#X|.x O h.T  .8.5.3.0.o ).eX&X^., ^ C C C l.x.Z n.< 0X6X`.u.+ / -.A A V m $.=.",
"+XOX$XY.= S F D A -.^ 8 >X6X@X' O ! -.nXx.*.N.8 :X$X#Xx X M.%.5.hXNXq.n.% ).eX&X^., >.$.&.J =.&.$.B.< '.6X`.u.+ h.l.m A D V D V ",
"XXOX=XY.= S F F A ~ E , >X6X#X'   ! f.J } x./ 0 :X$X#Xx X j.T  .3.q.q.>.o ).tX&X(.> n.Z B k.L V x.^ < ].5X`.u.o h.ZXx.f.f.D m m ",
"+XOX$XY.= S I F F ~ E 7 >X6X@X' O F -.Z | z./ 0 7X6X#Xx X h.>.2...3.NXn.% ).eX&X(.> h.Z C &.$.k.Z N > 0X6X5Xi.% g.-.D D L A m A ",
"+XOX=XQ.= e M 3 M S S , >X6X@X' O F D $.&.6.^ 0 :X6X#Xl + M.9...2. .3.0.o ).eX&X(.- >.C C J J ZXA N > ].5X`.u.+ h.A F c.l.D m m ",
"XXOX$XY.= S r.f.M q w , >X&X@X' O ! Q &.*.=./ 0 :X$X#Xx O g.:...q.....( o ).&X&X^.> >.V B J J x.$.U < 0X5X`.u.% N.D -.N.x.-.D V ",
"XXOX$XY.= S ! r.N q e 7 >X&X|.' O r.D J J Q / 0 >X#X#X' X E >.8.2...3.n.% ).%X&X(., >.V B L &.=.D N < 0X6X`.u.+ g.A F ~ F D f.D ",
"oXOX=XQ.= e q 2 F q E 7 >X$X#X'   r.D Z J Z / 8 >X6X#Xx X g.z.8.#.#.3.m.% ).&X6X(.- >.C B L &.=.D N > 0X6X`.u.o ^ m M F ~ f.F 3 ",
"oXOX}.Y.- S S q F q E 7 >X#X#X' O c.D &.&.%.h.0 :X&X#Xl + N.z.2.3.5.X.0.o s.6X&X/.- ~ J &.<.&.<.&.E < 0X5X`.i.% ^ V M D f.-.m M ",
"L..X XI.= e S q ! q E 7 `.#X|.l + g.m Z &.$.h.0 `.#X~.x X M.;.hXX.q.X.0.o i.%X@X(.8 >.&.mXmX<.<.D N > ].#X~.u.o ^ L D D F q F GX"
};
